<?xml version="1.0" encoding="us-ascii" standalone="no"?><svg xmlns="http://www.w3.org/2000/svg" xmlns:xlink="http://www.w3.org/1999/xlink" contentStyleType="text/css" height="1024px" preserveAspectRatio="none" style="width:774px;height:1024px;background:#FFFFFF;" version="1.1" viewBox="0 0 774 1024" width="774px" zoomAndPan="magnify"><defs/><g><!--class Console--><g id="elem_Console"><rect codeLine="2" fill="#F1F1F1" height="48" id="Console" rx="2.5" ry="2.5" style="stroke:#181818;stroke-width:0.5;" width="84" x="7" y="576"/><ellipse cx="22" cy="592" fill="#ADD1B2" rx="11" ry="11" style="stroke:#181818;stroke-width:1.0;"/><path d="M24.7656,587.875 Q24.9219,587.6563 25.1094,587.5469 Q25.2969,587.4375 25.5156,587.4375 Q25.8906,587.4375 26.125,587.7031 Q26.3594,587.9531 26.3594,588.5625 L26.3594,590.0156 Q26.3594,590.625 26.125,590.8906 Q25.8906,591.1563 25.5156,591.1563 Q25.1719,591.1563 24.9688,590.9531 Q24.7656,590.7656 24.6563,590.25 Q24.6094,589.8906 24.4219,589.7031 Q24.0938,589.3281 23.4844,589.1094 Q22.875,588.8906 22.25,588.8906 Q21.4844,588.8906 20.8438,589.2188 Q20.2188,589.5469 19.7188,590.2969 Q19.2344,591.0469 19.2344,592.0781 L19.2344,593.1719 Q19.2344,594.4063 20.125,595.2344 Q21.0156,596.0469 22.6094,596.0469 Q23.5469,596.0469 24.2031,595.7969 Q24.5938,595.6406 25.0156,595.2031 Q25.2813,594.9375 25.4219,594.8594 Q25.5781,594.7813 25.7813,594.7813 Q26.1094,594.7813 26.3594,595.0469 Q26.625,595.2969 26.625,595.6406 Q26.625,595.9844 26.2813,596.3906 Q25.7813,596.9688 24.9844,597.2969 Q23.9063,597.75 22.6094,597.75 Q21.0938,597.75 19.8906,597.125 Q18.9063,596.625 18.2188,595.5625 Q17.5313,594.4844 17.5313,593.2031 L17.5313,592.0469 Q17.5313,590.7188 18.1406,589.5781 Q18.7656,588.4219 19.8594,587.8125 Q20.9531,587.1875 22.1875,587.1875 Q22.9219,587.1875 23.5625,587.3594 Q24.2188,587.5156 24.7656,587.875 Z " fill="#000000"/><text fill="#000000" font-family="sans-serif" font-size="14" lengthAdjust="spacing" textLength="52" x="36" y="597.7285">Console</text><line style="stroke:#181818;stroke-width:0.5;" x1="8" x2="90" y1="608" y2="608"/><line style="stroke:#181818;stroke-width:0.5;" x1="8" x2="90" y1="616" y2="616"/></g><!--class Option--><g id="elem_Option"><rect codeLine="4" fill="#DC143C" height="136.0469" id="Option" rx="2.5" ry="2.5" style="stroke:#181818;stroke-width:0.5;" width="140" x="175" y="327"/><ellipse cx="219.75" cy="343" fill="#A9DCDF" rx="11" ry="11" style="stroke:#181818;stroke-width:1.0;"/><path d="M221.9375,344.7656 L217.7969,344.7656 L217.375,345.7969 L217.7969,345.7969 Q218.4063,345.7969 218.6719,346.0313 Q218.9375,346.2656 218.9375,346.6563 Q218.9375,347.0313 218.6719,347.2656 Q218.4063,347.5 217.7969,347.5 L215.5,347.5 Q214.8906,347.5 214.6406,347.2656 Q214.375,347.0313 214.375,346.6406 Q214.375,346.2656 214.6563,346.0313 Q214.9219,345.7813 215.5469,345.7969 L218.2188,339.1406 L217.1094,339.1406 Q216.5,339.1406 216.2344,338.9063 Q215.9688,338.6719 215.9688,338.2813 Q215.9688,337.9063 216.2344,337.6719 Q216.5,337.4375 217.1094,337.4375 L220.7813,337.4375 L224.1719,345.7969 Q224.7656,345.7969 224.9531,345.9375 Q225.3438,346.2031 225.3438,346.6563 Q225.3438,347.0313 225.0781,347.2656 Q224.8281,347.5 224.2188,347.5 L221.9219,347.5 Q221.3125,347.5 221.0469,347.2656 Q220.7813,347.0313 220.7813,346.6406 Q220.7813,346.2656 221.0469,346.0313 Q221.3125,345.7969 221.9219,345.7969 L222.3438,345.7969 L221.9375,344.7656 Z M221.2188,343.0625 L219.8594,339.6875 L218.4844,343.0625 L221.2188,343.0625 Z " fill="#000000"/><text fill="#000000" font-family="sans-serif" font-size="14" font-style="italic" lengthAdjust="spacing" textLength="42" x="240.25" y="348.7285">Option</text><line style="stroke:#181818;stroke-width:0.5;" x1="176" x2="314" y1="359" y2="359"/><polygon fill="none" points="186,368.3047,190,372.3047,186,376.3047,182,372.3047" style="stroke:#B38D22;stroke-width:1.0;"/><text fill="#000000" font-family="sans-serif" font-size="14" lengthAdjust="spacing" textLength="22" x="195" y="377.5332">title</text><line style="stroke:#181818;stroke-width:0.5;" x1="176" x2="314" y1="384.6094" y2="384.6094"/><text fill="#000000" font-family="sans-serif" font-size="14" lengthAdjust="spacing" textLength="103" x="181" y="403.1426">constructor(title)</text><text fill="#000000" font-family="sans-serif" font-size="14" font-style="italic" lengthAdjust="spacing" textLength="128" x="181" y="420.752">interact() &#171;abstract&#187;</text><text fill="#000000" font-family="sans-serif" font-size="14" lengthAdjust="spacing" textLength="102" x="181" y="438.3613">showTitle(index)</text><text fill="#000000" font-family="sans-serif" font-size="14" lengthAdjust="spacing" textLength="57" x="181" y="455.9707">getTitle()</text></g><!--class QuitOption--><g id="elem_QuitOption"><rect codeLine="12" fill="#DC143C" height="118.4375" id="QuitOption" rx="2.5" ry="2.5" style="stroke:#181818;stroke-width:0.5;" width="100" x="335" y="541"/><ellipse cx="350" cy="557" fill="#ADD1B2" rx="11" ry="11" style="stroke:#181818;stroke-width:1.0;"/><path d="M352.7656,552.875 Q352.9219,552.6563 353.1094,552.5469 Q353.2969,552.4375 353.5156,552.4375 Q353.8906,552.4375 354.125,552.7031 Q354.3594,552.9531 354.3594,553.5625 L354.3594,555.0156 Q354.3594,555.625 354.125,555.8906 Q353.8906,556.1563 353.5156,556.1563 Q353.1719,556.1563 352.9688,555.9531 Q352.7656,555.7656 352.6563,555.25 Q352.6094,554.8906 352.4219,554.7031 Q352.0938,554.3281 351.4844,554.1094 Q350.875,553.8906 350.25,553.8906 Q349.4844,553.8906 348.8438,554.2188 Q348.2188,554.5469 347.7188,555.2969 Q347.2344,556.0469 347.2344,557.0781 L347.2344,558.1719 Q347.2344,559.4063 348.125,560.2344 Q349.0156,561.0469 350.6094,561.0469 Q351.5469,561.0469 352.2031,560.7969 Q352.5938,560.6406 353.0156,560.2031 Q353.2813,559.9375 353.4219,559.8594 Q353.5781,559.7813 353.7813,559.7813 Q354.1094,559.7813 354.3594,560.0469 Q354.625,560.2969 354.625,560.6406 Q354.625,560.9844 354.2813,561.3906 Q353.7813,561.9688 352.9844,562.2969 Q351.9063,562.75 350.6094,562.75 Q349.0938,562.75 347.8906,562.125 Q346.9063,561.625 346.2188,560.5625 Q345.5313,559.4844 345.5313,558.2031 L345.5313,557.0469 Q345.5313,555.7188 346.1406,554.5781 Q346.7656,553.4219 347.8594,552.8125 Q348.9531,552.1875 350.1875,552.1875 Q350.9219,552.1875 351.5625,552.3594 Q352.2188,552.5156 352.7656,552.875 Z " fill="#000000"/><text fill="#000000" font-family="sans-serif" font-size="14" lengthAdjust="spacing" textLength="68" x="364" y="562.7285">QuitOption</text><line style="stroke:#181818;stroke-width:0.5;" x1="336" x2="434" y1="573" y2="573"/><polygon fill="none" points="346,582.3047,350,586.3047,346,590.3047,342,586.3047" style="stroke:#B38D22;stroke-width:1.0;"/><text fill="#000000" font-family="sans-serif" font-size="14" lengthAdjust="spacing" textLength="57" x="355" y="591.5332">executed</text><line style="stroke:#181818;stroke-width:0.5;" x1="336" x2="434" y1="598.6094" y2="598.6094"/><text fill="#000000" font-family="sans-serif" font-size="14" lengthAdjust="spacing" textLength="81" x="341" y="617.1426">constructor()</text><text fill="#000000" font-family="sans-serif" font-size="14" lengthAdjust="spacing" textLength="57" x="341" y="634.752">interact()</text><text fill="#000000" font-family="sans-serif" font-size="14" lengthAdjust="spacing" textLength="78" x="341" y="652.3613">isExecuted()</text></g><!--class Menu--><g id="elem_Menu"><rect codeLine="21" fill="#DC143C" height="259.3125" id="Menu" rx="2.5" ry="2.5" style="stroke:#181818;stroke-width:0.5;" width="180" x="269" y="7"/><ellipse cx="336.75" cy="23" fill="#A9DCDF" rx="11" ry="11" style="stroke:#181818;stroke-width:1.0;"/><path d="M338.9375,24.7656 L334.7969,24.7656 L334.375,25.7969 L334.7969,25.7969 Q335.4063,25.7969 335.6719,26.0313 Q335.9375,26.2656 335.9375,26.6563 Q335.9375,27.0313 335.6719,27.2656 Q335.4063,27.5 334.7969,27.5 L332.5,27.5 Q331.8906,27.5 331.6406,27.2656 Q331.375,27.0313 331.375,26.6406 Q331.375,26.2656 331.6563,26.0313 Q331.9219,25.7813 332.5469,25.7969 L335.2188,19.1406 L334.1094,19.1406 Q333.5,19.1406 333.2344,18.9063 Q332.9688,18.6719 332.9688,18.2813 Q332.9688,17.9063 333.2344,17.6719 Q333.5,17.4375 334.1094,17.4375 L337.7813,17.4375 L341.1719,25.7969 Q341.7656,25.7969 341.9531,25.9375 Q342.3438,26.2031 342.3438,26.6563 Q342.3438,27.0313 342.0781,27.2656 Q341.8281,27.5 341.2188,27.5 L338.9219,27.5 Q338.3125,27.5 338.0469,27.2656 Q337.7813,27.0313 337.7813,26.6406 Q337.7813,26.2656 338.0469,26.0313 Q338.3125,25.7969 338.9219,25.7969 L339.3438,25.7969 L338.9375,24.7656 Z M338.2188,23.0625 L336.8594,19.6875 L335.4844,23.0625 L338.2188,23.0625 Z " fill="#000000"/><text fill="#000000" font-family="sans-serif" font-size="14" font-style="italic" lengthAdjust="spacing" textLength="36" x="357.25" y="28.7285">Menu</text><line style="stroke:#181818;stroke-width:0.5;" x1="270" x2="448" y1="39" y2="39"/><polygon fill="none" points="280,48.3047,284,52.3047,280,56.3047,276,52.3047" style="stroke:#B38D22;stroke-width:1.0;"/><text fill="#000000" font-family="sans-serif" font-size="14" lengthAdjust="spacing" textLength="22" x="289" y="57.5332">title</text><polygon fill="none" points="280,65.9141,284,69.9141,280,73.9141,276,69.9141" style="stroke:#B38D22;stroke-width:1.0;"/><text fill="#000000" font-family="sans-serif" font-size="14" lengthAdjust="spacing" textLength="46" x="289" y="75.1426">options</text><line style="stroke:#181818;stroke-width:0.5;" x1="270" x2="448" y1="82.2188" y2="82.2188"/><text fill="#000000" font-family="sans-serif" font-size="14" lengthAdjust="spacing" textLength="103" x="289" y="100.752">constructor(title)</text><text fill="#000000" font-family="sans-serif" font-size="14" lengthAdjust="spacing" textLength="57" x="289" y="118.3613">interact()</text><text fill="#000000" font-family="sans-serif" font-size="14" font-style="italic" lengthAdjust="spacing" textLength="154" x="289" y="135.9707">addOptions() &#171;abstract&#187;</text><text fill="#000000" font-family="sans-serif" font-size="14" lengthAdjust="spacing" textLength="65" x="289" y="153.5801">interact_()</text><text fill="#000000" font-family="sans-serif" font-size="14" lengthAdjust="spacing" textLength="76" x="289" y="171.1895">showTitles()</text><rect fill="#F24D5C" height="6" style="stroke:#C82930;stroke-width:1.0;" width="6" x="277" y="181.5703"/><text fill="#000000" font-family="sans-serif" font-size="14" lengthAdjust="spacing" textLength="69" x="289" y="188.7988">showTitle()</text><text fill="#000000" font-family="sans-serif" font-size="14" lengthAdjust="spacing" textLength="138" x="289" y="206.4082">execChoosedOption()</text><text fill="#000000" font-family="sans-serif" font-size="14" lengthAdjust="spacing" textLength="73" x="289" y="224.0176">add(option)</text><text fill="#000000" font-family="sans-serif" font-size="14" lengthAdjust="spacing" textLength="106" x="289" y="241.627">removeOptions()</text><text fill="#000000" font-family="sans-serif" font-size="14" lengthAdjust="spacing" textLength="114" x="289" y="259.2363">hasOption(option)</text></g><!--class QuitMenu--><g id="elem_QuitMenu"><rect codeLine="38" fill="#DC143C" height="136.0469" id="QuitMenu" rx="2.5" ry="2.5" style="stroke:#181818;stroke-width:0.5;" width="155" x="350.5" y="327"/><ellipse cx="392.95" cy="343" fill="#A9DCDF" rx="11" ry="11" style="stroke:#181818;stroke-width:1.0;"/><path d="M395.1375,344.7656 L390.9969,344.7656 L390.575,345.7969 L390.9969,345.7969 Q391.6063,345.7969 391.8719,346.0313 Q392.1375,346.2656 392.1375,346.6563 Q392.1375,347.0313 391.8719,347.2656 Q391.6063,347.5 390.9969,347.5 L388.7,347.5 Q388.0906,347.5 387.8406,347.2656 Q387.575,347.0313 387.575,346.6406 Q387.575,346.2656 387.8563,346.0313 Q388.1219,345.7813 388.7469,345.7969 L391.4188,339.1406 L390.3094,339.1406 Q389.7,339.1406 389.4344,338.9063 Q389.1688,338.6719 389.1688,338.2813 Q389.1688,337.9063 389.4344,337.6719 Q389.7,337.4375 390.3094,337.4375 L393.9813,337.4375 L397.3719,345.7969 Q397.9656,345.7969 398.1531,345.9375 Q398.5438,346.2031 398.5438,346.6563 Q398.5438,347.0313 398.2781,347.2656 Q398.0281,347.5 397.4188,347.5 L395.1219,347.5 Q394.5125,347.5 394.2469,347.2656 Q393.9813,347.0313 393.9813,346.6406 Q393.9813,346.2656 394.2469,346.0313 Q394.5125,345.7969 395.1219,345.7969 L395.5438,345.7969 L395.1375,344.7656 Z M394.4188,343.0625 L393.0594,339.6875 L391.6844,343.0625 L394.4188,343.0625 Z " fill="#000000"/><text fill="#000000" font-family="sans-serif" font-size="14" font-style="italic" lengthAdjust="spacing" textLength="62" x="413.05" y="348.7285">QuitMenu</text><line style="stroke:#181818;stroke-width:0.5;" x1="351.5" x2="504.5" y1="359" y2="359"/><polygon fill="none" points="361.5,368.3047,365.5,372.3047,361.5,376.3047,357.5,372.3047" style="stroke:#B38D22;stroke-width:1.0;"/><text fill="#000000" font-family="sans-serif" font-size="14" lengthAdjust="spacing" textLength="69" x="370.5" y="377.5332">quitOption;</text><line style="stroke:#181818;stroke-width:0.5;" x1="351.5" x2="504.5" y1="384.6094" y2="384.6094"/><text fill="#000000" font-family="sans-serif" font-size="14" lengthAdjust="spacing" textLength="103" x="356.5" y="403.1426">constructor(title)</text><text fill="#000000" font-family="sans-serif" font-size="14" lengthAdjust="spacing" textLength="76" x="356.5" y="420.752">showTitles()</text><text fill="#000000" font-family="sans-serif" font-size="14" lengthAdjust="spacing" textLength="99" x="356.5" y="438.3613">addquitOption()</text><text fill="#000000" font-family="sans-serif" font-size="14" lengthAdjust="spacing" textLength="143" x="356.5" y="455.9707">isExecutedquitOption()</text></g><!--class ModelQuitMenu--><g id="elem_ModelQuitMenu"><rect codeLine="48" fill="#00FF00" height="100.8281" id="ModelQuitMenu" rx="2.5" ry="2.5" style="stroke:#181818;stroke-width:0.5;" width="131" x="470.5" y="549.5"/><ellipse cx="485.5" cy="565.5" fill="#ADD1B2" rx="11" ry="11" style="stroke:#181818;stroke-width:1.0;"/><path d="M488.2656,561.375 Q488.4219,561.1563 488.6094,561.0469 Q488.7969,560.9375 489.0156,560.9375 Q489.3906,560.9375 489.625,561.2031 Q489.8594,561.4531 489.8594,562.0625 L489.8594,563.5156 Q489.8594,564.125 489.625,564.3906 Q489.3906,564.6563 489.0156,564.6563 Q488.6719,564.6563 488.4688,564.4531 Q488.2656,564.2656 488.1563,563.75 Q488.1094,563.3906 487.9219,563.2031 Q487.5938,562.8281 486.9844,562.6094 Q486.375,562.3906 485.75,562.3906 Q484.9844,562.3906 484.3438,562.7188 Q483.7188,563.0469 483.2188,563.7969 Q482.7344,564.5469 482.7344,565.5781 L482.7344,566.6719 Q482.7344,567.9063 483.625,568.7344 Q484.5156,569.5469 486.1094,569.5469 Q487.0469,569.5469 487.7031,569.2969 Q488.0938,569.1406 488.5156,568.7031 Q488.7813,568.4375 488.9219,568.3594 Q489.0781,568.2813 489.2813,568.2813 Q489.6094,568.2813 489.8594,568.5469 Q490.125,568.7969 490.125,569.1406 Q490.125,569.4844 489.7813,569.8906 Q489.2813,570.4688 488.4844,570.7969 Q487.4063,571.25 486.1094,571.25 Q484.5938,571.25 483.3906,570.625 Q482.4063,570.125 481.7188,569.0625 Q481.0313,567.9844 481.0313,566.7031 L481.0313,565.5469 Q481.0313,564.2188 481.6406,563.0781 Q482.2656,561.9219 483.3594,561.3125 Q484.4531,560.6875 485.6875,560.6875 Q486.4219,560.6875 487.0625,560.8594 Q487.7188,561.0156 488.2656,561.375 Z " fill="#000000"/><text fill="#000000" font-family="sans-serif" font-size="14" lengthAdjust="spacing" textLength="99" x="499.5" y="571.2285">ModelQuitMenu</text><line style="stroke:#181818;stroke-width:0.5;" x1="471.5" x2="600.5" y1="581.5" y2="581.5"/><polygon fill="none" points="481.5,590.8047,485.5,594.8047,481.5,598.8047,477.5,594.8047" style="stroke:#B38D22;stroke-width:1.0;"/><text fill="#000000" font-family="sans-serif" font-size="14" lengthAdjust="spacing" textLength="38" x="490.5" y="600.0332">model</text><line style="stroke:#181818;stroke-width:0.5;" x1="471.5" x2="600.5" y1="607.1094" y2="607.1094"/><text fill="#000000" font-family="sans-serif" font-size="14" lengthAdjust="spacing" textLength="119" x="476.5" y="625.6426">constructor(model)</text><text fill="#000000" font-family="sans-serif" font-size="14" lengthAdjust="spacing" textLength="83" x="476.5" y="643.252">addOptions()</text></g><!--class Model--><g id="elem_Model"><rect codeLine="56" fill="#008B8B" height="153.6563" id="Model" rx="2.5" ry="2.5" style="stroke:#181818;stroke-width:0.5;" width="102" x="548" y="864"/><ellipse cx="577.4" cy="880" fill="#ADD1B2" rx="11" ry="11" style="stroke:#181818;stroke-width:1.0;"/><path d="M580.1656,875.875 Q580.3219,875.6563 580.5094,875.5469 Q580.6969,875.4375 580.9156,875.4375 Q581.2906,875.4375 581.525,875.7031 Q581.7594,875.9531 581.7594,876.5625 L581.7594,878.0156 Q581.7594,878.625 581.525,878.8906 Q581.2906,879.1563 580.9156,879.1563 Q580.5719,879.1563 580.3688,878.9531 Q580.1656,878.7656 580.0563,878.25 Q580.0094,877.8906 579.8219,877.7031 Q579.4938,877.3281 578.8844,877.1094 Q578.275,876.8906 577.65,876.8906 Q576.8844,876.8906 576.2438,877.2188 Q575.6188,877.5469 575.1188,878.2969 Q574.6344,879.0469 574.6344,880.0781 L574.6344,881.1719 Q574.6344,882.4063 575.525,883.2344 Q576.4156,884.0469 578.0094,884.0469 Q578.9469,884.0469 579.6031,883.7969 Q579.9938,883.6406 580.4156,883.2031 Q580.6813,882.9375 580.8219,882.8594 Q580.9781,882.7813 581.1813,882.7813 Q581.5094,882.7813 581.7594,883.0469 Q582.025,883.2969 582.025,883.6406 Q582.025,883.9844 581.6813,884.3906 Q581.1813,884.9688 580.3844,885.2969 Q579.3063,885.75 578.0094,885.75 Q576.4938,885.75 575.2906,885.125 Q574.3063,884.625 573.6188,883.5625 Q572.9313,882.4844 572.9313,881.2031 L572.9313,880.0469 Q572.9313,878.7188 573.5406,877.5781 Q574.1656,876.4219 575.2594,875.8125 Q576.3531,875.1875 577.5875,875.1875 Q578.3219,875.1875 578.9625,875.3594 Q579.6188,875.5156 580.1656,875.875 Z " fill="#000000"/><text fill="#000000" font-family="sans-serif" font-size="14" lengthAdjust="spacing" textLength="38" x="594.6" y="885.7285">Model</text><line style="stroke:#181818;stroke-width:0.5;" x1="549" x2="649" y1="896" y2="896"/><polygon fill="none" points="559,905.3047,563,909.3047,559,913.3047,555,909.3047" style="stroke:#B38D22;stroke-width:1.0;"/><text fill="#000000" font-family="sans-serif" font-size="14" lengthAdjust="spacing" textLength="42" x="568" y="914.5332">strings</text><line style="stroke:#181818;stroke-width:0.5;" x1="549" x2="649" y1="921.6094" y2="921.6094"/><text fill="#000000" font-family="sans-serif" font-size="14" lengthAdjust="spacing" textLength="81" x="554" y="940.1426">constructor()</text><text fill="#000000" font-family="sans-serif" font-size="14" lengthAdjust="spacing" textLength="69" x="554" y="957.752">add(string)</text><text fill="#000000" font-family="sans-serif" font-size="14" lengthAdjust="spacing" textLength="90" x="554" y="975.3613">remove(index)</text><text fill="#000000" font-family="sans-serif" font-size="14" lengthAdjust="spacing" textLength="63" x="554" y="992.9707">get(index)</text><text fill="#000000" font-family="sans-serif" font-size="14" lengthAdjust="spacing" textLength="34" x="554" y="1010.5801">size()</text></g><!--class ModelOption--><g id="elem_ModelOption"><rect codeLine="65" fill="#228B22" height="100.8281" id="ModelOption" rx="2.5" ry="2.5" style="stroke:#181818;stroke-width:0.5;" width="174" x="126" y="549.5"/><ellipse cx="168.45" cy="565.5" fill="#A9DCDF" rx="11" ry="11" style="stroke:#181818;stroke-width:1.0;"/><path d="M170.6375,567.2656 L166.4969,567.2656 L166.075,568.2969 L166.4969,568.2969 Q167.1063,568.2969 167.3719,568.5313 Q167.6375,568.7656 167.6375,569.1563 Q167.6375,569.5313 167.3719,569.7656 Q167.1063,570 166.4969,570 L164.2,570 Q163.5906,570 163.3406,569.7656 Q163.075,569.5313 163.075,569.1406 Q163.075,568.7656 163.3563,568.5313 Q163.6219,568.2813 164.2469,568.2969 L166.9188,561.6406 L165.8094,561.6406 Q165.2,561.6406 164.9344,561.4063 Q164.6688,561.1719 164.6688,560.7813 Q164.6688,560.4063 164.9344,560.1719 Q165.2,559.9375 165.8094,559.9375 L169.4813,559.9375 L172.8719,568.2969 Q173.4656,568.2969 173.6531,568.4375 Q174.0438,568.7031 174.0438,569.1563 Q174.0438,569.5313 173.7781,569.7656 Q173.5281,570 172.9188,570 L170.6219,570 Q170.0125,570 169.7469,569.7656 Q169.4813,569.5313 169.4813,569.1406 Q169.4813,568.7656 169.7469,568.5313 Q170.0125,568.2969 170.6219,568.2969 L171.0438,568.2969 L170.6375,567.2656 Z M169.9188,565.5625 L168.5594,562.1875 L167.1844,565.5625 L169.9188,565.5625 Z " fill="#000000"/><text fill="#000000" font-family="sans-serif" font-size="14" font-style="italic" lengthAdjust="spacing" textLength="81" x="188.55" y="571.2285">ModelOption</text><line style="stroke:#181818;stroke-width:0.5;" x1="127" x2="299" y1="581.5" y2="581.5"/><text fill="#000000" font-family="sans-serif" font-size="14" lengthAdjust="spacing" textLength="38" x="132" y="600.0332">model</text><line style="stroke:#181818;stroke-width:0.5;" x1="127" x2="299" y1="607.1094" y2="607.1094"/><text fill="#000000" font-family="sans-serif" font-size="14" lengthAdjust="spacing" textLength="162" x="132" y="625.6426">constructor(string, model)</text><text fill="#000000" font-family="sans-serif" font-size="14" font-style="italic" lengthAdjust="spacing" textLength="128" x="132" y="643.252">interact() &#171;abstract&#187;</text></g><!--class ListModelOption--><g id="elem_ListModelOption"><rect codeLine="73" fill="#228B22" height="83.2188" id="ListModelOption" rx="2.5" ry="2.5" style="stroke:#181818;stroke-width:0.5;" width="135" x="58.5" y="720"/><ellipse cx="73.95" cy="736" fill="#ADD1B2" rx="11" ry="11" style="stroke:#181818;stroke-width:1.0;"/><path d="M76.7156,731.875 Q76.8719,731.6563 77.0594,731.5469 Q77.2469,731.4375 77.4656,731.4375 Q77.8406,731.4375 78.075,731.7031 Q78.3094,731.9531 78.3094,732.5625 L78.3094,734.0156 Q78.3094,734.625 78.075,734.8906 Q77.8406,735.1563 77.4656,735.1563 Q77.1219,735.1563 76.9188,734.9531 Q76.7156,734.7656 76.6063,734.25 Q76.5594,733.8906 76.3719,733.7031 Q76.0438,733.3281 75.4344,733.1094 Q74.825,732.8906 74.2,732.8906 Q73.4344,732.8906 72.7938,733.2188 Q72.1688,733.5469 71.6688,734.2969 Q71.1844,735.0469 71.1844,736.0781 L71.1844,737.1719 Q71.1844,738.4063 72.075,739.2344 Q72.9656,740.0469 74.5594,740.0469 Q75.4969,740.0469 76.1531,739.7969 Q76.5438,739.6406 76.9656,739.2031 Q77.2313,738.9375 77.3719,738.8594 Q77.5281,738.7813 77.7313,738.7813 Q78.0594,738.7813 78.3094,739.0469 Q78.575,739.2969 78.575,739.6406 Q78.575,739.9844 78.2313,740.3906 Q77.7313,740.9688 76.9344,741.2969 Q75.8563,741.75 74.5594,741.75 Q73.0438,741.75 71.8406,741.125 Q70.8563,740.625 70.1688,739.5625 Q69.4813,738.4844 69.4813,737.2031 L69.4813,736.0469 Q69.4813,734.7188 70.0906,733.5781 Q70.7156,732.4219 71.8094,731.8125 Q72.9031,731.1875 74.1375,731.1875 Q74.8719,731.1875 75.5125,731.3594 Q76.1688,731.5156 76.7156,731.875 Z " fill="#000000"/><text fill="#000000" font-family="sans-serif" font-size="14" lengthAdjust="spacing" textLength="102" x="88.05" y="741.7285">ListModelOption</text><line style="stroke:#181818;stroke-width:0.5;" x1="59.5" x2="192.5" y1="752" y2="752"/><line style="stroke:#181818;stroke-width:0.5;" x1="59.5" x2="192.5" y1="760" y2="760"/><text fill="#000000" font-family="sans-serif" font-size="14" lengthAdjust="spacing" textLength="123" x="64.5" y="778.5332">constructor (model)</text><text fill="#000000" font-family="sans-serif" font-size="14" lengthAdjust="spacing" textLength="57" x="64.5" y="796.1426">interact()</text></g><!--class InverseListModelOption--><g id="elem_InverseListModelOption"><rect codeLine="80" fill="#228B22" height="83.2188" id="InverseListModelOption" rx="2.5" ry="2.5" style="stroke:#181818;stroke-width:0.5;" width="180" x="229" y="720"/><ellipse cx="244" cy="736" fill="#ADD1B2" rx="11" ry="11" style="stroke:#181818;stroke-width:1.0;"/><path d="M246.7656,731.875 Q246.9219,731.6563 247.1094,731.5469 Q247.2969,731.4375 247.5156,731.4375 Q247.8906,731.4375 248.125,731.7031 Q248.3594,731.9531 248.3594,732.5625 L248.3594,734.0156 Q248.3594,734.625 248.125,734.8906 Q247.8906,735.1563 247.5156,735.1563 Q247.1719,735.1563 246.9688,734.9531 Q246.7656,734.7656 246.6563,734.25 Q246.6094,733.8906 246.4219,733.7031 Q246.0938,733.3281 245.4844,733.1094 Q244.875,732.8906 244.25,732.8906 Q243.4844,732.8906 242.8438,733.2188 Q242.2188,733.5469 241.7188,734.2969 Q241.2344,735.0469 241.2344,736.0781 L241.2344,737.1719 Q241.2344,738.4063 242.125,739.2344 Q243.0156,740.0469 244.6094,740.0469 Q245.5469,740.0469 246.2031,739.7969 Q246.5938,739.6406 247.0156,739.2031 Q247.2813,738.9375 247.4219,738.8594 Q247.5781,738.7813 247.7813,738.7813 Q248.1094,738.7813 248.3594,739.0469 Q248.625,739.2969 248.625,739.6406 Q248.625,739.9844 248.2813,740.3906 Q247.7813,740.9688 246.9844,741.2969 Q245.9063,741.75 244.6094,741.75 Q243.0938,741.75 241.8906,741.125 Q240.9063,740.625 240.2188,739.5625 Q239.5313,738.4844 239.5313,737.2031 L239.5313,736.0469 Q239.5313,734.7188 240.1406,733.5781 Q240.7656,732.4219 241.8594,731.8125 Q242.9531,731.1875 244.1875,731.1875 Q244.9219,731.1875 245.5625,731.3594 Q246.2188,731.5156 246.7656,731.875 Z " fill="#000000"/><text fill="#000000" font-family="sans-serif" font-size="14" lengthAdjust="spacing" textLength="148" x="258" y="741.7285">InverseListModelOption</text><line style="stroke:#181818;stroke-width:0.5;" x1="230" x2="408" y1="752" y2="752"/><line style="stroke:#181818;stroke-width:0.5;" x1="230" x2="408" y1="760" y2="760"/><text fill="#000000" font-family="sans-serif" font-size="14" lengthAdjust="spacing" textLength="123" x="235" y="778.5332">constructor (model)</text><text fill="#000000" font-family="sans-serif" font-size="14" lengthAdjust="spacing" textLength="57" x="235" y="796.1426">interact()</text></g><!--class X--><g id="elem_X"><rect codeLine="86" fill="#228B22" height="83.2188" id="X" rx="2.5" ry="2.5" style="stroke:#181818;stroke-width:0.5;" width="131" x="444.5" y="720"/><ellipse cx="499.75" cy="736" fill="#ADD1B2" rx="11" ry="11" style="stroke:#181818;stroke-width:1.0;"/><path d="M502.5156,731.875 Q502.6719,731.6563 502.8594,731.5469 Q503.0469,731.4375 503.2656,731.4375 Q503.6406,731.4375 503.875,731.7031 Q504.1094,731.9531 504.1094,732.5625 L504.1094,734.0156 Q504.1094,734.625 503.875,734.8906 Q503.6406,735.1563 503.2656,735.1563 Q502.9219,735.1563 502.7188,734.9531 Q502.5156,734.7656 502.4063,734.25 Q502.3594,733.8906 502.1719,733.7031 Q501.8438,733.3281 501.2344,733.1094 Q500.625,732.8906 500,732.8906 Q499.2344,732.8906 498.5938,733.2188 Q497.9688,733.5469 497.4688,734.2969 Q496.9844,735.0469 496.9844,736.0781 L496.9844,737.1719 Q496.9844,738.4063 497.875,739.2344 Q498.7656,740.0469 500.3594,740.0469 Q501.2969,740.0469 501.9531,739.7969 Q502.3438,739.6406 502.7656,739.2031 Q503.0313,738.9375 503.1719,738.8594 Q503.3281,738.7813 503.5313,738.7813 Q503.8594,738.7813 504.1094,739.0469 Q504.375,739.2969 504.375,739.6406 Q504.375,739.9844 504.0313,740.3906 Q503.5313,740.9688 502.7344,741.2969 Q501.6563,741.75 500.3594,741.75 Q498.8438,741.75 497.6406,741.125 Q496.6563,740.625 495.9688,739.5625 Q495.2813,738.4844 495.2813,737.2031 L495.2813,736.0469 Q495.2813,734.7188 495.8906,733.5781 Q496.5156,732.4219 497.6094,731.8125 Q498.7031,731.1875 499.9375,731.1875 Q500.6719,731.1875 501.3125,731.3594 Q501.9688,731.5156 502.5156,731.875 Z " fill="#000000"/><text fill="#000000" font-family="sans-serif" font-size="14" lengthAdjust="spacing" textLength="12" x="520.25" y="741.7285">...</text><line style="stroke:#181818;stroke-width:0.5;" x1="445.5" x2="574.5" y1="752" y2="752"/><line style="stroke:#181818;stroke-width:0.5;" x1="445.5" x2="574.5" y1="760" y2="760"/><text fill="#000000" font-family="sans-serif" font-size="14" lengthAdjust="spacing" textLength="119" x="450.5" y="778.5332">constructor(model)</text><text fill="#000000" font-family="sans-serif" font-size="14" lengthAdjust="spacing" textLength="57" x="450.5" y="796.1426">interact()</text></g><!--class ModelMenu--><g id="elem_ModelMenu"><rect codeLine="92" fill="#00FF00" height="100.8281" id="ModelMenu" rx="2.5" ry="2.5" style="stroke:#181818;stroke-width:0.5;" width="131" x="636.5" y="549.5"/><ellipse cx="663.2" cy="565.5" fill="#ADD1B2" rx="11" ry="11" style="stroke:#181818;stroke-width:1.0;"/><path d="M665.9656,561.375 Q666.1219,561.1563 666.3094,561.0469 Q666.4969,560.9375 666.7156,560.9375 Q667.0906,560.9375 667.325,561.2031 Q667.5594,561.4531 667.5594,562.0625 L667.5594,563.5156 Q667.5594,564.125 667.325,564.3906 Q667.0906,564.6563 666.7156,564.6563 Q666.3719,564.6563 666.1688,564.4531 Q665.9656,564.2656 665.8563,563.75 Q665.8094,563.3906 665.6219,563.2031 Q665.2938,562.8281 664.6844,562.6094 Q664.075,562.3906 663.45,562.3906 Q662.6844,562.3906 662.0438,562.7188 Q661.4188,563.0469 660.9188,563.7969 Q660.4344,564.5469 660.4344,565.5781 L660.4344,566.6719 Q660.4344,567.9063 661.325,568.7344 Q662.2156,569.5469 663.8094,569.5469 Q664.7469,569.5469 665.4031,569.2969 Q665.7938,569.1406 666.2156,568.7031 Q666.4813,568.4375 666.6219,568.3594 Q666.7781,568.2813 666.9813,568.2813 Q667.3094,568.2813 667.5594,568.5469 Q667.825,568.7969 667.825,569.1406 Q667.825,569.4844 667.4813,569.8906 Q666.9813,570.4688 666.1844,570.7969 Q665.1063,571.25 663.8094,571.25 Q662.2938,571.25 661.0906,570.625 Q660.1063,570.125 659.4188,569.0625 Q658.7313,567.9844 658.7313,566.7031 L658.7313,565.5469 Q658.7313,564.2188 659.3406,563.0781 Q659.9656,561.9219 661.0594,561.3125 Q662.1531,560.6875 663.3875,560.6875 Q664.1219,560.6875 664.7625,560.8594 Q665.4188,561.0156 665.9656,561.375 Z " fill="#000000"/><text fill="#000000" font-family="sans-serif" font-size="14" lengthAdjust="spacing" textLength="73" x="679.8" y="571.2285">ModelMenu</text><line style="stroke:#181818;stroke-width:0.5;" x1="637.5" x2="766.5" y1="581.5" y2="581.5"/><polygon fill="none" points="647.5,590.8047,651.5,594.8047,647.5,598.8047,643.5,594.8047" style="stroke:#B38D22;stroke-width:1.0;"/><text fill="#000000" font-family="sans-serif" font-size="14" lengthAdjust="spacing" textLength="38" x="656.5" y="600.0332">model</text><line style="stroke:#181818;stroke-width:0.5;" x1="637.5" x2="766.5" y1="607.1094" y2="607.1094"/><text fill="#000000" font-family="sans-serif" font-size="14" lengthAdjust="spacing" textLength="119" x="642.5" y="625.6426">constructor(model)</text><text fill="#000000" font-family="sans-serif" font-size="14" lengthAdjust="spacing" textLength="83" x="642.5" y="643.252">addOptions()</text></g><!--link Menu to Option--><g id="link_Menu_Option"><path codeLine="98" d="M296.9578,277.0964 C287.6278,298.0964 285.6068,302.6271 277.2868,321.3471 " fill="none" id="Menu-Option" style="stroke:#181818;stroke-width:1.0;"/><polygon fill="#181818" points="301.83,266.13,295.7384,269.9891,296.9578,277.0964,303.0494,273.2373,301.83,266.13" style="stroke:#181818;stroke-width:1.0;"/><polygon fill="#181818" points="274.85,326.83,282.1605,320.2302,276.8807,322.2609,274.85,316.9811,274.85,326.83" style="stroke:#181818;stroke-width:1.0;"/><text fill="#000000" font-family="sans-serif" font-size="13" lengthAdjust="spacing" textLength="8" x="269.6773" y="316.0107">+</text></g><!--link Menu to Console--><g id="link_Menu_Console"><path codeLine="99" d="M257.6824,174.8913 C189.6524,204.5913 111.73,250.77 67,327 C19.58,407.82 33.6434,520.4329 42.9434,569.9929 " fill="none" id="Menu-Console" style="stroke:#181818;stroke-width:1.0;"/><polygon fill="#181818" points="268.68,170.09,261.5808,168.8248,257.6824,174.8913,264.7816,176.1565,268.68,170.09" style="stroke:#181818;stroke-width:1.0;"/><polygon fill="#181818" points="44.05,575.89,46.3215,566.3067,43.1278,570.9758,38.4587,567.7821,44.05,575.89" style="stroke:#181818;stroke-width:1.0;"/><text fill="#000000" font-family="sans-serif" font-size="13" lengthAdjust="spacing" textLength="89" x="68" y="400.4951">{static} console</text></g><!--reverse link Menu to ModelMenu--><g id="link_Menu_ModelMenu"><path codeLine="100" d="M460.9791,250.3521 C485.6891,278.8621 500.16,296.81 523,327 C579.53,401.72 637.9,493.71 672.02,549.28 " fill="none" id="Menu-backto-ModelMenu" style="stroke:#181818;stroke-width:1.0;"/><polygon fill="none" points="449.19,236.75,456.4451,254.2818,465.5131,246.4224,449.19,236.75" style="stroke:#181818;stroke-width:1.0;"/></g><!--reverse link Menu to QuitMenu--><g id="link_Menu_QuitMenu"><path codeLine="101" d="M398.2766,283.5119 C403.9266,304.5119 404.9,308.11 409.93,326.83 " fill="none" id="Menu-backto-QuitMenu" style="stroke:#181818;stroke-width:1.0;"/><polygon fill="none" points="393.6,266.13,392.4826,285.0707,404.0705,281.953,393.6,266.13" style="stroke:#181818;stroke-width:1.0;"/></g><!--link QuitMenu to QuitOption--><g id="link_QuitMenu_QuitOption"><path codeLine="103" d="M411.315,474.7699 C405.985,499.9499 403.7045,510.7305 398.5545,535.0205 " fill="none" id="QuitMenu-QuitOption" style="stroke:#181818;stroke-width:1.0;"/><polygon fill="#181818" points="413.8,463.03,408.6442,468.0716,411.315,474.7699,416.4708,469.7283,413.8,463.03" style="stroke:#181818;stroke-width:1.0;"/><polygon fill="#181818" points="397.31,540.89,403.0897,532.9154,398.3471,535.9987,395.2637,531.2561,397.31,540.89" style="stroke:#181818;stroke-width:1.0;"/></g><!--reverse link QuitMenu to ModelQuitMenu--><g id="link_QuitMenu_ModelQuitMenu"><path codeLine="104" d="M472.1133,478.9216 C487.1033,507.1016 495.79,523.41 509.61,549.4 " fill="none" id="QuitMenu-backto-ModelQuitMenu" style="stroke:#181818;stroke-width:1.0;"/><polygon fill="none" points="463.66,463.03,466.8161,481.7393,477.4105,476.1038,463.66,463.03" style="stroke:#181818;stroke-width:1.0;"/></g><!--link Option to Console--><g id="link_Option_Console"><path codeLine="106" d="M165.641,457.2876 C149.591,470.7676 142.26,477.98 128,493 C103.03,519.3 82.1192,548.5184 67.2192,570.8584 " fill="none" id="Option-Console" style="stroke:#181818;stroke-width:1.0;"/><polygon fill="#181818" points="174.83,449.57,167.6629,450.3658,165.641,457.2876,172.808,456.4918,174.83,449.57" style="stroke:#181818;stroke-width:1.0;"/><polygon fill="#181818" points="63.89,575.85,72.2116,570.5821,66.6644,571.6903,65.5561,566.1431,63.89,575.85" style="stroke:#181818;stroke-width:1.0;"/><text fill="#000000" font-family="sans-serif" font-size="13" lengthAdjust="spacing" textLength="89" x="129" y="507.4951">{static} console</text></g><!--reverse link Option to QuitOption--><g id="link_Option_QuitOption"><path codeLine="107" d="M301.447,477.8493 C318.807,503.0293 328.17,516.6 344.93,540.89 " fill="none" id="Option-backto-QuitOption" style="stroke:#181818;stroke-width:1.0;"/><polygon fill="none" points="291.23,463.03,296.5072,481.255,306.3868,474.4437,291.23,463.03" style="stroke:#181818;stroke-width:1.0;"/></g><!--link ModelMenu to Model--><g id="link_ModelMenu_Model"><path codeLine="109" d="M686.91,650.66 C669.87,706.75 643.685,792.9494 623.875,858.1194 " fill="none" id="ModelMenu-to-Model" style="stroke:#181818;stroke-width:1.0;"/><polygon fill="#181818" points="622.13,863.86,628.5746,856.4124,623.5842,859.0761,620.9204,854.0857,622.13,863.86" style="stroke:#181818;stroke-width:1.0;"/></g><!--link ModelMenu to X--><g id="link_ModelMenu_X"><path codeLine="110" d="M633.0692,658.2576 C606.3192,680.4776 589.005,694.8657 563.645,715.9357 " fill="none" id="ModelMenu-X" style="stroke:#181818;stroke-width:1.0;"/><polygon fill="#181818" points="642.3,650.59,635.1287,651.3469,633.0692,658.2576,640.2405,657.5007,642.3,650.59" style="stroke:#181818;stroke-width:1.0;"/><polygon fill="#181818" points="559.03,719.77,568.5087,717.0952,562.8758,716.5747,563.3963,710.9419,559.03,719.77" style="stroke:#181818;stroke-width:1.0;"/></g><!--link ModelQuitMenu to X--><g id="link_ModelQuitMenu_X"><path codeLine="112" d="M525.9853,662.433 C522.3553,684.653 521.0341,692.778 517.6041,713.848 " fill="none" id="ModelQuitMenu-X" style="stroke:#181818;stroke-width:1.0;"/><polygon fill="#181818" points="527.92,650.59,523.005,655.8666,525.9853,662.433,530.9003,657.1564,527.92,650.59" style="stroke:#181818;stroke-width:1.0;"/><polygon fill="#181818" points="516.64,719.77,522.0341,711.5296,517.4434,714.835,514.1381,710.2442,516.64,719.77" style="stroke:#181818;stroke-width:1.0;"/></g><!--link ModelQuitMenu to Model--><g id="link_ModelQuitMenu_Model"><path codeLine="113" d="M565.45,650.51 C576.24,671.25 587.22,696.06 593,720 C604.32,766.89 606.1178,815.0426 604.8478,857.8826 " fill="none" id="ModelQuitMenu-to-Model" style="stroke:#181818;stroke-width:1.0;"/><polygon fill="#181818" points="604.67,863.88,608.9349,855.0025,604.8182,858.8822,600.9384,854.7654,604.67,863.88" style="stroke:#181818;stroke-width:1.0;"/></g><!--reverse link Option to ModelOption--><g id="link_Option_ModelOption"><path codeLine="114" d="M231.6285,480.8107 C227.1885,508.9907 224.92,523.41 220.82,549.4 " fill="none" id="Option-backto-ModelOption" style="stroke:#181818;stroke-width:1.0;"/><polygon fill="none" points="234.43,463.03,225.7016,479.8768,237.5554,481.7445,234.43,463.03" style="stroke:#181818;stroke-width:1.0;"/></g><!--link ModelOption to Model--><g id="link_ModelOption_Model"><path codeLine="116" d="M126.09,650.62 C88.58,674.03 50.99,700.94 41,720 C23.87,752.67 18.24,773.97 41,803 C103.94,883.26 416.4301,922.1201 542.0101,934.7401 " fill="none" id="ModelOption-to-Model" style="stroke:#181818;stroke-width:1.0;"/><polygon fill="#181818" points="547.98,935.34,539.4251,930.4601,543.0051,934.84,538.6251,938.42,547.98,935.34" style="stroke:#181818;stroke-width:1.0;"/></g><!--reverse link ModelOption to ListModelOption--><g id="link_ModelOption_ListModelOption"><path codeLine="117" d="M177.3307,666.3921 C165.2107,688.6121 159.71,698.7 148.22,719.77 " fill="none" id="ModelOption-backto-ListModelOption" style="stroke:#181818;stroke-width:1.0;"/><polygon fill="none" points="185.95,650.59,172.0633,663.519,182.598,669.2652,185.95,650.59" style="stroke:#181818;stroke-width:1.0;"/></g><!--reverse link ModelOption to InverseListModelOption--><g id="link_ModelOption_InverseListModelOption"><path codeLine="118" d="M255.9244,665.5804 C270.6944,687.8004 277.93,698.7 291.93,719.77 " fill="none" id="ModelOption-backto-InverseListModelOption" style="stroke:#181818;stroke-width:1.0;"/><polygon fill="none" points="245.96,650.59,250.9276,668.9018,260.9212,662.2589,245.96,650.59" style="stroke:#181818;stroke-width:1.0;"/></g><!--reverse link ModelOption to X--><g id="link_ModelOption_X"><path codeLine="119" d="M315.8181,657.8566 C321.8981,661.1766 312.14,655.83 318,659 C359.79,681.59 406.96,706.53 444.08,726.04 " fill="none" id="ModelOption-backto-X" style="stroke:#181818;stroke-width:1.0;"/><polygon fill="none" points="300.02,649.23,312.9426,663.1227,318.6937,652.5906,300.02,649.23" style="stroke:#181818;stroke-width:1.0;"/></g><!--link X to Model--><!--SRC=[hLHDRnen4BtxLrZi1Ph23qWH5rH5bH95aN90gghANK-3LR0RZqdIKlvxrz_6ku4SiYVxUUQzD-DPjnk6I9TAeje08Um76irQGrk7t_usGadQj5fiiLli2Us-nWZJ1TjbsoKQlMkDqcE7JXoyZpm7AgG1knfFw7mUuSN2XU5QFT_RhB6G75vyxWCOZqt8WH3lusudp2jUu0NQdG7Ui-FP2dc_nyyXmVFtIhu1kJjHSAES3JnLVTQicy4uzsNWK3jYtlUGcDg30PZcXdd05hzSAuKGU0FUwOozKR_Ni5LFaAGTjcOOScBaK3jivmTRyfYkvDEfNlHgwApbr7X9wLAEZfoVS2kAmoPveSsrs49qihLdFGyEJPAvz9gKDfpfNyi_B5NMKGZvWAyCb6sjZoXRMmrmkKNnDynoFMbMFaxrJwK1pPK6Y3w6o_BI7sbHtXj-jgBeQu7cZ7AXHyi-5dDT47wHJw0Hte_NqwueGpgQpMOZUeRhB9MpzHw3upW-JBbwbjC57LsCmWDP7OJNb5xIFHfcH7jm0lQ1TO7pVpuo6wlmEEY4f95FvFafp8V7X3axNCLRZ8NG8mj1XkJ-HIA757XIM8NelkzLTN1CLSiNanGOGyI0WpgtciJXeE6f7OxjYY8hElsw5fo3_1RS4VVz1m00]--></g></svg>