<?xml version="1.0" encoding="us-ascii" standalone="no"?><svg xmlns="http://www.w3.org/2000/svg" xmlns:xlink="http://www.w3.org/1999/xlink" contentStyleType="text/css" height="1413px" preserveAspectRatio="none" style="width:1212px;height:1413px;background:#FFFFFF;" version="1.1" viewBox="0 0 1212 1413" width="1212px" zoomAndPan="magnify"><defs/><g><!--class Console--><g id="elem_Console"><rect codeLine="2" fill="#F1F1F1" height="48" id="Console" rx="2.5" ry="2.5" style="stroke:#181818;stroke-width:0.5;" width="84" x="147.18" y="559"/><ellipse cx="162.18" cy="575" fill="#ADD1B2" rx="11" ry="11" style="stroke:#181818;stroke-width:1.0;"/><path d="M164.9456,570.875 Q165.1019,570.6563 165.2894,570.5469 Q165.4769,570.4375 165.6956,570.4375 Q166.0706,570.4375 166.305,570.7031 Q166.5394,570.9531 166.5394,571.5625 L166.5394,573.0156 Q166.5394,573.625 166.305,573.8906 Q166.0706,574.1563 165.6956,574.1563 Q165.3519,574.1563 165.1488,573.9531 Q164.9456,573.7656 164.8363,573.25 Q164.7894,572.8906 164.6019,572.7031 Q164.2738,572.3281 163.6644,572.1094 Q163.055,571.8906 162.43,571.8906 Q161.6644,571.8906 161.0238,572.2188 Q160.3988,572.5469 159.8988,573.2969 Q159.4144,574.0469 159.4144,575.0781 L159.4144,576.1719 Q159.4144,577.4063 160.305,578.2344 Q161.1956,579.0469 162.7894,579.0469 Q163.7269,579.0469 164.3831,578.7969 Q164.7738,578.6406 165.1956,578.2031 Q165.4613,577.9375 165.6019,577.8594 Q165.7581,577.7813 165.9613,577.7813 Q166.2894,577.7813 166.5394,578.0469 Q166.805,578.2969 166.805,578.6406 Q166.805,578.9844 166.4613,579.3906 Q165.9613,579.9688 165.1644,580.2969 Q164.0863,580.75 162.7894,580.75 Q161.2738,580.75 160.0706,580.125 Q159.0863,579.625 158.3988,578.5625 Q157.7113,577.4844 157.7113,576.2031 L157.7113,575.0469 Q157.7113,573.7188 158.3206,572.5781 Q158.9456,571.4219 160.0394,570.8125 Q161.1331,570.1875 162.3675,570.1875 Q163.1019,570.1875 163.7425,570.3594 Q164.3988,570.5156 164.9456,570.875 Z " fill="#000000"/><text fill="#000000" font-family="sans-serif" font-size="14" lengthAdjust="spacing" textLength="52" x="176.18" y="580.7285">Console</text><line style="stroke:#181818;stroke-width:0.5;" x1="148.18" x2="230.18" y1="591" y2="591"/><line style="stroke:#181818;stroke-width:0.5;" x1="148.18" x2="230.18" y1="599" y2="599"/></g><!--class Option--><g id="elem_Option"><rect codeLine="4" fill="#DC143C" height="136.0469" id="Option" rx="2.5" ry="2.5" style="stroke:#181818;stroke-width:0.5;" width="115" x="258.68" y="310"/><ellipse cx="292.13" cy="326" fill="#A9DCDF" rx="11" ry="11" style="stroke:#181818;stroke-width:1.0;"/><path d="M294.3175,327.7656 L290.1769,327.7656 L289.755,328.7969 L290.1769,328.7969 Q290.7863,328.7969 291.0519,329.0313 Q291.3175,329.2656 291.3175,329.6563 Q291.3175,330.0313 291.0519,330.2656 Q290.7863,330.5 290.1769,330.5 L287.88,330.5 Q287.2706,330.5 287.0206,330.2656 Q286.755,330.0313 286.755,329.6406 Q286.755,329.2656 287.0363,329.0313 Q287.3019,328.7813 287.9269,328.7969 L290.5988,322.1406 L289.4894,322.1406 Q288.88,322.1406 288.6144,321.9063 Q288.3488,321.6719 288.3488,321.2813 Q288.3488,320.9063 288.6144,320.6719 Q288.88,320.4375 289.4894,320.4375 L293.1613,320.4375 L296.5519,328.7969 Q297.1456,328.7969 297.3331,328.9375 Q297.7238,329.2031 297.7238,329.6563 Q297.7238,330.0313 297.4581,330.2656 Q297.2081,330.5 296.5988,330.5 L294.3019,330.5 Q293.6925,330.5 293.4269,330.2656 Q293.1613,330.0313 293.1613,329.6406 Q293.1613,329.2656 293.4269,329.0313 Q293.6925,328.7969 294.3019,328.7969 L294.7238,328.7969 L294.3175,327.7656 Z M293.5988,326.0625 L292.2394,322.6875 L290.8644,326.0625 L293.5988,326.0625 Z " fill="#000000"/><text fill="#000000" font-family="sans-serif" font-size="14" font-style="italic" lengthAdjust="spacing" textLength="42" x="310.23" y="331.7285">Option</text><line style="stroke:#181818;stroke-width:0.5;" x1="259.68" x2="372.68" y1="342" y2="342"/><polygon fill="none" points="269.68,351.3047,273.68,355.3047,269.68,359.3047,265.68,355.3047" style="stroke:#B38D22;stroke-width:1.0;"/><text fill="#000000" font-family="sans-serif" font-size="14" lengthAdjust="spacing" textLength="22" x="278.68" y="360.5332">title</text><line style="stroke:#181818;stroke-width:0.5;" x1="259.68" x2="372.68" y1="367.6094" y2="367.6094"/><text fill="#000000" font-family="sans-serif" font-size="14" lengthAdjust="spacing" textLength="103" x="264.68" y="386.1426">constructor(title)</text><text fill="#000000" font-family="sans-serif" font-size="14" font-style="italic" lengthAdjust="spacing" textLength="57" x="264.68" y="403.752">interact()</text><text fill="#000000" font-family="sans-serif" font-size="14" lengthAdjust="spacing" textLength="102" x="264.68" y="421.3613">showTitle(index)</text><text fill="#000000" font-family="sans-serif" font-size="14" lengthAdjust="spacing" textLength="57" x="264.68" y="438.9707">getTitle()</text></g><!--class QuitOption--><g id="elem_QuitOption"><rect codeLine="11" fill="#DC143C" height="118.4375" id="QuitOption" rx="2.5" ry="2.5" style="stroke:#181818;stroke-width:0.5;" width="100" x="266.18" y="524"/><ellipse cx="281.18" cy="540" fill="#ADD1B2" rx="11" ry="11" style="stroke:#181818;stroke-width:1.0;"/><path d="M283.9456,535.875 Q284.1019,535.6563 284.2894,535.5469 Q284.4769,535.4375 284.6956,535.4375 Q285.0706,535.4375 285.305,535.7031 Q285.5394,535.9531 285.5394,536.5625 L285.5394,538.0156 Q285.5394,538.625 285.305,538.8906 Q285.0706,539.1563 284.6956,539.1563 Q284.3519,539.1563 284.1488,538.9531 Q283.9456,538.7656 283.8363,538.25 Q283.7894,537.8906 283.6019,537.7031 Q283.2738,537.3281 282.6644,537.1094 Q282.055,536.8906 281.43,536.8906 Q280.6644,536.8906 280.0238,537.2188 Q279.3988,537.5469 278.8988,538.2969 Q278.4144,539.0469 278.4144,540.0781 L278.4144,541.1719 Q278.4144,542.4063 279.305,543.2344 Q280.1956,544.0469 281.7894,544.0469 Q282.7269,544.0469 283.3831,543.7969 Q283.7738,543.6406 284.1956,543.2031 Q284.4613,542.9375 284.6019,542.8594 Q284.7581,542.7813 284.9613,542.7813 Q285.2894,542.7813 285.5394,543.0469 Q285.805,543.2969 285.805,543.6406 Q285.805,543.9844 285.4613,544.3906 Q284.9613,544.9688 284.1644,545.2969 Q283.0863,545.75 281.7894,545.75 Q280.2738,545.75 279.0706,545.125 Q278.0863,544.625 277.3988,543.5625 Q276.7113,542.4844 276.7113,541.2031 L276.7113,540.0469 Q276.7113,538.7188 277.3206,537.5781 Q277.9456,536.4219 279.0394,535.8125 Q280.1331,535.1875 281.3675,535.1875 Q282.1019,535.1875 282.7425,535.3594 Q283.3988,535.5156 283.9456,535.875 Z " fill="#000000"/><text fill="#000000" font-family="sans-serif" font-size="14" lengthAdjust="spacing" textLength="68" x="295.18" y="545.7285">QuitOption</text><line style="stroke:#181818;stroke-width:0.5;" x1="267.18" x2="365.18" y1="556" y2="556"/><polygon fill="none" points="277.18,565.3047,281.18,569.3047,277.18,573.3047,273.18,569.3047" style="stroke:#B38D22;stroke-width:1.0;"/><text fill="#000000" font-family="sans-serif" font-size="14" lengthAdjust="spacing" textLength="57" x="286.18" y="574.5332">executed</text><line style="stroke:#181818;stroke-width:0.5;" x1="267.18" x2="365.18" y1="581.6094" y2="581.6094"/><text fill="#000000" font-family="sans-serif" font-size="14" lengthAdjust="spacing" textLength="81" x="272.18" y="600.1426">constructor()</text><text fill="#000000" font-family="sans-serif" font-size="14" lengthAdjust="spacing" textLength="57" x="272.18" y="617.752">interact()</text><text fill="#000000" font-family="sans-serif" font-size="14" lengthAdjust="spacing" textLength="78" x="272.18" y="635.3613">isExecuted()</text></g><!--class Menu--><g id="elem_Menu"><rect codeLine="22" fill="#DC143C" height="241.7031" id="Menu" rx="2.5" ry="2.5" style="stroke:#181818;stroke-width:0.5;" width="150" x="411.18" y="7"/><ellipse cx="463.93" cy="23" fill="#A9DCDF" rx="11" ry="11" style="stroke:#181818;stroke-width:1.0;"/><path d="M466.1175,24.7656 L461.9769,24.7656 L461.555,25.7969 L461.9769,25.7969 Q462.5863,25.7969 462.8519,26.0313 Q463.1175,26.2656 463.1175,26.6563 Q463.1175,27.0313 462.8519,27.2656 Q462.5863,27.5 461.9769,27.5 L459.68,27.5 Q459.0706,27.5 458.8206,27.2656 Q458.555,27.0313 458.555,26.6406 Q458.555,26.2656 458.8363,26.0313 Q459.1019,25.7813 459.7269,25.7969 L462.3988,19.1406 L461.2894,19.1406 Q460.68,19.1406 460.4144,18.9063 Q460.1488,18.6719 460.1488,18.2813 Q460.1488,17.9063 460.4144,17.6719 Q460.68,17.4375 461.2894,17.4375 L464.9613,17.4375 L468.3519,25.7969 Q468.9456,25.7969 469.1331,25.9375 Q469.5238,26.2031 469.5238,26.6563 Q469.5238,27.0313 469.2581,27.2656 Q469.0081,27.5 468.3988,27.5 L466.1019,27.5 Q465.4925,27.5 465.2269,27.2656 Q464.9613,27.0313 464.9613,26.6406 Q464.9613,26.2656 465.2269,26.0313 Q465.4925,25.7969 466.1019,25.7969 L466.5238,25.7969 L466.1175,24.7656 Z M465.3988,23.0625 L464.0394,19.6875 L462.6644,23.0625 L465.3988,23.0625 Z " fill="#000000"/><text fill="#000000" font-family="sans-serif" font-size="14" font-style="italic" lengthAdjust="spacing" textLength="36" x="484.43" y="28.7285">Menu</text><line style="stroke:#181818;stroke-width:0.5;" x1="412.18" x2="560.18" y1="39" y2="39"/><polygon fill="none" points="422.18,48.3047,426.18,52.3047,422.18,56.3047,418.18,52.3047" style="stroke:#B38D22;stroke-width:1.0;"/><text fill="#000000" font-family="sans-serif" font-size="14" lengthAdjust="spacing" textLength="22" x="431.18" y="57.5332">title</text><polygon fill="none" points="422.18,65.9141,426.18,69.9141,422.18,73.9141,418.18,69.9141" style="stroke:#B38D22;stroke-width:1.0;"/><text fill="#000000" font-family="sans-serif" font-size="14" lengthAdjust="spacing" textLength="46" x="431.18" y="75.1426">options</text><line style="stroke:#181818;stroke-width:0.5;" x1="412.18" x2="560.18" y1="82.2188" y2="82.2188"/><text fill="#000000" font-family="sans-serif" font-size="14" lengthAdjust="spacing" textLength="103" x="417.18" y="100.752">constructor(title)</text><text fill="#000000" font-family="sans-serif" font-size="14" lengthAdjust="spacing" textLength="57" x="417.18" y="118.3613">interact()</text><text fill="#000000" font-family="sans-serif" font-size="14" font-style="italic" lengthAdjust="spacing" textLength="83" x="417.18" y="135.9707">addOptions()</text><text fill="#000000" font-family="sans-serif" font-size="14" lengthAdjust="spacing" textLength="65" x="417.18" y="153.5801">interact_()</text><text fill="#000000" font-family="sans-serif" font-size="14" lengthAdjust="spacing" textLength="76" x="417.18" y="171.1895">showTitles()</text><text fill="#000000" font-family="sans-serif" font-size="14" lengthAdjust="spacing" textLength="138" x="417.18" y="188.7988">execChoosedOption()</text><text fill="#000000" font-family="sans-serif" font-size="14" lengthAdjust="spacing" textLength="73" x="417.18" y="206.4082">add(option)</text><text fill="#000000" font-family="sans-serif" font-size="14" lengthAdjust="spacing" textLength="106" x="417.18" y="224.0176">removeOptions()</text><text fill="#000000" font-family="sans-serif" font-size="14" lengthAdjust="spacing" textLength="114" x="417.18" y="241.627">hasOption(option)</text></g><!--class QuitMenu--><g id="elem_QuitMenu"><rect codeLine="35" fill="#DC143C" height="136.0469" id="QuitMenu" rx="2.5" ry="2.5" style="stroke:#181818;stroke-width:0.5;" width="155" x="408.68" y="310"/><ellipse cx="451.13" cy="326" fill="#A9DCDF" rx="11" ry="11" style="stroke:#181818;stroke-width:1.0;"/><path d="M453.3175,327.7656 L449.1769,327.7656 L448.755,328.7969 L449.1769,328.7969 Q449.7863,328.7969 450.0519,329.0313 Q450.3175,329.2656 450.3175,329.6563 Q450.3175,330.0313 450.0519,330.2656 Q449.7863,330.5 449.1769,330.5 L446.88,330.5 Q446.2706,330.5 446.0206,330.2656 Q445.755,330.0313 445.755,329.6406 Q445.755,329.2656 446.0363,329.0313 Q446.3019,328.7813 446.9269,328.7969 L449.5988,322.1406 L448.4894,322.1406 Q447.88,322.1406 447.6144,321.9063 Q447.3488,321.6719 447.3488,321.2813 Q447.3488,320.9063 447.6144,320.6719 Q447.88,320.4375 448.4894,320.4375 L452.1613,320.4375 L455.5519,328.7969 Q456.1456,328.7969 456.3331,328.9375 Q456.7238,329.2031 456.7238,329.6563 Q456.7238,330.0313 456.4581,330.2656 Q456.2081,330.5 455.5988,330.5 L453.3019,330.5 Q452.6925,330.5 452.4269,330.2656 Q452.1613,330.0313 452.1613,329.6406 Q452.1613,329.2656 452.4269,329.0313 Q452.6925,328.7969 453.3019,328.7969 L453.7238,328.7969 L453.3175,327.7656 Z M452.5988,326.0625 L451.2394,322.6875 L449.8644,326.0625 L452.5988,326.0625 Z " fill="#000000"/><text fill="#000000" font-family="sans-serif" font-size="14" font-style="italic" lengthAdjust="spacing" textLength="62" x="471.23" y="331.7285">QuitMenu</text><line style="stroke:#181818;stroke-width:0.5;" x1="409.68" x2="562.68" y1="342" y2="342"/><polygon fill="none" points="419.68,351.3047,423.68,355.3047,419.68,359.3047,415.68,355.3047" style="stroke:#B38D22;stroke-width:1.0;"/><text fill="#000000" font-family="sans-serif" font-size="14" lengthAdjust="spacing" textLength="69" x="428.68" y="360.5332">quitOption;</text><line style="stroke:#181818;stroke-width:0.5;" x1="409.68" x2="562.68" y1="367.6094" y2="367.6094"/><text fill="#000000" font-family="sans-serif" font-size="14" lengthAdjust="spacing" textLength="103" x="414.68" y="386.1426">constructor(title)</text><text fill="#000000" font-family="sans-serif" font-size="14" lengthAdjust="spacing" textLength="76" x="414.68" y="403.752">showTitles()</text><text fill="#000000" font-family="sans-serif" font-size="14" lengthAdjust="spacing" textLength="99" x="414.68" y="421.3613">addquitOption()</text><text fill="#000000" font-family="sans-serif" font-size="14" lengthAdjust="spacing" textLength="143" x="414.68" y="438.9707">isExecutedquitOption()</text></g><!--class IterativeMenu--><g id="elem_IterativeMenu"><rect codeLine="42" fill="#DC143C" height="83.2188" id="IterativeMenu" rx="2.5" ry="2.5" style="stroke:#181818;stroke-width:0.5;" width="118" x="401.18" y="541.5"/><ellipse cx="416.18" cy="557.5" fill="#A9DCDF" rx="11" ry="11" style="stroke:#181818;stroke-width:1.0;"/><path d="M418.3675,559.2656 L414.2269,559.2656 L413.805,560.2969 L414.2269,560.2969 Q414.8363,560.2969 415.1019,560.5313 Q415.3675,560.7656 415.3675,561.1563 Q415.3675,561.5313 415.1019,561.7656 Q414.8363,562 414.2269,562 L411.93,562 Q411.3206,562 411.0706,561.7656 Q410.805,561.5313 410.805,561.1406 Q410.805,560.7656 411.0863,560.5313 Q411.3519,560.2813 411.9769,560.2969 L414.6488,553.6406 L413.5394,553.6406 Q412.93,553.6406 412.6644,553.4063 Q412.3988,553.1719 412.3988,552.7813 Q412.3988,552.4063 412.6644,552.1719 Q412.93,551.9375 413.5394,551.9375 L417.2113,551.9375 L420.6019,560.2969 Q421.1956,560.2969 421.3831,560.4375 Q421.7738,560.7031 421.7738,561.1563 Q421.7738,561.5313 421.5081,561.7656 Q421.2581,562 420.6488,562 L418.3519,562 Q417.7425,562 417.4769,561.7656 Q417.2113,561.5313 417.2113,561.1406 Q417.2113,560.7656 417.4769,560.5313 Q417.7425,560.2969 418.3519,560.2969 L418.7738,560.2969 L418.3675,559.2656 Z M417.6488,557.5625 L416.2894,554.1875 L414.9144,557.5625 L417.6488,557.5625 Z " fill="#000000"/><text fill="#000000" font-family="sans-serif" font-size="14" font-style="italic" lengthAdjust="spacing" textLength="86" x="430.18" y="563.2285">IterativeMenu</text><line style="stroke:#181818;stroke-width:0.5;" x1="402.18" x2="518.18" y1="573.5" y2="573.5"/><line style="stroke:#181818;stroke-width:0.5;" x1="402.18" x2="518.18" y1="581.5" y2="581.5"/><text fill="#000000" font-family="sans-serif" font-size="14" lengthAdjust="spacing" textLength="103" x="407.18" y="600.0332">constructor(title)</text><text fill="#000000" font-family="sans-serif" font-size="14" lengthAdjust="spacing" textLength="57" x="407.18" y="617.6426">interact()</text></g><!--class DynamicMenu--><g id="elem_DynamicMenu"><rect codeLine="46" fill="#DC143C" height="83.2188" id="DynamicMenu" rx="2.5" ry="2.5" style="stroke:#181818;stroke-width:0.5;" width="122" x="327.18" y="834"/><ellipse cx="342.18" cy="850" fill="#A9DCDF" rx="11" ry="11" style="stroke:#181818;stroke-width:1.0;"/><path d="M344.3675,851.7656 L340.2269,851.7656 L339.805,852.7969 L340.2269,852.7969 Q340.8363,852.7969 341.1019,853.0313 Q341.3675,853.2656 341.3675,853.6563 Q341.3675,854.0313 341.1019,854.2656 Q340.8363,854.5 340.2269,854.5 L337.93,854.5 Q337.3206,854.5 337.0706,854.2656 Q336.805,854.0313 336.805,853.6406 Q336.805,853.2656 337.0863,853.0313 Q337.3519,852.7813 337.9769,852.7969 L340.6488,846.1406 L339.5394,846.1406 Q338.93,846.1406 338.6644,845.9063 Q338.3988,845.6719 338.3988,845.2813 Q338.3988,844.9063 338.6644,844.6719 Q338.93,844.4375 339.5394,844.4375 L343.2113,844.4375 L346.6019,852.7969 Q347.1956,852.7969 347.3831,852.9375 Q347.7738,853.2031 347.7738,853.6563 Q347.7738,854.0313 347.5081,854.2656 Q347.2581,854.5 346.6488,854.5 L344.3519,854.5 Q343.7425,854.5 343.4769,854.2656 Q343.2113,854.0313 343.2113,853.6406 Q343.2113,853.2656 343.4769,853.0313 Q343.7425,852.7969 344.3519,852.7969 L344.7738,852.7969 L344.3675,851.7656 Z M343.6488,850.0625 L342.2894,846.6875 L340.9144,850.0625 L343.6488,850.0625 Z " fill="#000000"/><text fill="#000000" font-family="sans-serif" font-size="14" font-style="italic" lengthAdjust="spacing" textLength="90" x="356.18" y="855.7285">DynamicMenu</text><line style="stroke:#181818;stroke-width:0.5;" x1="328.18" x2="448.18" y1="866" y2="866"/><line style="stroke:#181818;stroke-width:0.5;" x1="328.18" x2="448.18" y1="874" y2="874"/><text fill="#000000" font-family="sans-serif" font-size="14" lengthAdjust="spacing" textLength="103" x="333.18" y="892.5332">constructor(title)</text><text fill="#000000" font-family="sans-serif" font-size="14" lengthAdjust="spacing" textLength="57" x="333.18" y="910.1426">interact()</text></g><!--class Model--><g id="elem_Model"><rect codeLine="58" fill="#008B8B" height="153.6563" id="Model" rx="2.5" ry="2.5" style="stroke:#181818;stroke-width:0.5;" width="102" x="606.18" y="1253"/><ellipse cx="635.58" cy="1269" fill="#ADD1B2" rx="11" ry="11" style="stroke:#181818;stroke-width:1.0;"/><path d="M638.3456,1264.875 Q638.5019,1264.6563 638.6894,1264.5469 Q638.8769,1264.4375 639.0956,1264.4375 Q639.4706,1264.4375 639.705,1264.7031 Q639.9394,1264.9531 639.9394,1265.5625 L639.9394,1267.0156 Q639.9394,1267.625 639.705,1267.8906 Q639.4706,1268.1563 639.0956,1268.1563 Q638.7519,1268.1563 638.5487,1267.9531 Q638.3456,1267.7656 638.2362,1267.25 Q638.1894,1266.8906 638.0019,1266.7031 Q637.6737,1266.3281 637.0644,1266.1094 Q636.455,1265.8906 635.83,1265.8906 Q635.0644,1265.8906 634.4237,1266.2188 Q633.7987,1266.5469 633.2987,1267.2969 Q632.8144,1268.0469 632.8144,1269.0781 L632.8144,1270.1719 Q632.8144,1271.4063 633.705,1272.2344 Q634.5956,1273.0469 636.1894,1273.0469 Q637.1269,1273.0469 637.7831,1272.7969 Q638.1737,1272.6406 638.5956,1272.2031 Q638.8612,1271.9375 639.0019,1271.8594 Q639.1581,1271.7813 639.3612,1271.7813 Q639.6894,1271.7813 639.9394,1272.0469 Q640.205,1272.2969 640.205,1272.6406 Q640.205,1272.9844 639.8612,1273.3906 Q639.3612,1273.9688 638.5644,1274.2969 Q637.4862,1274.75 636.1894,1274.75 Q634.6737,1274.75 633.4706,1274.125 Q632.4862,1273.625 631.7987,1272.5625 Q631.1112,1271.4844 631.1112,1270.2031 L631.1112,1269.0469 Q631.1112,1267.7188 631.7206,1266.5781 Q632.3456,1265.4219 633.4394,1264.8125 Q634.5331,1264.1875 635.7675,1264.1875 Q636.5019,1264.1875 637.1425,1264.3594 Q637.7987,1264.5156 638.3456,1264.875 Z " fill="#000000"/><text fill="#000000" font-family="sans-serif" font-size="14" lengthAdjust="spacing" textLength="38" x="652.78" y="1274.7285">Model</text><line style="stroke:#181818;stroke-width:0.5;" x1="607.18" x2="707.18" y1="1285" y2="1285"/><polygon fill="none" points="617.18,1294.3047,621.18,1298.3047,617.18,1302.3047,613.18,1298.3047" style="stroke:#B38D22;stroke-width:1.0;"/><text fill="#000000" font-family="sans-serif" font-size="14" lengthAdjust="spacing" textLength="42" x="626.18" y="1303.5332">strings</text><line style="stroke:#181818;stroke-width:0.5;" x1="607.18" x2="707.18" y1="1310.6094" y2="1310.6094"/><text fill="#000000" font-family="sans-serif" font-size="14" lengthAdjust="spacing" textLength="81" x="612.18" y="1329.1426">constructor()</text><text fill="#000000" font-family="sans-serif" font-size="14" lengthAdjust="spacing" textLength="69" x="612.18" y="1346.752">add(string)</text><text fill="#000000" font-family="sans-serif" font-size="14" lengthAdjust="spacing" textLength="90" x="612.18" y="1364.3613">remove(index)</text><text fill="#000000" font-family="sans-serif" font-size="14" lengthAdjust="spacing" textLength="63" x="612.18" y="1381.9707">get(index)</text><text fill="#000000" font-family="sans-serif" font-size="14" lengthAdjust="spacing" textLength="34" x="612.18" y="1399.5801">size()</text></g><!--class ModelOption--><g id="elem_ModelOption"><rect codeLine="67" fill="#228B22" height="100.8281" id="ModelOption" rx="2.5" ry="2.5" style="stroke:#181818;stroke-width:0.5;" width="174" x="464.18" y="703"/><ellipse cx="507.08" cy="719" fill="#ADD1B2" rx="11" ry="11" style="stroke:#181818;stroke-width:1.0;"/><path d="M509.8456,714.875 Q510.0019,714.6563 510.1894,714.5469 Q510.3769,714.4375 510.5956,714.4375 Q510.9706,714.4375 511.205,714.7031 Q511.4394,714.9531 511.4394,715.5625 L511.4394,717.0156 Q511.4394,717.625 511.205,717.8906 Q510.9706,718.1563 510.5956,718.1563 Q510.2519,718.1563 510.0488,717.9531 Q509.8456,717.7656 509.7363,717.25 Q509.6894,716.8906 509.5019,716.7031 Q509.1738,716.3281 508.5644,716.1094 Q507.955,715.8906 507.33,715.8906 Q506.5644,715.8906 505.9238,716.2188 Q505.2988,716.5469 504.7988,717.2969 Q504.3144,718.0469 504.3144,719.0781 L504.3144,720.1719 Q504.3144,721.4063 505.205,722.2344 Q506.0956,723.0469 507.6894,723.0469 Q508.6269,723.0469 509.2831,722.7969 Q509.6738,722.6406 510.0956,722.2031 Q510.3613,721.9375 510.5019,721.8594 Q510.6581,721.7813 510.8613,721.7813 Q511.1894,721.7813 511.4394,722.0469 Q511.705,722.2969 511.705,722.6406 Q511.705,722.9844 511.3613,723.3906 Q510.8613,723.9688 510.0644,724.2969 Q508.9863,724.75 507.6894,724.75 Q506.1738,724.75 504.9706,724.125 Q503.9863,723.625 503.2988,722.5625 Q502.6113,721.4844 502.6113,720.2031 L502.6113,719.0469 Q502.6113,717.7188 503.2206,716.5781 Q503.8456,715.4219 504.9394,714.8125 Q506.0331,714.1875 507.2675,714.1875 Q508.0019,714.1875 508.6425,714.3594 Q509.2988,714.5156 509.8456,714.875 Z " fill="#000000"/><text fill="#000000" font-family="sans-serif" font-size="14" lengthAdjust="spacing" textLength="80" x="527.28" y="724.7285">ModelOption</text><line style="stroke:#181818;stroke-width:0.5;" x1="465.18" x2="637.18" y1="735" y2="735"/><text fill="#000000" font-family="sans-serif" font-size="14" lengthAdjust="spacing" textLength="38" x="470.18" y="753.5332">model</text><line style="stroke:#181818;stroke-width:0.5;" x1="465.18" x2="637.18" y1="760.6094" y2="760.6094"/><text fill="#000000" font-family="sans-serif" font-size="14" lengthAdjust="spacing" textLength="162" x="470.18" y="779.1426">constructor(string, model)</text><text fill="#000000" font-family="sans-serif" font-size="14" font-style="italic" lengthAdjust="spacing" textLength="57" x="470.18" y="796.752">interact()</text></g><!--class ListModelOption--><g id="elem_ListModelOption"><rect codeLine="76" fill="#228B22" height="83.2188" id="ListModelOption" rx="2.5" ry="2.5" style="stroke:#181818;stroke-width:0.5;" width="135" x="672.68" y="947"/><ellipse cx="688.13" cy="963" fill="#ADD1B2" rx="11" ry="11" style="stroke:#181818;stroke-width:1.0;"/><path d="M690.8956,958.875 Q691.0519,958.6563 691.2394,958.5469 Q691.4269,958.4375 691.6456,958.4375 Q692.0206,958.4375 692.255,958.7031 Q692.4894,958.9531 692.4894,959.5625 L692.4894,961.0156 Q692.4894,961.625 692.255,961.8906 Q692.0206,962.1563 691.6456,962.1563 Q691.3019,962.1563 691.0988,961.9531 Q690.8956,961.7656 690.7863,961.25 Q690.7394,960.8906 690.5519,960.7031 Q690.2238,960.3281 689.6144,960.1094 Q689.005,959.8906 688.38,959.8906 Q687.6144,959.8906 686.9738,960.2188 Q686.3488,960.5469 685.8488,961.2969 Q685.3644,962.0469 685.3644,963.0781 L685.3644,964.1719 Q685.3644,965.4063 686.255,966.2344 Q687.1456,967.0469 688.7394,967.0469 Q689.6769,967.0469 690.3331,966.7969 Q690.7238,966.6406 691.1456,966.2031 Q691.4113,965.9375 691.5519,965.8594 Q691.7081,965.7813 691.9113,965.7813 Q692.2394,965.7813 692.4894,966.0469 Q692.755,966.2969 692.755,966.6406 Q692.755,966.9844 692.4113,967.3906 Q691.9113,967.9688 691.1144,968.2969 Q690.0363,968.75 688.7394,968.75 Q687.2238,968.75 686.0206,968.125 Q685.0363,967.625 684.3488,966.5625 Q683.6613,965.4844 683.6613,964.2031 L683.6613,963.0469 Q683.6613,961.7188 684.2706,960.5781 Q684.8956,959.4219 685.9894,958.8125 Q687.0831,958.1875 688.3175,958.1875 Q689.0519,958.1875 689.6925,958.3594 Q690.3488,958.5156 690.8956,958.875 Z " fill="#000000"/><text fill="#000000" font-family="sans-serif" font-size="14" lengthAdjust="spacing" textLength="102" x="702.23" y="968.7285">ListModelOption</text><line style="stroke:#181818;stroke-width:0.5;" x1="673.68" x2="806.68" y1="979" y2="979"/><line style="stroke:#181818;stroke-width:0.5;" x1="673.68" x2="806.68" y1="987" y2="987"/><text fill="#000000" font-family="sans-serif" font-size="14" lengthAdjust="spacing" textLength="123" x="678.68" y="1005.5332">constructor (model)</text><text fill="#000000" font-family="sans-serif" font-size="14" lengthAdjust="spacing" textLength="57" x="678.68" y="1023.1426">interact()</text></g><!--class AddModelOption--><g id="elem_AddModelOption"><rect codeLine="83" fill="#228B22" height="83.2188" id="AddModelOption" rx="2.5" ry="2.5" style="stroke:#181818;stroke-width:0.5;" width="137" x="914.68" y="947"/><ellipse cx="929.68" cy="963" fill="#ADD1B2" rx="11" ry="11" style="stroke:#181818;stroke-width:1.0;"/><path d="M932.4456,958.875 Q932.6019,958.6563 932.7894,958.5469 Q932.9769,958.4375 933.1956,958.4375 Q933.5706,958.4375 933.805,958.7031 Q934.0394,958.9531 934.0394,959.5625 L934.0394,961.0156 Q934.0394,961.625 933.805,961.8906 Q933.5706,962.1563 933.1956,962.1563 Q932.8519,962.1563 932.6488,961.9531 Q932.4456,961.7656 932.3363,961.25 Q932.2894,960.8906 932.1019,960.7031 Q931.7738,960.3281 931.1644,960.1094 Q930.555,959.8906 929.93,959.8906 Q929.1644,959.8906 928.5238,960.2188 Q927.8988,960.5469 927.3988,961.2969 Q926.9144,962.0469 926.9144,963.0781 L926.9144,964.1719 Q926.9144,965.4063 927.805,966.2344 Q928.6956,967.0469 930.2894,967.0469 Q931.2269,967.0469 931.8831,966.7969 Q932.2738,966.6406 932.6956,966.2031 Q932.9613,965.9375 933.1019,965.8594 Q933.2581,965.7813 933.4613,965.7813 Q933.7894,965.7813 934.0394,966.0469 Q934.305,966.2969 934.305,966.6406 Q934.305,966.9844 933.9613,967.3906 Q933.4613,967.9688 932.6644,968.2969 Q931.5863,968.75 930.2894,968.75 Q928.7738,968.75 927.5706,968.125 Q926.5863,967.625 925.8988,966.5625 Q925.2113,965.4844 925.2113,964.2031 L925.2113,963.0469 Q925.2113,961.7188 925.8206,960.5781 Q926.4456,959.4219 927.5394,958.8125 Q928.6331,958.1875 929.8675,958.1875 Q930.6019,958.1875 931.2425,958.3594 Q931.8988,958.5156 932.4456,958.875 Z " fill="#000000"/><text fill="#000000" font-family="sans-serif" font-size="14" lengthAdjust="spacing" textLength="105" x="943.68" y="968.7285">AddModelOption</text><line style="stroke:#181818;stroke-width:0.5;" x1="915.68" x2="1050.68" y1="979" y2="979"/><line style="stroke:#181818;stroke-width:0.5;" x1="915.68" x2="1050.68" y1="987" y2="987"/><text fill="#000000" font-family="sans-serif" font-size="14" lengthAdjust="spacing" textLength="119" x="920.68" y="1005.5332">constructor(model)</text><text fill="#000000" font-family="sans-serif" font-size="14" lengthAdjust="spacing" textLength="57" x="920.68" y="1023.1426">interact()</text></g><!--class RemoveModelsOption--><g id="elem_RemoveModelsOption"><rect codeLine="90" fill="#228B22" height="83.2188" id="RemoveModelsOption" rx="2.5" ry="2.5" style="stroke:#181818;stroke-width:0.5;" width="171" x="86.68" y="947"/><ellipse cx="101.68" cy="963" fill="#ADD1B2" rx="11" ry="11" style="stroke:#181818;stroke-width:1.0;"/><path d="M104.4456,958.875 Q104.6019,958.6563 104.7894,958.5469 Q104.9769,958.4375 105.1956,958.4375 Q105.5706,958.4375 105.805,958.7031 Q106.0394,958.9531 106.0394,959.5625 L106.0394,961.0156 Q106.0394,961.625 105.805,961.8906 Q105.5706,962.1563 105.1956,962.1563 Q104.8519,962.1563 104.6488,961.9531 Q104.4456,961.7656 104.3363,961.25 Q104.2894,960.8906 104.1019,960.7031 Q103.7738,960.3281 103.1644,960.1094 Q102.555,959.8906 101.93,959.8906 Q101.1644,959.8906 100.5238,960.2188 Q99.8988,960.5469 99.3988,961.2969 Q98.9144,962.0469 98.9144,963.0781 L98.9144,964.1719 Q98.9144,965.4063 99.805,966.2344 Q100.6956,967.0469 102.2894,967.0469 Q103.2269,967.0469 103.8831,966.7969 Q104.2738,966.6406 104.6956,966.2031 Q104.9613,965.9375 105.1019,965.8594 Q105.2581,965.7813 105.4613,965.7813 Q105.7894,965.7813 106.0394,966.0469 Q106.305,966.2969 106.305,966.6406 Q106.305,966.9844 105.9613,967.3906 Q105.4613,967.9688 104.6644,968.2969 Q103.5863,968.75 102.2894,968.75 Q100.7738,968.75 99.5706,968.125 Q98.5863,967.625 97.8988,966.5625 Q97.2113,965.4844 97.2113,964.2031 L97.2113,963.0469 Q97.2113,961.7188 97.8206,960.5781 Q98.4456,959.4219 99.5394,958.8125 Q100.6331,958.1875 101.8675,958.1875 Q102.6019,958.1875 103.2425,958.3594 Q103.8988,958.5156 104.4456,958.875 Z " fill="#000000"/><text fill="#000000" font-family="sans-serif" font-size="14" lengthAdjust="spacing" textLength="139" x="115.68" y="968.7285">RemoveModelsOption</text><line style="stroke:#181818;stroke-width:0.5;" x1="87.68" x2="256.68" y1="979" y2="979"/><line style="stroke:#181818;stroke-width:0.5;" x1="87.68" x2="256.68" y1="987" y2="987"/><text fill="#000000" font-family="sans-serif" font-size="14" lengthAdjust="spacing" textLength="119" x="92.68" y="1005.5332">constructor(model)</text><text fill="#000000" font-family="sans-serif" font-size="14" lengthAdjust="spacing" textLength="57" x="92.68" y="1023.1426">interact()</text></g><!--class RemoveModelOption--><g id="elem_RemoveModelOption"><rect codeLine="97" fill="#228B22" height="118.4375" id="RemoveModelOption" rx="2.5" ry="2.5" style="stroke:#181818;stroke-width:0.5;" width="172" x="20.18" y="1271"/><ellipse cx="38.78" cy="1287" fill="#ADD1B2" rx="11" ry="11" style="stroke:#181818;stroke-width:1.0;"/><path d="M41.5456,1282.875 Q41.7019,1282.6563 41.8894,1282.5469 Q42.0769,1282.4375 42.2956,1282.4375 Q42.6706,1282.4375 42.905,1282.7031 Q43.1394,1282.9531 43.1394,1283.5625 L43.1394,1285.0156 Q43.1394,1285.625 42.905,1285.8906 Q42.6706,1286.1563 42.2956,1286.1563 Q41.9519,1286.1563 41.7488,1285.9531 Q41.5456,1285.7656 41.4363,1285.25 Q41.3894,1284.8906 41.2019,1284.7031 Q40.8738,1284.3281 40.2644,1284.1094 Q39.655,1283.8906 39.03,1283.8906 Q38.2644,1283.8906 37.6238,1284.2188 Q36.9988,1284.5469 36.4988,1285.2969 Q36.0144,1286.0469 36.0144,1287.0781 L36.0144,1288.1719 Q36.0144,1289.4063 36.905,1290.2344 Q37.7956,1291.0469 39.3894,1291.0469 Q40.3269,1291.0469 40.9831,1290.7969 Q41.3738,1290.6406 41.7956,1290.2031 Q42.0613,1289.9375 42.2019,1289.8594 Q42.3581,1289.7813 42.5613,1289.7813 Q42.8894,1289.7813 43.1394,1290.0469 Q43.405,1290.2969 43.405,1290.6406 Q43.405,1290.9844 43.0613,1291.3906 Q42.5613,1291.9688 41.7644,1292.2969 Q40.6863,1292.75 39.3894,1292.75 Q37.8738,1292.75 36.6706,1292.125 Q35.6863,1291.625 34.9988,1290.5625 Q34.3113,1289.4844 34.3113,1288.2031 L34.3113,1287.0469 Q34.3113,1285.7188 34.9206,1284.5781 Q35.5456,1283.4219 36.6394,1282.8125 Q37.7331,1282.1875 38.9675,1282.1875 Q39.7019,1282.1875 40.3425,1282.3594 Q40.9988,1282.5156 41.5456,1282.875 Z " fill="#000000"/><text fill="#000000" font-family="sans-serif" font-size="14" lengthAdjust="spacing" textLength="132" x="53.58" y="1292.7285">RemoveModelOption</text><line style="stroke:#181818;stroke-width:0.5;" x1="21.18" x2="191.18" y1="1303" y2="1303"/><polygon fill="none" points="31.18,1312.3047,35.18,1316.3047,31.18,1320.3047,27.18,1316.3047" style="stroke:#B38D22;stroke-width:1.0;"/><text fill="#000000" font-family="sans-serif" font-size="14" lengthAdjust="spacing" textLength="33" x="40.18" y="1321.5332">index</text><line style="stroke:#181818;stroke-width:0.5;" x1="21.18" x2="191.18" y1="1328.6094" y2="1328.6094"/><text fill="#000000" font-family="sans-serif" font-size="14" lengthAdjust="spacing" textLength="160" x="26.18" y="1347.1426">constructor(model, index)</text><text fill="#000000" font-family="sans-serif" font-size="14" lengthAdjust="spacing" textLength="57" x="26.18" y="1364.752">getTitle()</text><text fill="#000000" font-family="sans-serif" font-size="14" lengthAdjust="spacing" textLength="57" x="26.18" y="1382.3613">interact()</text></g><!--class X--><g id="elem_X"><rect codeLine="106" fill="#228B22" height="83.2188" id="X" rx="2.5" ry="2.5" style="stroke:#181818;stroke-width:0.5;" width="131" x="506.68" y="947"/><ellipse cx="561.93" cy="963" fill="#ADD1B2" rx="11" ry="11" style="stroke:#181818;stroke-width:1.0;"/><path d="M564.6956,958.875 Q564.8519,958.6563 565.0394,958.5469 Q565.2269,958.4375 565.4456,958.4375 Q565.8206,958.4375 566.055,958.7031 Q566.2894,958.9531 566.2894,959.5625 L566.2894,961.0156 Q566.2894,961.625 566.055,961.8906 Q565.8206,962.1563 565.4456,962.1563 Q565.1019,962.1563 564.8988,961.9531 Q564.6956,961.7656 564.5863,961.25 Q564.5394,960.8906 564.3519,960.7031 Q564.0238,960.3281 563.4144,960.1094 Q562.805,959.8906 562.18,959.8906 Q561.4144,959.8906 560.7738,960.2188 Q560.1488,960.5469 559.6488,961.2969 Q559.1644,962.0469 559.1644,963.0781 L559.1644,964.1719 Q559.1644,965.4063 560.055,966.2344 Q560.9456,967.0469 562.5394,967.0469 Q563.4769,967.0469 564.1331,966.7969 Q564.5238,966.6406 564.9456,966.2031 Q565.2113,965.9375 565.3519,965.8594 Q565.5081,965.7813 565.7113,965.7813 Q566.0394,965.7813 566.2894,966.0469 Q566.555,966.2969 566.555,966.6406 Q566.555,966.9844 566.2113,967.3906 Q565.7113,967.9688 564.9144,968.2969 Q563.8363,968.75 562.5394,968.75 Q561.0238,968.75 559.8206,968.125 Q558.8363,967.625 558.1488,966.5625 Q557.4613,965.4844 557.4613,964.2031 L557.4613,963.0469 Q557.4613,961.7188 558.0706,960.5781 Q558.6956,959.4219 559.7894,958.8125 Q560.8831,958.1875 562.1175,958.1875 Q562.8519,958.1875 563.4925,958.3594 Q564.1488,958.5156 564.6956,958.875 Z " fill="#000000"/><text fill="#000000" font-family="sans-serif" font-size="14" lengthAdjust="spacing" textLength="12" x="582.43" y="968.7285">...</text><line style="stroke:#181818;stroke-width:0.5;" x1="507.68" x2="636.68" y1="979" y2="979"/><line style="stroke:#181818;stroke-width:0.5;" x1="507.68" x2="636.68" y1="987" y2="987"/><text fill="#000000" font-family="sans-serif" font-size="14" lengthAdjust="spacing" textLength="119" x="512.68" y="1005.5332">constructor(model)</text><text fill="#000000" font-family="sans-serif" font-size="14" lengthAdjust="spacing" textLength="57" x="512.68" y="1023.1426">interact()</text></g><!--class ModelMenu--><g id="elem_ModelMenu"><rect codeLine="113" fill="#00FF00" height="100.8281" id="ModelMenu" rx="2.5" ry="2.5" style="stroke:#181818;stroke-width:0.5;" width="131" x="1074.68" y="703"/><ellipse cx="1101.38" cy="719" fill="#ADD1B2" rx="11" ry="11" style="stroke:#181818;stroke-width:1.0;"/><path d="M1104.1456,714.875 Q1104.3019,714.6563 1104.4894,714.5469 Q1104.6769,714.4375 1104.8956,714.4375 Q1105.2706,714.4375 1105.505,714.7031 Q1105.7394,714.9531 1105.7394,715.5625 L1105.7394,717.0156 Q1105.7394,717.625 1105.505,717.8906 Q1105.2706,718.1563 1104.8956,718.1563 Q1104.5519,718.1563 1104.3488,717.9531 Q1104.1456,717.7656 1104.0363,717.25 Q1103.9894,716.8906 1103.8019,716.7031 Q1103.4738,716.3281 1102.8644,716.1094 Q1102.255,715.8906 1101.63,715.8906 Q1100.8644,715.8906 1100.2238,716.2188 Q1099.5988,716.5469 1099.0988,717.2969 Q1098.6144,718.0469 1098.6144,719.0781 L1098.6144,720.1719 Q1098.6144,721.4063 1099.505,722.2344 Q1100.3956,723.0469 1101.9894,723.0469 Q1102.9269,723.0469 1103.5831,722.7969 Q1103.9738,722.6406 1104.3956,722.2031 Q1104.6613,721.9375 1104.8019,721.8594 Q1104.9581,721.7813 1105.1613,721.7813 Q1105.4894,721.7813 1105.7394,722.0469 Q1106.005,722.2969 1106.005,722.6406 Q1106.005,722.9844 1105.6613,723.3906 Q1105.1613,723.9688 1104.3644,724.2969 Q1103.2863,724.75 1101.9894,724.75 Q1100.4738,724.75 1099.2706,724.125 Q1098.2863,723.625 1097.5988,722.5625 Q1096.9113,721.4844 1096.9113,720.2031 L1096.9113,719.0469 Q1096.9113,717.7188 1097.5206,716.5781 Q1098.1456,715.4219 1099.2394,714.8125 Q1100.3331,714.1875 1101.5675,714.1875 Q1102.3019,714.1875 1102.9425,714.3594 Q1103.5988,714.5156 1104.1456,714.875 Z " fill="#000000"/><text fill="#000000" font-family="sans-serif" font-size="14" lengthAdjust="spacing" textLength="73" x="1117.98" y="724.7285">ModelMenu</text><line style="stroke:#181818;stroke-width:0.5;" x1="1075.68" x2="1204.68" y1="735" y2="735"/><polygon fill="none" points="1085.68,744.3047,1089.68,748.3047,1085.68,752.3047,1081.68,748.3047" style="stroke:#B38D22;stroke-width:1.0;"/><text fill="#000000" font-family="sans-serif" font-size="14" lengthAdjust="spacing" textLength="38" x="1094.68" y="753.5332">model</text><line style="stroke:#181818;stroke-width:0.5;" x1="1075.68" x2="1204.68" y1="760.6094" y2="760.6094"/><text fill="#000000" font-family="sans-serif" font-size="14" lengthAdjust="spacing" textLength="119" x="1080.68" y="779.1426">constructor(model)</text><text fill="#000000" font-family="sans-serif" font-size="14" lengthAdjust="spacing" textLength="83" x="1080.68" y="796.752">addOptions()</text></g><!--class ModelQuitMenu--><g id="elem_ModelQuitMenu"><rect codeLine="125" fill="#00FF00" height="100.8281" id="ModelQuitMenu" rx="2.5" ry="2.5" style="stroke:#181818;stroke-width:0.5;" width="131" x="863.68" y="703"/><ellipse cx="878.68" cy="719" fill="#ADD1B2" rx="11" ry="11" style="stroke:#181818;stroke-width:1.0;"/><path d="M881.4456,714.875 Q881.6019,714.6563 881.7894,714.5469 Q881.9769,714.4375 882.1956,714.4375 Q882.5706,714.4375 882.805,714.7031 Q883.0394,714.9531 883.0394,715.5625 L883.0394,717.0156 Q883.0394,717.625 882.805,717.8906 Q882.5706,718.1563 882.1956,718.1563 Q881.8519,718.1563 881.6488,717.9531 Q881.4456,717.7656 881.3363,717.25 Q881.2894,716.8906 881.1019,716.7031 Q880.7738,716.3281 880.1644,716.1094 Q879.555,715.8906 878.93,715.8906 Q878.1644,715.8906 877.5238,716.2188 Q876.8988,716.5469 876.3988,717.2969 Q875.9144,718.0469 875.9144,719.0781 L875.9144,720.1719 Q875.9144,721.4063 876.805,722.2344 Q877.6956,723.0469 879.2894,723.0469 Q880.2269,723.0469 880.8831,722.7969 Q881.2738,722.6406 881.6956,722.2031 Q881.9613,721.9375 882.1019,721.8594 Q882.2581,721.7813 882.4613,721.7813 Q882.7894,721.7813 883.0394,722.0469 Q883.305,722.2969 883.305,722.6406 Q883.305,722.9844 882.9613,723.3906 Q882.4613,723.9688 881.6644,724.2969 Q880.5863,724.75 879.2894,724.75 Q877.7738,724.75 876.5706,724.125 Q875.5863,723.625 874.8988,722.5625 Q874.2113,721.4844 874.2113,720.2031 L874.2113,719.0469 Q874.2113,717.7188 874.8206,716.5781 Q875.4456,715.4219 876.5394,714.8125 Q877.6331,714.1875 878.8675,714.1875 Q879.6019,714.1875 880.2425,714.3594 Q880.8988,714.5156 881.4456,714.875 Z " fill="#000000"/><text fill="#000000" font-family="sans-serif" font-size="14" lengthAdjust="spacing" textLength="99" x="892.68" y="724.7285">ModelQuitMenu</text><line style="stroke:#181818;stroke-width:0.5;" x1="864.68" x2="993.68" y1="735" y2="735"/><polygon fill="none" points="874.68,744.3047,878.68,748.3047,874.68,752.3047,870.68,748.3047" style="stroke:#B38D22;stroke-width:1.0;"/><text fill="#000000" font-family="sans-serif" font-size="14" lengthAdjust="spacing" textLength="38" x="883.68" y="753.5332">model</text><line style="stroke:#181818;stroke-width:0.5;" x1="864.68" x2="993.68" y1="760.6094" y2="760.6094"/><text fill="#000000" font-family="sans-serif" font-size="14" lengthAdjust="spacing" textLength="119" x="869.68" y="779.1426">constructor(model)</text><text fill="#000000" font-family="sans-serif" font-size="14" lengthAdjust="spacing" textLength="83" x="869.68" y="796.752">addOptions()</text></g><!--class ModelIterativeMenu--><g id="elem_ModelIterativeMenu"><rect codeLine="137" fill="#00FF00" height="100.8281" id="ModelIterativeMenu" rx="2.5" ry="2.5" style="stroke:#181818;stroke-width:0.5;" width="155" x="673.68" y="703"/><ellipse cx="688.68" cy="719" fill="#ADD1B2" rx="11" ry="11" style="stroke:#181818;stroke-width:1.0;"/><path d="M691.4456,714.875 Q691.6019,714.6563 691.7894,714.5469 Q691.9769,714.4375 692.1956,714.4375 Q692.5706,714.4375 692.805,714.7031 Q693.0394,714.9531 693.0394,715.5625 L693.0394,717.0156 Q693.0394,717.625 692.805,717.8906 Q692.5706,718.1563 692.1956,718.1563 Q691.8519,718.1563 691.6488,717.9531 Q691.4456,717.7656 691.3363,717.25 Q691.2894,716.8906 691.1019,716.7031 Q690.7738,716.3281 690.1644,716.1094 Q689.555,715.8906 688.93,715.8906 Q688.1644,715.8906 687.5238,716.2188 Q686.8988,716.5469 686.3988,717.2969 Q685.9144,718.0469 685.9144,719.0781 L685.9144,720.1719 Q685.9144,721.4063 686.805,722.2344 Q687.6956,723.0469 689.2894,723.0469 Q690.2269,723.0469 690.8831,722.7969 Q691.2738,722.6406 691.6956,722.2031 Q691.9613,721.9375 692.1019,721.8594 Q692.2581,721.7813 692.4613,721.7813 Q692.7894,721.7813 693.0394,722.0469 Q693.305,722.2969 693.305,722.6406 Q693.305,722.9844 692.9613,723.3906 Q692.4613,723.9688 691.6644,724.2969 Q690.5863,724.75 689.2894,724.75 Q687.7738,724.75 686.5706,724.125 Q685.5863,723.625 684.8988,722.5625 Q684.2113,721.4844 684.2113,720.2031 L684.2113,719.0469 Q684.2113,717.7188 684.8206,716.5781 Q685.4456,715.4219 686.5394,714.8125 Q687.6331,714.1875 688.8675,714.1875 Q689.6019,714.1875 690.2425,714.3594 Q690.8988,714.5156 691.4456,714.875 Z " fill="#000000"/><text fill="#000000" font-family="sans-serif" font-size="14" lengthAdjust="spacing" textLength="123" x="702.68" y="724.7285">ModelIterativeMenu</text><line style="stroke:#181818;stroke-width:0.5;" x1="674.68" x2="827.68" y1="735" y2="735"/><polygon fill="none" points="684.68,744.3047,688.68,748.3047,684.68,752.3047,680.68,748.3047" style="stroke:#B38D22;stroke-width:1.0;"/><text fill="#000000" font-family="sans-serif" font-size="14" lengthAdjust="spacing" textLength="38" x="693.68" y="753.5332">model</text><line style="stroke:#181818;stroke-width:0.5;" x1="674.68" x2="827.68" y1="760.6094" y2="760.6094"/><text fill="#000000" font-family="sans-serif" font-size="14" lengthAdjust="spacing" textLength="119" x="679.68" y="779.1426">constructor(model)</text><text fill="#000000" font-family="sans-serif" font-size="14" lengthAdjust="spacing" textLength="83" x="679.68" y="796.752">addOptions()</text></g><!--class ModelDynamicMenu--><g id="elem_ModelDynamicMenu"><rect codeLine="149" fill="#00FF00" height="100.8281" id="ModelDynamicMenu" rx="2.5" ry="2.5" style="stroke:#181818;stroke-width:0.5;" width="159" x="96.68" y="1091"/><ellipse cx="111.68" cy="1107" fill="#ADD1B2" rx="11" ry="11" style="stroke:#181818;stroke-width:1.0;"/><path d="M114.4456,1102.875 Q114.6019,1102.6563 114.7894,1102.5469 Q114.9769,1102.4375 115.1956,1102.4375 Q115.5706,1102.4375 115.805,1102.7031 Q116.0394,1102.9531 116.0394,1103.5625 L116.0394,1105.0156 Q116.0394,1105.625 115.805,1105.8906 Q115.5706,1106.1563 115.1956,1106.1563 Q114.8519,1106.1563 114.6488,1105.9531 Q114.4456,1105.7656 114.3363,1105.25 Q114.2894,1104.8906 114.1019,1104.7031 Q113.7738,1104.3281 113.1644,1104.1094 Q112.555,1103.8906 111.93,1103.8906 Q111.1644,1103.8906 110.5238,1104.2188 Q109.8988,1104.5469 109.3988,1105.2969 Q108.9144,1106.0469 108.9144,1107.0781 L108.9144,1108.1719 Q108.9144,1109.4063 109.805,1110.2344 Q110.6956,1111.0469 112.2894,1111.0469 Q113.2269,1111.0469 113.8831,1110.7969 Q114.2738,1110.6406 114.6956,1110.2031 Q114.9613,1109.9375 115.1019,1109.8594 Q115.2581,1109.7813 115.4613,1109.7813 Q115.7894,1109.7813 116.0394,1110.0469 Q116.305,1110.2969 116.305,1110.6406 Q116.305,1110.9844 115.9613,1111.3906 Q115.4613,1111.9688 114.6644,1112.2969 Q113.5863,1112.75 112.2894,1112.75 Q110.7738,1112.75 109.5706,1112.125 Q108.5863,1111.625 107.8988,1110.5625 Q107.2113,1109.4844 107.2113,1108.2031 L107.2113,1107.0469 Q107.2113,1105.7188 107.8206,1104.5781 Q108.4456,1103.4219 109.5394,1102.8125 Q110.6331,1102.1875 111.8675,1102.1875 Q112.6019,1102.1875 113.2425,1102.3594 Q113.8988,1102.5156 114.4456,1102.875 Z " fill="#000000"/><text fill="#000000" font-family="sans-serif" font-size="14" lengthAdjust="spacing" textLength="127" x="125.68" y="1112.7285">ModelDynamicMenu</text><line style="stroke:#181818;stroke-width:0.5;" x1="97.68" x2="254.68" y1="1123" y2="1123"/><polygon fill="none" points="107.68,1132.3047,111.68,1136.3047,107.68,1140.3047,103.68,1136.3047" style="stroke:#B38D22;stroke-width:1.0;"/><text fill="#000000" font-family="sans-serif" font-size="14" lengthAdjust="spacing" textLength="38" x="116.68" y="1141.5332">model</text><line style="stroke:#181818;stroke-width:0.5;" x1="97.68" x2="254.68" y1="1148.6094" y2="1148.6094"/><text fill="#000000" font-family="sans-serif" font-size="14" lengthAdjust="spacing" textLength="119" x="102.68" y="1167.1426">constructor(model)</text><text fill="#000000" font-family="sans-serif" font-size="14" lengthAdjust="spacing" textLength="83" x="102.68" y="1184.752">addOptions()</text></g><!--class ModelIterativeDynamicMenu--><g id="elem_ModelIterativeDynamicMenu"><rect codeLine="168" fill="#00FF00" height="100.8281" id="ModelIterativeDynamicMenu" rx="2.5" ry="2.5" style="stroke:#181818;stroke-width:0.5;" width="209" x="148.68" y="703"/><ellipse cx="163.68" cy="719" fill="#ADD1B2" rx="11" ry="11" style="stroke:#181818;stroke-width:1.0;"/><path d="M166.4456,714.875 Q166.6019,714.6563 166.7894,714.5469 Q166.9769,714.4375 167.1956,714.4375 Q167.5706,714.4375 167.805,714.7031 Q168.0394,714.9531 168.0394,715.5625 L168.0394,717.0156 Q168.0394,717.625 167.805,717.8906 Q167.5706,718.1563 167.1956,718.1563 Q166.8519,718.1563 166.6488,717.9531 Q166.4456,717.7656 166.3363,717.25 Q166.2894,716.8906 166.1019,716.7031 Q165.7738,716.3281 165.1644,716.1094 Q164.555,715.8906 163.93,715.8906 Q163.1644,715.8906 162.5238,716.2188 Q161.8988,716.5469 161.3988,717.2969 Q160.9144,718.0469 160.9144,719.0781 L160.9144,720.1719 Q160.9144,721.4063 161.805,722.2344 Q162.6956,723.0469 164.2894,723.0469 Q165.2269,723.0469 165.8831,722.7969 Q166.2738,722.6406 166.6956,722.2031 Q166.9613,721.9375 167.1019,721.8594 Q167.2581,721.7813 167.4613,721.7813 Q167.7894,721.7813 168.0394,722.0469 Q168.305,722.2969 168.305,722.6406 Q168.305,722.9844 167.9613,723.3906 Q167.4613,723.9688 166.6644,724.2969 Q165.5863,724.75 164.2894,724.75 Q162.7738,724.75 161.5706,724.125 Q160.5863,723.625 159.8988,722.5625 Q159.2113,721.4844 159.2113,720.2031 L159.2113,719.0469 Q159.2113,717.7188 159.8206,716.5781 Q160.4456,715.4219 161.5394,714.8125 Q162.6331,714.1875 163.8675,714.1875 Q164.6019,714.1875 165.2425,714.3594 Q165.8988,714.5156 166.4456,714.875 Z " fill="#000000"/><text fill="#000000" font-family="sans-serif" font-size="14" lengthAdjust="spacing" textLength="177" x="177.68" y="724.7285">ModelIterativeDynamicMenu</text><line style="stroke:#181818;stroke-width:0.5;" x1="149.68" x2="356.68" y1="735" y2="735"/><polygon fill="none" points="159.68,744.3047,163.68,748.3047,159.68,752.3047,155.68,748.3047" style="stroke:#B38D22;stroke-width:1.0;"/><text fill="#000000" font-family="sans-serif" font-size="14" lengthAdjust="spacing" textLength="38" x="168.68" y="753.5332">model</text><line style="stroke:#181818;stroke-width:0.5;" x1="149.68" x2="356.68" y1="760.6094" y2="760.6094"/><text fill="#000000" font-family="sans-serif" font-size="14" lengthAdjust="spacing" textLength="119" x="154.68" y="779.1426">constructor(model)</text><text fill="#000000" font-family="sans-serif" font-size="14" lengthAdjust="spacing" textLength="83" x="154.68" y="796.752">addOptions()</text></g><!--link Option to Console--><g id="link_Option_Console"><path codeLine="18" d="M249.8766,433.6845 C234.5666,448.4645 227.95,457.49 217.18,476 C202.06,501.99 195.7974,530.3416 192.5574,552.7816 " fill="none" id="Option-Console" style="stroke:#181818;stroke-width:1.0;"/><polygon fill="#181818" points="258.51,425.35,251.4151,426.6395,249.8766,433.6845,256.9715,432.3951,258.51,425.35" style="stroke:#181818;stroke-width:1.0;"/><polygon fill="#181818" points="191.7,558.72,196.9451,550.384,192.4145,553.7713,189.0272,549.2408,191.7,558.72" style="stroke:#181818;stroke-width:1.0;"/><text fill="#000000" font-family="sans-serif" font-size="13" lengthAdjust="spacing" textLength="89" x="218.18" y="490.4951">{static} console</text></g><!--reverse link Option to QuitOption--><g id="link_Option_QuitOption"><path codeLine="20" d="M316.18,464.03 C316.18,489.21 316.18,499.6 316.18,523.89 " fill="none" id="Option-backto-QuitOption" style="stroke:#181818;stroke-width:1.0;"/><polygon fill="none" points="316.18,446.03,310.18,464.03,322.18,464.03,316.18,446.03" style="stroke:#181818;stroke-width:1.0;"/></g><!--link Menu to Option--><g id="link_Menu_Option"><path codeLine="51" d="M404.3352,248.3978 C387.7052,272.6578 380.7329,282.8314 365.6629,304.8114 " fill="none" id="Menu-Option" style="stroke:#181818;stroke-width:1.0;"/><polygon fill="#181818" points="411.12,238.5,404.4283,241.1873,404.3352,248.3978,411.0268,245.7105,411.12,238.5" style="stroke:#181818;stroke-width:1.0;"/><polygon fill="#181818" points="362.27,309.76,370.6584,304.599,365.0974,305.6362,364.0602,300.0752,362.27,309.76" style="stroke:#181818;stroke-width:1.0;"/><text fill="#000000" font-family="sans-serif" font-size="13" lengthAdjust="spacing" textLength="8" x="358.8736" y="298.933">+</text></g><!--link QuitMenu to QuitOption--><g id="link_QuitMenu_QuitOption"><path codeLine="52" d="M422.337,455.2313 C401.257,480.4113 389.0432,495.0008 368.6932,519.2908 " fill="none" id="QuitMenu-QuitOption" style="stroke:#181818;stroke-width:1.0;"/><polygon fill="#181818" points="430.04,446.03,423.1214,448.0629,422.337,455.2313,429.2556,453.1983,430.04,446.03" style="stroke:#181818;stroke-width:1.0;"/><polygon fill="#181818" points="364.84,523.89,373.6859,519.56,368.051,520.0573,367.5536,514.4224,364.84,523.89" style="stroke:#181818;stroke-width:1.0;"/></g><!--reverse link Menu to QuitMenu--><g id="link_Menu_QuitMenu"><path codeLine="54" d="M486.18,267 C486.18,287.9 486.18,290.95 486.18,309.77 " fill="none" id="Menu-backto-QuitMenu" style="stroke:#181818;stroke-width:1.0;"/><polygon fill="none" points="486.18,249,480.18,267,492.18,267,486.18,249" style="stroke:#181818;stroke-width:1.0;"/></g><!--reverse link QuitMenu to IterativeMenu--><g id="link_QuitMenu_IterativeMenu"><path codeLine="55" d="M475.3079,463.8847 C471.2779,495.4147 468.87,514.12 465.38,541.39 " fill="none" id="QuitMenu-backto-IterativeMenu" style="stroke:#181818;stroke-width:1.0;"/><polygon fill="none" points="477.59,446.03,469.3563,463.124,481.2595,464.6454,477.59,446.03" style="stroke:#181818;stroke-width:1.0;"/></g><!--reverse link IterativeMenu to DynamicMenu--><g id="link_IterativeMenu_DynamicMenu"><path codeLine="56" d="M445.7601,642.1715 C432.0601,697.4515 412.04,778.23 398.31,833.61 " fill="none" id="IterativeMenu-backto-DynamicMenu" style="stroke:#181818;stroke-width:1.0;"/><polygon fill="none" points="450.09,624.7,439.9362,640.7281,451.5839,643.6148,450.09,624.7" style="stroke:#181818;stroke-width:1.0;"/></g><!--link ModelOption to Model--><g id="link_ModelOption_Model"><path codeLine="73" d="M530.47,804.12 C515.66,842.39 497.03,897.05 489.18,947 C483.46,983.44 479.84,994.31 489.18,1030 C511.75,1116.26 561.9528,1198.9991 602.6028,1256.9091 " fill="none" id="ModelOption-to-Model" style="stroke:#181818;stroke-width:1.0;"/><polygon fill="#181818" points="606.05,1261.82,604.1531,1252.1555,603.1773,1257.7276,597.6053,1256.7518,606.05,1261.82" style="stroke:#181818;stroke-width:1.0;"/></g><!--reverse link Option to ModelOption--><g id="link_Option_ModelOption"><path codeLine="74" d="M388.0569,444.3328 C393.7169,448.8928 385.46,441.99 391.18,446 C451.1,488 496.6,462.45 536.18,524 C570.58,577.5 567.84,653.39 560.95,702.77 " fill="none" id="Option-backto-ModelOption" style="stroke:#181818;stroke-width:1.0;"/><polygon fill="none" points="374.04,433.04,384.2926,449.0051,391.8212,439.6605,374.04,433.04" style="stroke:#181818;stroke-width:1.0;"/></g><!--reverse link ModelOption to ListModelOption--><g id="link_ModelOption_ListModelOption"><path codeLine="81" d="M602.8305,818.1783 C637.3105,860.6783 674.98,907.12 707.16,946.8 " fill="none" id="ModelOption-backto-ListModelOption" style="stroke:#181818;stroke-width:1.0;"/><polygon fill="none" points="591.49,804.2,598.1711,821.9585,607.4899,814.3981,591.49,804.2" style="stroke:#181818;stroke-width:1.0;"/></g><!--reverse link ModelOption to AddModelOption--><g id="link_ModelOption_AddModelOption"><path codeLine="88" d="M654.1822,810.0554 C735.6422,853.9954 839.78,910.16 914.61,950.52 " fill="none" id="ModelOption-backto-AddModelOption" style="stroke:#181818;stroke-width:1.0;"/><polygon fill="none" points="638.34,801.51,651.3338,815.3361,657.0307,804.7746,638.34,801.51" style="stroke:#181818;stroke-width:1.0;"/></g><!--reverse link ModelOption to RemoveModelsOption--><g id="link_ModelOption_RemoveModelsOption"><path codeLine="95" d="M503.6073,819.0019 C496.7973,828.7019 500.26,824.18 494.18,834 C472.19,869.49 483.01,891.21 450.18,917 C395.36,960.06 317.36,977.11 257.92,983.72 " fill="none" id="ModelOption-backto-RemoveModelsOption" style="stroke:#181818;stroke-width:1.0;"/><polygon fill="none" points="513.95,804.27,498.6967,815.5543,508.5179,822.4495,513.95,804.27" style="stroke:#181818;stroke-width:1.0;"/></g><!--reverse link ModelOption to RemoveModelOption--><g id="link_ModelOption_RemoveModelOption"><path codeLine="104" d="M446.8332,785.6391 C400.3732,800.0991 359.72,813.89 309.18,834 C199.64,877.59 132.34,847.45 69.18,947 C6,1046.58 47.87,1191.07 79.73,1270.77 " fill="none" id="ModelOption-backto-RemoveModelOption" style="stroke:#181818;stroke-width:1.0;"/><polygon fill="none" points="464.02,780.29,445.0501,779.9102,448.6162,791.3681,464.02,780.29" style="stroke:#181818;stroke-width:1.0;"/></g><!--reverse link ModelOption to X--><g id="link_ModelOption_X"><path codeLine="111" d="M557.2756,822.1274 C561.1056,864.6274 564.94,907.12 568.51,946.8 " fill="none" id="ModelOption-backto-X" style="stroke:#181818;stroke-width:1.0;"/><polygon fill="none" points="555.66,804.2,551.2998,822.6659,563.2514,821.5888,555.66,804.2" style="stroke:#181818;stroke-width:1.0;"/></g><!--reverse link Menu to ModelMenu--><g id="link_Menu_ModelMenu"><path codeLine="119" d="M574.228,212.9406 C708.268,340.7306 972.6,592.74 1088.02,702.77 " fill="none" id="Menu-backto-ModelMenu" style="stroke:#181818;stroke-width:1.0;"/><polygon fill="none" points="561.2,200.52,570.0878,217.2832,578.3682,208.5979,561.2,200.52" style="stroke:#181818;stroke-width:1.0;"/></g><!--link ModelMenu to Model--><g id="link_ModelMenu_Model"><path codeLine="121" d="M1140.5,804.34 C1138.17,896.51 1118.9,1093.21 1002.18,1192 C914.25,1266.42 786.7736,1302.4379 714.3136,1318.1579 " fill="none" id="ModelMenu-to-Model" style="stroke:#181818;stroke-width:1.0;"/><polygon fill="#181818" points="708.45,1319.43,718.0935,1321.4309,713.3363,1318.3699,716.3973,1313.6128,708.45,1319.43" style="stroke:#181818;stroke-width:1.0;"/></g><!--link ModelMenu to AddModelOption--><g id="link_ModelMenu_AddModelOption"><path codeLine="123" d="M1099.984,814.1513 C1071.344,856.6513 1040.6922,902.1438 1013.9622,941.8238 " fill="none" id="ModelMenu-AddModelOption" style="stroke:#181818;stroke-width:1.0;"/><polygon fill="#181818" points="1106.69,804.2,1100.0199,806.9403,1099.984,814.1513,1106.6541,811.411,1106.69,804.2" style="stroke:#181818;stroke-width:1.0;"/><polygon fill="#181818" points="1010.61,946.8,1018.9558,941.5704,1013.4035,942.6531,1012.3208,937.1009,1010.61,946.8" style="stroke:#181818;stroke-width:1.0;"/></g><!--reverse link QuitMenu to ModelQuitMenu--><g id="link_QuitMenu_ModelQuitMenu"><path codeLine="131" d="M577.6121,456.0919 C665.0821,529.8319 791.52,636.43 870.37,702.92 " fill="none" id="QuitMenu-backto-ModelQuitMenu" style="stroke:#181818;stroke-width:1.0;"/><polygon fill="none" points="563.85,444.49,573.7448,460.6793,581.4794,451.5045,563.85,444.49" style="stroke:#181818;stroke-width:1.0;"/></g><!--link ModelQuitMenu to Model--><g id="link_ModelQuitMenu_Model"><path codeLine="133" d="M984.67,804.04 C1039.4,859.21 1109.45,951.02 1069.18,1030 C992.4,1180.58 805.9656,1270.8086 713.7456,1307.9486 " fill="none" id="ModelQuitMenu-to-Model" style="stroke:#181818;stroke-width:1.0;"/><polygon fill="#181818" points="708.18,1310.19,718.0227,1310.5382,712.818,1308.3221,715.0341,1303.1174,708.18,1310.19" style="stroke:#181818;stroke-width:1.0;"/></g><!--link ModelQuitMenu to ListModelOption--><g id="link_ModelQuitMenu_ListModelOption"><path codeLine="135" d="M881.3097,813.5189 C846.8297,856.0189 809.1593,902.4599 776.9793,942.1399 " fill="none" id="ModelQuitMenu-ListModelOption" style="stroke:#181818;stroke-width:1.0;"/><polygon fill="#181818" points="888.87,804.2,881.9835,806.3393,881.3097,813.5189,888.1961,811.3795,888.87,804.2" style="stroke:#181818;stroke-width:1.0;"/><polygon fill="#181818" points="773.2,946.8,781.9757,942.3293,776.3494,942.9166,775.7622,937.2903,773.2,946.8" style="stroke:#181818;stroke-width:1.0;"/></g><!--reverse link IterativeMenu to ModelIterativeMenu--><g id="link_IterativeMenu_ModelIterativeMenu"><path codeLine="143" d="M534.9968,627.3202 C579.4468,653.0602 625.14,679.52 673.51,707.53 " fill="none" id="IterativeMenu-backto-ModelIterativeMenu" style="stroke:#181818;stroke-width:1.0;"/><polygon fill="none" points="519.42,618.3,531.9901,632.5124,538.0035,622.1279,519.42,618.3" style="stroke:#181818;stroke-width:1.0;"/></g><!--link ModelIterativeMenu to Model--><g id="link_ModelIterativeMenu_Model"><path codeLine="145" d="M780.43,804.22 C809.15,859.35 845.87,950.95 825.18,1030 C802.61,1116.26 752.4072,1198.9991 711.7572,1256.9091 " fill="none" id="ModelIterativeMenu-to-Model" style="stroke:#181818;stroke-width:1.0;"/><polygon fill="#181818" points="708.31,1261.82,716.7547,1256.7518,711.1827,1257.7276,710.2069,1252.1555,708.31,1261.82" style="stroke:#181818;stroke-width:1.0;"/></g><!--link ModelIterativeMenu to X--><g id="link_ModelIterativeMenu_X"><path codeLine="147" d="M705.6894,813.7161 C673.0394,856.2161 637.585,902.3618 607.105,942.0418 " fill="none" id="ModelIterativeMenu-X" style="stroke:#181818;stroke-width:1.0;"/><polygon fill="#181818" points="713,804.2,706.1727,806.5212,705.6894,813.7161,712.5167,811.3949,713,804.2" style="stroke:#181818;stroke-width:1.0;"/><polygon fill="#181818" points="603.45,946.8,612.1047,942.0993,606.4958,942.8348,605.7604,937.226,603.45,946.8" style="stroke:#181818;stroke-width:1.0;"/></g><!--reverse link DynamicMenu to ModelDynamicMenu--><g id="link_DynamicMenu_ModelDynamicMenu"><path codeLine="155" d="M349.5344,931.7375 C327.2744,963.1575 305.45,992.77 275.18,1030 C258.61,1050.39 239.52,1072.07 222.56,1090.78 " fill="none" id="DynamicMenu-backto-ModelDynamicMenu" style="stroke:#181818;stroke-width:1.0;"/><polygon fill="none" points="359.94,917.05,344.6386,928.269,354.4302,935.2061,359.94,917.05" style="stroke:#181818;stroke-width:1.0;"/></g><!--link ModelDynamicMenu to Model--><g id="link_ModelDynamicMenu_Model"><path codeLine="157" d="M255.81,1190.83 C276.37,1202.24 298.75,1213.75 320.18,1223 C418.31,1265.33 533.1798,1297.6528 600.2398,1314.9328 " fill="none" id="ModelDynamicMenu-to-Model" style="stroke:#181818;stroke-width:1.0;"/><polygon fill="#181818" points="606.05,1316.43,598.3328,1310.3108,601.2082,1315.1824,596.3366,1318.0577,606.05,1316.43" style="stroke:#181818;stroke-width:1.0;"/></g><!--link RemoveModelsOption to ModelDynamicMenu--><g id="link_RemoveModelsOption_ModelDynamicMenu"><path codeLine="159" d="M173.5809,1042.3557 C174.0809,1061.0457 174.1912,1065.3621 174.7112,1085.0021 " fill="none" id="RemoveModelsOption-ModelDynamicMenu" style="stroke:#181818;stroke-width:1.0;"/><polygon fill="#181818" points="173.26,1030.36,169.4219,1036.4648,173.5809,1042.3557,177.419,1036.2509,173.26,1030.36" style="stroke:#181818;stroke-width:1.0;"/><polygon fill="#181818" points="174.87,1091,178.6304,1081.8973,174.7377,1086.0018,170.6332,1082.109,174.87,1091" style="stroke:#181818;stroke-width:1.0;"/></g><!--link ModelDynamicMenu to RemoveModelOption--><g id="link_ModelDynamicMenu_RemoveModelOption"><path codeLine="160" d="M153.204,1203.715 C144.134,1227.885 139.5185,1240.1827 130.0785,1265.3327 " fill="none" id="ModelDynamicMenu-RemoveModelOption" style="stroke:#181818;stroke-width:1.0;"/><polygon fill="#181818" points="157.42,1192.48,151.567,1196.6922,153.204,1203.715,159.057,1199.5028,157.42,1192.48" style="stroke:#181818;stroke-width:1.0;"/><polygon fill="#181818" points="127.97,1270.95,134.8776,1263.9296,129.727,1266.2689,127.3878,1261.1184,127.97,1270.95" style="stroke:#181818;stroke-width:1.0;"/></g><!--reverse link IterativeMenu to ModelIterativeDynamicMenu--><g id="link_IterativeMenu_ModelIterativeDynamicMenu"><path codeLine="162" d="M396.3713,635.9346 C367.4213,659.5046 344.69,678.01 314.04,702.96 " fill="none" id="IterativeMenu-backto-ModelIterativeDynamicMenu" style="stroke:#181818;stroke-width:1.0;"/><polygon fill="none" points="410.33,624.57,392.5831,631.2817,400.1595,640.5875,410.33,624.57" style="stroke:#181818;stroke-width:1.0;"/></g><!--link ModelIterativeDynamicMenu to Model--><g id="link_ModelIterativeDynamicMenu_Model"><path codeLine="164" d="M273.22,804.12 C286.96,836.77 306.24,880.14 326.18,917 C395.21,1044.64 407.8,1081.78 502.18,1192 C533.36,1228.42 569.5157,1260.3359 601.4257,1286.1559 " fill="none" id="ModelIterativeDynamicMenu-to-Model" style="stroke:#181818;stroke-width:1.0;"/><polygon fill="#181818" points="606.09,1289.93,601.6096,1281.1592,602.2031,1286.7849,596.5774,1287.3783,606.09,1289.93" style="stroke:#181818;stroke-width:1.0;"/></g><!--link ModelIterativeDynamicMenu to RemoveModelsOption--><g id="link_ModelIterativeDynamicMenu_RemoveModelsOption"><path codeLine="166" d="M231.9608,815.535 C217.1908,858.035 202.0896,901.4525 188.2996,941.1325 " fill="none" id="ModelIterativeDynamicMenu-RemoveModelsOption" style="stroke:#181818;stroke-width:1.0;"/><polygon fill="#181818" points="235.9,804.2,230.152,808.5544,231.9608,815.535,237.7087,811.1806,235.9,804.2" style="stroke:#181818;stroke-width:1.0;"/><polygon fill="#181818" points="186.33,946.8,193.0628,939.6118,187.9714,942.0771,185.5061,936.9857,186.33,946.8" style="stroke:#181818;stroke-width:1.0;"/></g><!--SRC=[hLNRRjGm47ttLrYRb_Is7m082MqHgjGAWNZe6pA9wLfiuX9xUs79l-FxUcmdBTtcAPaPppbpF3DfDaG8lEAzu1kA4FaXv40QYHjZ_tmh6UznrGoi4-fbXx1wAica2jQlZJeeXsqZ-L0Rwv4nxtoU4RDUKlrM7s7Z4cj-_qr7rgnlwOEDlw7IsbJGY2psbosJ4_ZqWJPRITkCWisMGZBnqHrG0ID2BklnMSll-xFtldhy1k-4998reqbg176nx_xQu8XL9jOLxRSpKbNS71DpkksPfpAIjhMm8Ydok_iEkle0BT9gpRcWxgIpgqorfMA_1zhnEmgJhubmPtpac5QhXIXM_3iez7Qkr8oluhK_weiCDmTS6PaBhOLaTxJ4A2U0Kx6pXEUFFUbOy-9qo9mC7ROuMRXPGa6tu8nRodX0isdB_b1mWOeHh3y4HLKWDrLNlAKRNBLa-BLw9E7IL4Miln4J0wLRnaR4BPCCiFjqKyx-k66ESVqu_-G35VBJGAadq6btXcunJwrtPhCOmIC0hwonPICSHNfsbqp89nX6l70T4OgNJK8Z82RfFUg7jdq-Q1bp4XBczeXVpSKPXnjm360FHStp5v2dowrC2vKvdEAul-8VnlzpWzIkCH5uiLmk5_Xrx-0QDByPJLnTiexwSijT7u60hJ-cwo6aTVZ62ti_SeHzKsuDOmfxva2U-Ru2wHsj45NYdE_9YIao9hW0BVkNafzOfZcEOmhZIxN0Y50Gx8_ubtEW_74go1_y4JBOX7jXMno3a3XRbYo45WRlMHBdN4kkUS6V8YJcUkdrRkGV]--></g></svg>