<?xml version="1.0" encoding="us-ascii" standalone="no"?><svg xmlns="http://www.w3.org/2000/svg" xmlns:xlink="http://www.w3.org/1999/xlink" contentStyleType="text/css" height="1186px" preserveAspectRatio="none" style="width:910px;height:1186px;background:#FFFFFF;" version="1.1" viewBox="0 0 910 1186" width="910px" zoomAndPan="magnify"><defs/><g><!--class Console--><g id="elem_Console"><rect codeLine="2" fill="#F1F1F1" height="48" id="Console" rx="2.5" ry="2.5" style="stroke:#181818;stroke-width:0.5;" width="84" x="132.5" y="576"/><ellipse cx="147.5" cy="592" fill="#ADD1B2" rx="11" ry="11" style="stroke:#181818;stroke-width:1.0;"/><path d="M150.2656,587.875 Q150.4219,587.6563 150.6094,587.5469 Q150.7969,587.4375 151.0156,587.4375 Q151.3906,587.4375 151.625,587.7031 Q151.8594,587.9531 151.8594,588.5625 L151.8594,590.0156 Q151.8594,590.625 151.625,590.8906 Q151.3906,591.1563 151.0156,591.1563 Q150.6719,591.1563 150.4688,590.9531 Q150.2656,590.7656 150.1563,590.25 Q150.1094,589.8906 149.9219,589.7031 Q149.5938,589.3281 148.9844,589.1094 Q148.375,588.8906 147.75,588.8906 Q146.9844,588.8906 146.3438,589.2188 Q145.7188,589.5469 145.2188,590.2969 Q144.7344,591.0469 144.7344,592.0781 L144.7344,593.1719 Q144.7344,594.4063 145.625,595.2344 Q146.5156,596.0469 148.1094,596.0469 Q149.0469,596.0469 149.7031,595.7969 Q150.0938,595.6406 150.5156,595.2031 Q150.7813,594.9375 150.9219,594.8594 Q151.0781,594.7813 151.2813,594.7813 Q151.6094,594.7813 151.8594,595.0469 Q152.125,595.2969 152.125,595.6406 Q152.125,595.9844 151.7813,596.3906 Q151.2813,596.9688 150.4844,597.2969 Q149.4063,597.75 148.1094,597.75 Q146.5938,597.75 145.3906,597.125 Q144.4063,596.625 143.7188,595.5625 Q143.0313,594.4844 143.0313,593.2031 L143.0313,592.0469 Q143.0313,590.7188 143.6406,589.5781 Q144.2656,588.4219 145.3594,587.8125 Q146.4531,587.1875 147.6875,587.1875 Q148.4219,587.1875 149.0625,587.3594 Q149.7188,587.5156 150.2656,587.875 Z " fill="#000000"/><text fill="#000000" font-family="sans-serif" font-size="14" lengthAdjust="spacing" textLength="52" x="161.5" y="597.7285">Console</text><line style="stroke:#181818;stroke-width:0.5;" x1="133.5" x2="215.5" y1="608" y2="608"/><line style="stroke:#181818;stroke-width:0.5;" x1="133.5" x2="215.5" y1="616" y2="616"/></g><!--class Option--><g id="elem_Option"><rect codeLine="4" fill="#DC143C" height="136.0469" id="Option" rx="2.5" ry="2.5" style="stroke:#181818;stroke-width:0.5;" width="140" x="271.5" y="327"/><ellipse cx="316.25" cy="343" fill="#A9DCDF" rx="11" ry="11" style="stroke:#181818;stroke-width:1.0;"/><path d="M318.4375,344.7656 L314.2969,344.7656 L313.875,345.7969 L314.2969,345.7969 Q314.9063,345.7969 315.1719,346.0313 Q315.4375,346.2656 315.4375,346.6563 Q315.4375,347.0313 315.1719,347.2656 Q314.9063,347.5 314.2969,347.5 L312,347.5 Q311.3906,347.5 311.1406,347.2656 Q310.875,347.0313 310.875,346.6406 Q310.875,346.2656 311.1563,346.0313 Q311.4219,345.7813 312.0469,345.7969 L314.7188,339.1406 L313.6094,339.1406 Q313,339.1406 312.7344,338.9063 Q312.4688,338.6719 312.4688,338.2813 Q312.4688,337.9063 312.7344,337.6719 Q313,337.4375 313.6094,337.4375 L317.2813,337.4375 L320.6719,345.7969 Q321.2656,345.7969 321.4531,345.9375 Q321.8438,346.2031 321.8438,346.6563 Q321.8438,347.0313 321.5781,347.2656 Q321.3281,347.5 320.7188,347.5 L318.4219,347.5 Q317.8125,347.5 317.5469,347.2656 Q317.2813,347.0313 317.2813,346.6406 Q317.2813,346.2656 317.5469,346.0313 Q317.8125,345.7969 318.4219,345.7969 L318.8438,345.7969 L318.4375,344.7656 Z M317.7188,343.0625 L316.3594,339.6875 L314.9844,343.0625 L317.7188,343.0625 Z " fill="#000000"/><text fill="#000000" font-family="sans-serif" font-size="14" font-style="italic" lengthAdjust="spacing" textLength="42" x="336.75" y="348.7285">Option</text><line style="stroke:#181818;stroke-width:0.5;" x1="272.5" x2="410.5" y1="359" y2="359"/><polygon fill="none" points="282.5,368.3047,286.5,372.3047,282.5,376.3047,278.5,372.3047" style="stroke:#B38D22;stroke-width:1.0;"/><text fill="#000000" font-family="sans-serif" font-size="14" lengthAdjust="spacing" textLength="22" x="291.5" y="377.5332">title</text><line style="stroke:#181818;stroke-width:0.5;" x1="272.5" x2="410.5" y1="384.6094" y2="384.6094"/><text fill="#000000" font-family="sans-serif" font-size="14" lengthAdjust="spacing" textLength="103" x="277.5" y="403.1426">constructor(title)</text><text fill="#000000" font-family="sans-serif" font-size="14" font-style="italic" lengthAdjust="spacing" textLength="128" x="277.5" y="420.752">interact() &#171;abstract&#187;</text><text fill="#000000" font-family="sans-serif" font-size="14" lengthAdjust="spacing" textLength="102" x="277.5" y="438.3613">showTitle(index)</text><text fill="#000000" font-family="sans-serif" font-size="14" lengthAdjust="spacing" textLength="57" x="277.5" y="455.9707">getTitle()</text></g><!--class QuitOption--><g id="elem_QuitOption"><rect codeLine="12" fill="#DC143C" height="118.4375" id="QuitOption" rx="2.5" ry="2.5" style="stroke:#181818;stroke-width:0.5;" width="100" x="370.5" y="541"/><ellipse cx="385.5" cy="557" fill="#ADD1B2" rx="11" ry="11" style="stroke:#181818;stroke-width:1.0;"/><path d="M388.2656,552.875 Q388.4219,552.6563 388.6094,552.5469 Q388.7969,552.4375 389.0156,552.4375 Q389.3906,552.4375 389.625,552.7031 Q389.8594,552.9531 389.8594,553.5625 L389.8594,555.0156 Q389.8594,555.625 389.625,555.8906 Q389.3906,556.1563 389.0156,556.1563 Q388.6719,556.1563 388.4688,555.9531 Q388.2656,555.7656 388.1563,555.25 Q388.1094,554.8906 387.9219,554.7031 Q387.5938,554.3281 386.9844,554.1094 Q386.375,553.8906 385.75,553.8906 Q384.9844,553.8906 384.3438,554.2188 Q383.7188,554.5469 383.2188,555.2969 Q382.7344,556.0469 382.7344,557.0781 L382.7344,558.1719 Q382.7344,559.4063 383.625,560.2344 Q384.5156,561.0469 386.1094,561.0469 Q387.0469,561.0469 387.7031,560.7969 Q388.0938,560.6406 388.5156,560.2031 Q388.7813,559.9375 388.9219,559.8594 Q389.0781,559.7813 389.2813,559.7813 Q389.6094,559.7813 389.8594,560.0469 Q390.125,560.2969 390.125,560.6406 Q390.125,560.9844 389.7813,561.3906 Q389.2813,561.9688 388.4844,562.2969 Q387.4063,562.75 386.1094,562.75 Q384.5938,562.75 383.3906,562.125 Q382.4063,561.625 381.7188,560.5625 Q381.0313,559.4844 381.0313,558.2031 L381.0313,557.0469 Q381.0313,555.7188 381.6406,554.5781 Q382.2656,553.4219 383.3594,552.8125 Q384.4531,552.1875 385.6875,552.1875 Q386.4219,552.1875 387.0625,552.3594 Q387.7188,552.5156 388.2656,552.875 Z " fill="#000000"/><text fill="#000000" font-family="sans-serif" font-size="14" lengthAdjust="spacing" textLength="68" x="399.5" y="562.7285">QuitOption</text><line style="stroke:#181818;stroke-width:0.5;" x1="371.5" x2="469.5" y1="573" y2="573"/><polygon fill="none" points="381.5,582.3047,385.5,586.3047,381.5,590.3047,377.5,586.3047" style="stroke:#B38D22;stroke-width:1.0;"/><text fill="#000000" font-family="sans-serif" font-size="14" lengthAdjust="spacing" textLength="57" x="390.5" y="591.5332">executed</text><line style="stroke:#181818;stroke-width:0.5;" x1="371.5" x2="469.5" y1="598.6094" y2="598.6094"/><text fill="#000000" font-family="sans-serif" font-size="14" lengthAdjust="spacing" textLength="81" x="376.5" y="617.1426">constructor()</text><text fill="#000000" font-family="sans-serif" font-size="14" lengthAdjust="spacing" textLength="57" x="376.5" y="634.752">interact()</text><text fill="#000000" font-family="sans-serif" font-size="14" lengthAdjust="spacing" textLength="78" x="376.5" y="652.3613">isExecuted()</text></g><!--class Menu--><g id="elem_Menu"><rect codeLine="19" fill="#DC143C" height="259.3125" id="Menu" rx="2.5" ry="2.5" style="stroke:#181818;stroke-width:0.5;" width="180" x="365.5" y="7"/><ellipse cx="433.25" cy="23" fill="#A9DCDF" rx="11" ry="11" style="stroke:#181818;stroke-width:1.0;"/><path d="M435.4375,24.7656 L431.2969,24.7656 L430.875,25.7969 L431.2969,25.7969 Q431.9063,25.7969 432.1719,26.0313 Q432.4375,26.2656 432.4375,26.6563 Q432.4375,27.0313 432.1719,27.2656 Q431.9063,27.5 431.2969,27.5 L429,27.5 Q428.3906,27.5 428.1406,27.2656 Q427.875,27.0313 427.875,26.6406 Q427.875,26.2656 428.1563,26.0313 Q428.4219,25.7813 429.0469,25.7969 L431.7188,19.1406 L430.6094,19.1406 Q430,19.1406 429.7344,18.9063 Q429.4688,18.6719 429.4688,18.2813 Q429.4688,17.9063 429.7344,17.6719 Q430,17.4375 430.6094,17.4375 L434.2813,17.4375 L437.6719,25.7969 Q438.2656,25.7969 438.4531,25.9375 Q438.8438,26.2031 438.8438,26.6563 Q438.8438,27.0313 438.5781,27.2656 Q438.3281,27.5 437.7188,27.5 L435.4219,27.5 Q434.8125,27.5 434.5469,27.2656 Q434.2813,27.0313 434.2813,26.6406 Q434.2813,26.2656 434.5469,26.0313 Q434.8125,25.7969 435.4219,25.7969 L435.8438,25.7969 L435.4375,24.7656 Z M434.7188,23.0625 L433.3594,19.6875 L431.9844,23.0625 L434.7188,23.0625 Z " fill="#000000"/><text fill="#000000" font-family="sans-serif" font-size="14" font-style="italic" lengthAdjust="spacing" textLength="36" x="453.75" y="28.7285">Menu</text><line style="stroke:#181818;stroke-width:0.5;" x1="366.5" x2="544.5" y1="39" y2="39"/><polygon fill="none" points="376.5,48.3047,380.5,52.3047,376.5,56.3047,372.5,52.3047" style="stroke:#B38D22;stroke-width:1.0;"/><text fill="#000000" font-family="sans-serif" font-size="14" lengthAdjust="spacing" textLength="22" x="385.5" y="57.5332">title</text><polygon fill="none" points="376.5,65.9141,380.5,69.9141,376.5,73.9141,372.5,69.9141" style="stroke:#B38D22;stroke-width:1.0;"/><text fill="#000000" font-family="sans-serif" font-size="14" lengthAdjust="spacing" textLength="46" x="385.5" y="75.1426">options</text><line style="stroke:#181818;stroke-width:0.5;" x1="366.5" x2="544.5" y1="82.2188" y2="82.2188"/><text fill="#000000" font-family="sans-serif" font-size="14" lengthAdjust="spacing" textLength="103" x="385.5" y="100.752">constructor(title)</text><text fill="#000000" font-family="sans-serif" font-size="14" lengthAdjust="spacing" textLength="57" x="385.5" y="118.3613">interact()</text><text fill="#000000" font-family="sans-serif" font-size="14" font-style="italic" lengthAdjust="spacing" textLength="154" x="385.5" y="135.9707">addOptions() &#171;abstract&#187;</text><text fill="#000000" font-family="sans-serif" font-size="14" lengthAdjust="spacing" textLength="65" x="385.5" y="153.5801">interact_()</text><text fill="#000000" font-family="sans-serif" font-size="14" lengthAdjust="spacing" textLength="76" x="385.5" y="171.1895">showTitles()</text><rect fill="#F24D5C" height="6" style="stroke:#C82930;stroke-width:1.0;" width="6" x="373.5" y="181.5703"/><text fill="#000000" font-family="sans-serif" font-size="14" lengthAdjust="spacing" textLength="69" x="385.5" y="188.7988">showTitle()</text><text fill="#000000" font-family="sans-serif" font-size="14" lengthAdjust="spacing" textLength="138" x="385.5" y="206.4082">execChoosedOption()</text><text fill="#000000" font-family="sans-serif" font-size="14" lengthAdjust="spacing" textLength="73" x="385.5" y="224.0176">add(option)</text><text fill="#000000" font-family="sans-serif" font-size="14" lengthAdjust="spacing" textLength="106" x="385.5" y="241.627">removeOptions()</text><text fill="#000000" font-family="sans-serif" font-size="14" lengthAdjust="spacing" textLength="114" x="385.5" y="259.2363">hasOption(option)</text></g><!--class QuitMenu--><g id="elem_QuitMenu"><rect codeLine="34" fill="#DC143C" height="136.0469" id="QuitMenu" rx="2.5" ry="2.5" style="stroke:#181818;stroke-width:0.5;" width="155" x="447" y="327"/><ellipse cx="489.45" cy="343" fill="#A9DCDF" rx="11" ry="11" style="stroke:#181818;stroke-width:1.0;"/><path d="M491.6375,344.7656 L487.4969,344.7656 L487.075,345.7969 L487.4969,345.7969 Q488.1063,345.7969 488.3719,346.0313 Q488.6375,346.2656 488.6375,346.6563 Q488.6375,347.0313 488.3719,347.2656 Q488.1063,347.5 487.4969,347.5 L485.2,347.5 Q484.5906,347.5 484.3406,347.2656 Q484.075,347.0313 484.075,346.6406 Q484.075,346.2656 484.3563,346.0313 Q484.6219,345.7813 485.2469,345.7969 L487.9188,339.1406 L486.8094,339.1406 Q486.2,339.1406 485.9344,338.9063 Q485.6688,338.6719 485.6688,338.2813 Q485.6688,337.9063 485.9344,337.6719 Q486.2,337.4375 486.8094,337.4375 L490.4813,337.4375 L493.8719,345.7969 Q494.4656,345.7969 494.6531,345.9375 Q495.0438,346.2031 495.0438,346.6563 Q495.0438,347.0313 494.7781,347.2656 Q494.5281,347.5 493.9188,347.5 L491.6219,347.5 Q491.0125,347.5 490.7469,347.2656 Q490.4813,347.0313 490.4813,346.6406 Q490.4813,346.2656 490.7469,346.0313 Q491.0125,345.7969 491.6219,345.7969 L492.0438,345.7969 L491.6375,344.7656 Z M490.9188,343.0625 L489.5594,339.6875 L488.1844,343.0625 L490.9188,343.0625 Z " fill="#000000"/><text fill="#000000" font-family="sans-serif" font-size="14" font-style="italic" lengthAdjust="spacing" textLength="62" x="509.55" y="348.7285">QuitMenu</text><line style="stroke:#181818;stroke-width:0.5;" x1="448" x2="601" y1="359" y2="359"/><polygon fill="none" points="458,368.3047,462,372.3047,458,376.3047,454,372.3047" style="stroke:#B38D22;stroke-width:1.0;"/><text fill="#000000" font-family="sans-serif" font-size="14" lengthAdjust="spacing" textLength="69" x="467" y="377.5332">quitOption;</text><line style="stroke:#181818;stroke-width:0.5;" x1="448" x2="601" y1="384.6094" y2="384.6094"/><text fill="#000000" font-family="sans-serif" font-size="14" lengthAdjust="spacing" textLength="103" x="453" y="403.1426">constructor(title)</text><text fill="#000000" font-family="sans-serif" font-size="14" lengthAdjust="spacing" textLength="76" x="453" y="420.752">showTitles()</text><text fill="#000000" font-family="sans-serif" font-size="14" lengthAdjust="spacing" textLength="99" x="453" y="438.3613">addquitOption()</text><text fill="#000000" font-family="sans-serif" font-size="14" lengthAdjust="spacing" textLength="143" x="453" y="455.9707">isExecutedquitOption()</text></g><!--class IterativeMenu--><g id="elem_IterativeMenu"><rect codeLine="42" fill="#DC143C" height="83.2188" id="IterativeMenu" rx="2.5" ry="2.5" style="stroke:#181818;stroke-width:0.5;" width="118" x="588.5" y="558.5"/><ellipse cx="603.5" cy="574.5" fill="#A9DCDF" rx="11" ry="11" style="stroke:#181818;stroke-width:1.0;"/><path d="M605.6875,576.2656 L601.5469,576.2656 L601.125,577.2969 L601.5469,577.2969 Q602.1563,577.2969 602.4219,577.5313 Q602.6875,577.7656 602.6875,578.1563 Q602.6875,578.5313 602.4219,578.7656 Q602.1563,579 601.5469,579 L599.25,579 Q598.6406,579 598.3906,578.7656 Q598.125,578.5313 598.125,578.1406 Q598.125,577.7656 598.4063,577.5313 Q598.6719,577.2813 599.2969,577.2969 L601.9688,570.6406 L600.8594,570.6406 Q600.25,570.6406 599.9844,570.4063 Q599.7188,570.1719 599.7188,569.7813 Q599.7188,569.4063 599.9844,569.1719 Q600.25,568.9375 600.8594,568.9375 L604.5313,568.9375 L607.9219,577.2969 Q608.5156,577.2969 608.7031,577.4375 Q609.0938,577.7031 609.0938,578.1563 Q609.0938,578.5313 608.8281,578.7656 Q608.5781,579 607.9688,579 L605.6719,579 Q605.0625,579 604.7969,578.7656 Q604.5313,578.5313 604.5313,578.1406 Q604.5313,577.7656 604.7969,577.5313 Q605.0625,577.2969 605.6719,577.2969 L606.0938,577.2969 L605.6875,576.2656 Z M604.9688,574.5625 L603.6094,571.1875 L602.2344,574.5625 L604.9688,574.5625 Z " fill="#000000"/><text fill="#000000" font-family="sans-serif" font-size="14" font-style="italic" lengthAdjust="spacing" textLength="86" x="617.5" y="580.2285">IterativeMenu</text><line style="stroke:#181818;stroke-width:0.5;" x1="589.5" x2="705.5" y1="590.5" y2="590.5"/><line style="stroke:#181818;stroke-width:0.5;" x1="589.5" x2="705.5" y1="598.5" y2="598.5"/><text fill="#000000" font-family="sans-serif" font-size="14" lengthAdjust="spacing" textLength="103" x="594.5" y="617.0332">constructor(title)</text><text fill="#000000" font-family="sans-serif" font-size="14" lengthAdjust="spacing" textLength="57" x="594.5" y="634.6426">interact()</text></g><!--class Model--><g id="elem_Model"><rect codeLine="47" fill="#008B8B" height="153.6563" id="Model" rx="2.5" ry="2.5" style="stroke:#181818;stroke-width:0.5;" width="102" x="548.5" y="1026"/><ellipse cx="577.9" cy="1042" fill="#ADD1B2" rx="11" ry="11" style="stroke:#181818;stroke-width:1.0;"/><path d="M580.6656,1037.875 Q580.8219,1037.6563 581.0094,1037.5469 Q581.1969,1037.4375 581.4156,1037.4375 Q581.7906,1037.4375 582.025,1037.7031 Q582.2594,1037.9531 582.2594,1038.5625 L582.2594,1040.0156 Q582.2594,1040.625 582.025,1040.8906 Q581.7906,1041.1563 581.4156,1041.1563 Q581.0719,1041.1563 580.8688,1040.9531 Q580.6656,1040.7656 580.5563,1040.25 Q580.5094,1039.8906 580.3219,1039.7031 Q579.9938,1039.3281 579.3844,1039.1094 Q578.775,1038.8906 578.15,1038.8906 Q577.3844,1038.8906 576.7438,1039.2188 Q576.1188,1039.5469 575.6188,1040.2969 Q575.1344,1041.0469 575.1344,1042.0781 L575.1344,1043.1719 Q575.1344,1044.4063 576.025,1045.2344 Q576.9156,1046.0469 578.5094,1046.0469 Q579.4469,1046.0469 580.1031,1045.7969 Q580.4938,1045.6406 580.9156,1045.2031 Q581.1813,1044.9375 581.3219,1044.8594 Q581.4781,1044.7813 581.6813,1044.7813 Q582.0094,1044.7813 582.2594,1045.0469 Q582.525,1045.2969 582.525,1045.6406 Q582.525,1045.9844 582.1813,1046.3906 Q581.6813,1046.9688 580.8844,1047.2969 Q579.8063,1047.75 578.5094,1047.75 Q576.9938,1047.75 575.7906,1047.125 Q574.8063,1046.625 574.1188,1045.5625 Q573.4313,1044.4844 573.4313,1043.2031 L573.4313,1042.0469 Q573.4313,1040.7188 574.0406,1039.5781 Q574.6656,1038.4219 575.7594,1037.8125 Q576.8531,1037.1875 578.0875,1037.1875 Q578.8219,1037.1875 579.4625,1037.3594 Q580.1188,1037.5156 580.6656,1037.875 Z " fill="#000000"/><text fill="#000000" font-family="sans-serif" font-size="14" lengthAdjust="spacing" textLength="38" x="595.1" y="1047.7285">Model</text><line style="stroke:#181818;stroke-width:0.5;" x1="549.5" x2="649.5" y1="1058" y2="1058"/><polygon fill="none" points="559.5,1067.3047,563.5,1071.3047,559.5,1075.3047,555.5,1071.3047" style="stroke:#B38D22;stroke-width:1.0;"/><text fill="#000000" font-family="sans-serif" font-size="14" lengthAdjust="spacing" textLength="42" x="568.5" y="1076.5332">strings</text><line style="stroke:#181818;stroke-width:0.5;" x1="549.5" x2="649.5" y1="1083.6094" y2="1083.6094"/><text fill="#000000" font-family="sans-serif" font-size="14" lengthAdjust="spacing" textLength="81" x="554.5" y="1102.1426">constructor()</text><text fill="#000000" font-family="sans-serif" font-size="14" lengthAdjust="spacing" textLength="69" x="554.5" y="1119.752">add(string)</text><text fill="#000000" font-family="sans-serif" font-size="14" lengthAdjust="spacing" textLength="90" x="554.5" y="1137.3613">remove(index)</text><text fill="#000000" font-family="sans-serif" font-size="14" lengthAdjust="spacing" textLength="63" x="554.5" y="1154.9707">get(index)</text><text fill="#000000" font-family="sans-serif" font-size="14" lengthAdjust="spacing" textLength="34" x="554.5" y="1172.5801">size()</text></g><!--class ModelOption--><g id="elem_ModelOption"><rect codeLine="56" fill="#228B22" height="100.8281" id="ModelOption" rx="2.5" ry="2.5" style="stroke:#181818;stroke-width:0.5;" width="174" x="206.5" y="720"/><ellipse cx="248.95" cy="736" fill="#A9DCDF" rx="11" ry="11" style="stroke:#181818;stroke-width:1.0;"/><path d="M251.1375,737.7656 L246.9969,737.7656 L246.575,738.7969 L246.9969,738.7969 Q247.6063,738.7969 247.8719,739.0313 Q248.1375,739.2656 248.1375,739.6563 Q248.1375,740.0313 247.8719,740.2656 Q247.6063,740.5 246.9969,740.5 L244.7,740.5 Q244.0906,740.5 243.8406,740.2656 Q243.575,740.0313 243.575,739.6406 Q243.575,739.2656 243.8563,739.0313 Q244.1219,738.7813 244.7469,738.7969 L247.4188,732.1406 L246.3094,732.1406 Q245.7,732.1406 245.4344,731.9063 Q245.1688,731.6719 245.1688,731.2813 Q245.1688,730.9063 245.4344,730.6719 Q245.7,730.4375 246.3094,730.4375 L249.9813,730.4375 L253.3719,738.7969 Q253.9656,738.7969 254.1531,738.9375 Q254.5438,739.2031 254.5438,739.6563 Q254.5438,740.0313 254.2781,740.2656 Q254.0281,740.5 253.4188,740.5 L251.1219,740.5 Q250.5125,740.5 250.2469,740.2656 Q249.9813,740.0313 249.9813,739.6406 Q249.9813,739.2656 250.2469,739.0313 Q250.5125,738.7969 251.1219,738.7969 L251.5438,738.7969 L251.1375,737.7656 Z M250.4188,736.0625 L249.0594,732.6875 L247.6844,736.0625 L250.4188,736.0625 Z " fill="#000000"/><text fill="#000000" font-family="sans-serif" font-size="14" font-style="italic" lengthAdjust="spacing" textLength="81" x="269.05" y="741.7285">ModelOption</text><line style="stroke:#181818;stroke-width:0.5;" x1="207.5" x2="379.5" y1="752" y2="752"/><text fill="#000000" font-family="sans-serif" font-size="14" lengthAdjust="spacing" textLength="38" x="212.5" y="770.5332">model</text><line style="stroke:#181818;stroke-width:0.5;" x1="207.5" x2="379.5" y1="777.6094" y2="777.6094"/><text fill="#000000" font-family="sans-serif" font-size="14" lengthAdjust="spacing" textLength="162" x="212.5" y="796.1426">constructor(string, model)</text><text fill="#000000" font-family="sans-serif" font-size="14" font-style="italic" lengthAdjust="spacing" textLength="128" x="212.5" y="813.752">interact() &#171;abstract&#187;</text></g><!--class ListModelOption--><g id="elem_ListModelOption"><rect codeLine="64" fill="#228B22" height="83.2188" id="ListModelOption" rx="2.5" ry="2.5" style="stroke:#181818;stroke-width:0.5;" width="135" x="7" y="882"/><ellipse cx="22.45" cy="898" fill="#ADD1B2" rx="11" ry="11" style="stroke:#181818;stroke-width:1.0;"/><path d="M25.2156,893.875 Q25.3719,893.6563 25.5594,893.5469 Q25.7469,893.4375 25.9656,893.4375 Q26.3406,893.4375 26.575,893.7031 Q26.8094,893.9531 26.8094,894.5625 L26.8094,896.0156 Q26.8094,896.625 26.575,896.8906 Q26.3406,897.1563 25.9656,897.1563 Q25.6219,897.1563 25.4188,896.9531 Q25.2156,896.7656 25.1063,896.25 Q25.0594,895.8906 24.8719,895.7031 Q24.5438,895.3281 23.9344,895.1094 Q23.325,894.8906 22.7,894.8906 Q21.9344,894.8906 21.2938,895.2188 Q20.6688,895.5469 20.1688,896.2969 Q19.6844,897.0469 19.6844,898.0781 L19.6844,899.1719 Q19.6844,900.4063 20.575,901.2344 Q21.4656,902.0469 23.0594,902.0469 Q23.9969,902.0469 24.6531,901.7969 Q25.0438,901.6406 25.4656,901.2031 Q25.7313,900.9375 25.8719,900.8594 Q26.0281,900.7813 26.2313,900.7813 Q26.5594,900.7813 26.8094,901.0469 Q27.075,901.2969 27.075,901.6406 Q27.075,901.9844 26.7313,902.3906 Q26.2313,902.9688 25.4344,903.2969 Q24.3563,903.75 23.0594,903.75 Q21.5438,903.75 20.3406,903.125 Q19.3563,902.625 18.6688,901.5625 Q17.9813,900.4844 17.9813,899.2031 L17.9813,898.0469 Q17.9813,896.7188 18.5906,895.5781 Q19.2156,894.4219 20.3094,893.8125 Q21.4031,893.1875 22.6375,893.1875 Q23.3719,893.1875 24.0125,893.3594 Q24.6688,893.5156 25.2156,893.875 Z " fill="#000000"/><text fill="#000000" font-family="sans-serif" font-size="14" lengthAdjust="spacing" textLength="102" x="36.55" y="903.7285">ListModelOption</text><line style="stroke:#181818;stroke-width:0.5;" x1="8" x2="141" y1="914" y2="914"/><line style="stroke:#181818;stroke-width:0.5;" x1="8" x2="141" y1="922" y2="922"/><text fill="#000000" font-family="sans-serif" font-size="14" lengthAdjust="spacing" textLength="123" x="13" y="940.5332">constructor (model)</text><text fill="#000000" font-family="sans-serif" font-size="14" lengthAdjust="spacing" textLength="57" x="13" y="958.1426">interact()</text></g><!--class InverseListModelOption--><g id="elem_InverseListModelOption"><rect codeLine="69" fill="#228B22" height="83.2188" id="InverseListModelOption" rx="2.5" ry="2.5" style="stroke:#181818;stroke-width:0.5;" width="180" x="177.5" y="882"/><ellipse cx="192.5" cy="898" fill="#ADD1B2" rx="11" ry="11" style="stroke:#181818;stroke-width:1.0;"/><path d="M195.2656,893.875 Q195.4219,893.6563 195.6094,893.5469 Q195.7969,893.4375 196.0156,893.4375 Q196.3906,893.4375 196.625,893.7031 Q196.8594,893.9531 196.8594,894.5625 L196.8594,896.0156 Q196.8594,896.625 196.625,896.8906 Q196.3906,897.1563 196.0156,897.1563 Q195.6719,897.1563 195.4688,896.9531 Q195.2656,896.7656 195.1563,896.25 Q195.1094,895.8906 194.9219,895.7031 Q194.5938,895.3281 193.9844,895.1094 Q193.375,894.8906 192.75,894.8906 Q191.9844,894.8906 191.3438,895.2188 Q190.7188,895.5469 190.2188,896.2969 Q189.7344,897.0469 189.7344,898.0781 L189.7344,899.1719 Q189.7344,900.4063 190.625,901.2344 Q191.5156,902.0469 193.1094,902.0469 Q194.0469,902.0469 194.7031,901.7969 Q195.0938,901.6406 195.5156,901.2031 Q195.7813,900.9375 195.9219,900.8594 Q196.0781,900.7813 196.2813,900.7813 Q196.6094,900.7813 196.8594,901.0469 Q197.125,901.2969 197.125,901.6406 Q197.125,901.9844 196.7813,902.3906 Q196.2813,902.9688 195.4844,903.2969 Q194.4063,903.75 193.1094,903.75 Q191.5938,903.75 190.3906,903.125 Q189.4063,902.625 188.7188,901.5625 Q188.0313,900.4844 188.0313,899.2031 L188.0313,898.0469 Q188.0313,896.7188 188.6406,895.5781 Q189.2656,894.4219 190.3594,893.8125 Q191.4531,893.1875 192.6875,893.1875 Q193.4219,893.1875 194.0625,893.3594 Q194.7188,893.5156 195.2656,893.875 Z " fill="#000000"/><text fill="#000000" font-family="sans-serif" font-size="14" lengthAdjust="spacing" textLength="148" x="206.5" y="903.7285">InverseListModelOption</text><line style="stroke:#181818;stroke-width:0.5;" x1="178.5" x2="356.5" y1="914" y2="914"/><line style="stroke:#181818;stroke-width:0.5;" x1="178.5" x2="356.5" y1="922" y2="922"/><text fill="#000000" font-family="sans-serif" font-size="14" lengthAdjust="spacing" textLength="123" x="183.5" y="940.5332">constructor (model)</text><text fill="#000000" font-family="sans-serif" font-size="14" lengthAdjust="spacing" textLength="57" x="183.5" y="958.1426">interact()</text></g><!--class X--><g id="elem_X"><rect codeLine="74" fill="#228B22" height="83.2188" id="X" rx="2.5" ry="2.5" style="stroke:#181818;stroke-width:0.5;" width="131" x="653" y="882"/><ellipse cx="708.25" cy="898" fill="#ADD1B2" rx="11" ry="11" style="stroke:#181818;stroke-width:1.0;"/><path d="M711.0156,893.875 Q711.1719,893.6563 711.3594,893.5469 Q711.5469,893.4375 711.7656,893.4375 Q712.1406,893.4375 712.375,893.7031 Q712.6094,893.9531 712.6094,894.5625 L712.6094,896.0156 Q712.6094,896.625 712.375,896.8906 Q712.1406,897.1563 711.7656,897.1563 Q711.4219,897.1563 711.2188,896.9531 Q711.0156,896.7656 710.9063,896.25 Q710.8594,895.8906 710.6719,895.7031 Q710.3438,895.3281 709.7344,895.1094 Q709.125,894.8906 708.5,894.8906 Q707.7344,894.8906 707.0938,895.2188 Q706.4688,895.5469 705.9688,896.2969 Q705.4844,897.0469 705.4844,898.0781 L705.4844,899.1719 Q705.4844,900.4063 706.375,901.2344 Q707.2656,902.0469 708.8594,902.0469 Q709.7969,902.0469 710.4531,901.7969 Q710.8438,901.6406 711.2656,901.2031 Q711.5313,900.9375 711.6719,900.8594 Q711.8281,900.7813 712.0313,900.7813 Q712.3594,900.7813 712.6094,901.0469 Q712.875,901.2969 712.875,901.6406 Q712.875,901.9844 712.5313,902.3906 Q712.0313,902.9688 711.2344,903.2969 Q710.1563,903.75 708.8594,903.75 Q707.3438,903.75 706.1406,903.125 Q705.1563,902.625 704.4688,901.5625 Q703.7813,900.4844 703.7813,899.2031 L703.7813,898.0469 Q703.7813,896.7188 704.3906,895.5781 Q705.0156,894.4219 706.1094,893.8125 Q707.2031,893.1875 708.4375,893.1875 Q709.1719,893.1875 709.8125,893.3594 Q710.4688,893.5156 711.0156,893.875 Z " fill="#000000"/><text fill="#000000" font-family="sans-serif" font-size="14" lengthAdjust="spacing" textLength="12" x="728.75" y="903.7285">...</text><line style="stroke:#181818;stroke-width:0.5;" x1="654" x2="783" y1="914" y2="914"/><line style="stroke:#181818;stroke-width:0.5;" x1="654" x2="783" y1="922" y2="922"/><text fill="#000000" font-family="sans-serif" font-size="14" lengthAdjust="spacing" textLength="119" x="659" y="940.5332">constructor(model)</text><text fill="#000000" font-family="sans-serif" font-size="14" lengthAdjust="spacing" textLength="57" x="659" y="958.1426">interact()</text></g><!--class ModelMenu--><g id="elem_ModelMenu"><rect codeLine="80" fill="#00FF00" height="100.8281" id="ModelMenu" rx="2.5" ry="2.5" style="stroke:#181818;stroke-width:0.5;" width="131" x="772" y="720"/><ellipse cx="798.7" cy="736" fill="#ADD1B2" rx="11" ry="11" style="stroke:#181818;stroke-width:1.0;"/><path d="M801.4656,731.875 Q801.6219,731.6563 801.8094,731.5469 Q801.9969,731.4375 802.2156,731.4375 Q802.5906,731.4375 802.825,731.7031 Q803.0594,731.9531 803.0594,732.5625 L803.0594,734.0156 Q803.0594,734.625 802.825,734.8906 Q802.5906,735.1563 802.2156,735.1563 Q801.8719,735.1563 801.6688,734.9531 Q801.4656,734.7656 801.3563,734.25 Q801.3094,733.8906 801.1219,733.7031 Q800.7938,733.3281 800.1844,733.1094 Q799.575,732.8906 798.95,732.8906 Q798.1844,732.8906 797.5438,733.2188 Q796.9188,733.5469 796.4188,734.2969 Q795.9344,735.0469 795.9344,736.0781 L795.9344,737.1719 Q795.9344,738.4063 796.825,739.2344 Q797.7156,740.0469 799.3094,740.0469 Q800.2469,740.0469 800.9031,739.7969 Q801.2938,739.6406 801.7156,739.2031 Q801.9813,738.9375 802.1219,738.8594 Q802.2781,738.7813 802.4813,738.7813 Q802.8094,738.7813 803.0594,739.0469 Q803.325,739.2969 803.325,739.6406 Q803.325,739.9844 802.9813,740.3906 Q802.4813,740.9688 801.6844,741.2969 Q800.6063,741.75 799.3094,741.75 Q797.7938,741.75 796.5906,741.125 Q795.6063,740.625 794.9188,739.5625 Q794.2313,738.4844 794.2313,737.2031 L794.2313,736.0469 Q794.2313,734.7188 794.8406,733.5781 Q795.4656,732.4219 796.5594,731.8125 Q797.6531,731.1875 798.8875,731.1875 Q799.6219,731.1875 800.2625,731.3594 Q800.9188,731.5156 801.4656,731.875 Z " fill="#000000"/><text fill="#000000" font-family="sans-serif" font-size="14" lengthAdjust="spacing" textLength="73" x="815.3" y="741.7285">ModelMenu</text><line style="stroke:#181818;stroke-width:0.5;" x1="773" x2="902" y1="752" y2="752"/><polygon fill="none" points="783,761.3047,787,765.3047,783,769.3047,779,765.3047" style="stroke:#B38D22;stroke-width:1.0;"/><text fill="#000000" font-family="sans-serif" font-size="14" lengthAdjust="spacing" textLength="38" x="792" y="770.5332">model</text><line style="stroke:#181818;stroke-width:0.5;" x1="773" x2="902" y1="777.6094" y2="777.6094"/><text fill="#000000" font-family="sans-serif" font-size="14" lengthAdjust="spacing" textLength="119" x="778" y="796.1426">constructor(model)</text><text fill="#000000" font-family="sans-serif" font-size="14" lengthAdjust="spacing" textLength="83" x="778" y="813.752">addOptions()</text></g><!--class ModelQuitMenu--><g id="elem_ModelQuitMenu"><rect codeLine="86" fill="#00FF00" height="100.8281" id="ModelQuitMenu" rx="2.5" ry="2.5" style="stroke:#181818;stroke-width:0.5;" width="131" x="416" y="720"/><ellipse cx="431" cy="736" fill="#ADD1B2" rx="11" ry="11" style="stroke:#181818;stroke-width:1.0;"/><path d="M433.7656,731.875 Q433.9219,731.6563 434.1094,731.5469 Q434.2969,731.4375 434.5156,731.4375 Q434.8906,731.4375 435.125,731.7031 Q435.3594,731.9531 435.3594,732.5625 L435.3594,734.0156 Q435.3594,734.625 435.125,734.8906 Q434.8906,735.1563 434.5156,735.1563 Q434.1719,735.1563 433.9688,734.9531 Q433.7656,734.7656 433.6563,734.25 Q433.6094,733.8906 433.4219,733.7031 Q433.0938,733.3281 432.4844,733.1094 Q431.875,732.8906 431.25,732.8906 Q430.4844,732.8906 429.8438,733.2188 Q429.2188,733.5469 428.7188,734.2969 Q428.2344,735.0469 428.2344,736.0781 L428.2344,737.1719 Q428.2344,738.4063 429.125,739.2344 Q430.0156,740.0469 431.6094,740.0469 Q432.5469,740.0469 433.2031,739.7969 Q433.5938,739.6406 434.0156,739.2031 Q434.2813,738.9375 434.4219,738.8594 Q434.5781,738.7813 434.7813,738.7813 Q435.1094,738.7813 435.3594,739.0469 Q435.625,739.2969 435.625,739.6406 Q435.625,739.9844 435.2813,740.3906 Q434.7813,740.9688 433.9844,741.2969 Q432.9063,741.75 431.6094,741.75 Q430.0938,741.75 428.8906,741.125 Q427.9063,740.625 427.2188,739.5625 Q426.5313,738.4844 426.5313,737.2031 L426.5313,736.0469 Q426.5313,734.7188 427.1406,733.5781 Q427.7656,732.4219 428.8594,731.8125 Q429.9531,731.1875 431.1875,731.1875 Q431.9219,731.1875 432.5625,731.3594 Q433.2188,731.5156 433.7656,731.875 Z " fill="#000000"/><text fill="#000000" font-family="sans-serif" font-size="14" lengthAdjust="spacing" textLength="99" x="445" y="741.7285">ModelQuitMenu</text><line style="stroke:#181818;stroke-width:0.5;" x1="417" x2="546" y1="752" y2="752"/><polygon fill="none" points="427,761.3047,431,765.3047,427,769.3047,423,765.3047" style="stroke:#B38D22;stroke-width:1.0;"/><text fill="#000000" font-family="sans-serif" font-size="14" lengthAdjust="spacing" textLength="38" x="436" y="770.5332">model</text><line style="stroke:#181818;stroke-width:0.5;" x1="417" x2="546" y1="777.6094" y2="777.6094"/><text fill="#000000" font-family="sans-serif" font-size="14" lengthAdjust="spacing" textLength="119" x="422" y="796.1426">constructor(model)</text><text fill="#000000" font-family="sans-serif" font-size="14" lengthAdjust="spacing" textLength="83" x="422" y="813.752">addOptions()</text></g><!--class ModelIterativeMenu--><g id="elem_ModelIterativeMenu"><rect codeLine="92" fill="#00FF00" height="100.8281" id="ModelIterativeMenu" rx="2.5" ry="2.5" style="stroke:#181818;stroke-width:0.5;" width="155" x="582" y="720"/><ellipse cx="597" cy="736" fill="#ADD1B2" rx="11" ry="11" style="stroke:#181818;stroke-width:1.0;"/><path d="M599.7656,731.875 Q599.9219,731.6563 600.1094,731.5469 Q600.2969,731.4375 600.5156,731.4375 Q600.8906,731.4375 601.125,731.7031 Q601.3594,731.9531 601.3594,732.5625 L601.3594,734.0156 Q601.3594,734.625 601.125,734.8906 Q600.8906,735.1563 600.5156,735.1563 Q600.1719,735.1563 599.9688,734.9531 Q599.7656,734.7656 599.6563,734.25 Q599.6094,733.8906 599.4219,733.7031 Q599.0938,733.3281 598.4844,733.1094 Q597.875,732.8906 597.25,732.8906 Q596.4844,732.8906 595.8438,733.2188 Q595.2188,733.5469 594.7188,734.2969 Q594.2344,735.0469 594.2344,736.0781 L594.2344,737.1719 Q594.2344,738.4063 595.125,739.2344 Q596.0156,740.0469 597.6094,740.0469 Q598.5469,740.0469 599.2031,739.7969 Q599.5938,739.6406 600.0156,739.2031 Q600.2813,738.9375 600.4219,738.8594 Q600.5781,738.7813 600.7813,738.7813 Q601.1094,738.7813 601.3594,739.0469 Q601.625,739.2969 601.625,739.6406 Q601.625,739.9844 601.2813,740.3906 Q600.7813,740.9688 599.9844,741.2969 Q598.9063,741.75 597.6094,741.75 Q596.0938,741.75 594.8906,741.125 Q593.9063,740.625 593.2188,739.5625 Q592.5313,738.4844 592.5313,737.2031 L592.5313,736.0469 Q592.5313,734.7188 593.1406,733.5781 Q593.7656,732.4219 594.8594,731.8125 Q595.9531,731.1875 597.1875,731.1875 Q597.9219,731.1875 598.5625,731.3594 Q599.2188,731.5156 599.7656,731.875 Z " fill="#000000"/><text fill="#000000" font-family="sans-serif" font-size="14" lengthAdjust="spacing" textLength="123" x="611" y="741.7285">ModelIterativeMenu</text><line style="stroke:#181818;stroke-width:0.5;" x1="583" x2="736" y1="752" y2="752"/><polygon fill="none" points="593,761.3047,597,765.3047,593,769.3047,589,765.3047" style="stroke:#B38D22;stroke-width:1.0;"/><text fill="#000000" font-family="sans-serif" font-size="14" lengthAdjust="spacing" textLength="38" x="602" y="770.5332">model</text><line style="stroke:#181818;stroke-width:0.5;" x1="583" x2="736" y1="777.6094" y2="777.6094"/><text fill="#000000" font-family="sans-serif" font-size="14" lengthAdjust="spacing" textLength="119" x="588" y="796.1426">constructor(model)</text><text fill="#000000" font-family="sans-serif" font-size="14" lengthAdjust="spacing" textLength="83" x="588" y="813.752">addOptions()</text></g><!--link Menu to Option--><g id="link_Menu_Option"><path codeLine="98" d="M393.4578,277.0964 C384.1278,298.0964 382.1068,302.6271 373.7868,321.3471 " fill="none" id="Menu-Option" style="stroke:#181818;stroke-width:1.0;"/><polygon fill="#181818" points="398.33,266.13,392.2384,269.9891,393.4578,277.0964,399.5494,273.2373,398.33,266.13" style="stroke:#181818;stroke-width:1.0;"/><polygon fill="#181818" points="371.35,326.83,378.6605,320.2302,373.3807,322.2609,371.35,316.9811,371.35,326.83" style="stroke:#181818;stroke-width:1.0;"/><text fill="#000000" font-family="sans-serif" font-size="13" lengthAdjust="spacing" textLength="8" x="366.1773" y="316.0107">+</text></g><!--link Menu to Console--><g id="link_Menu_Console"><path codeLine="99" d="M354.1663,173.1169 C284.9063,202.2069 205.21,248.51 162.5,327 C117.88,409 147.3302,520.6854 164.0002,570.0454 " fill="none" id="Menu-Console" style="stroke:#181818;stroke-width:1.0;"/><polygon fill="#181818" points="365.23,168.47,358.1492,167.1055,354.1663,173.1169,361.2471,174.4814,365.23,168.47" style="stroke:#181818;stroke-width:1.0;"/><polygon fill="#181818" points="165.92,575.73,166.83,565.9233,164.3202,570.9929,159.2506,568.483,165.92,575.73" style="stroke:#181818;stroke-width:1.0;"/><text fill="#000000" font-family="sans-serif" font-size="13" lengthAdjust="spacing" textLength="89" x="163.5" y="400.4951">{static} console</text></g><!--reverse link Menu to ModelMenu--><g id="link_Menu_ModelMenu"><path codeLine="100" d="M557.4806,245.5973 C583.0006,274.8173 597.86,294.37 619.5,327 C708.13,460.64 783.74,635.52 817.95,719.82 " fill="none" id="Menu-backto-ModelMenu" style="stroke:#181818;stroke-width:1.0;"/><polygon fill="none" points="545.64,232.04,552.9615,249.5442,561.9997,241.6504,545.64,232.04" style="stroke:#181818;stroke-width:1.0;"/></g><!--reverse link Menu to QuitMenu--><g id="link_Menu_QuitMenu"><path codeLine="101" d="M494.7766,283.5119 C500.4266,304.5119 501.4,308.11 506.43,326.83 " fill="none" id="Menu-backto-QuitMenu" style="stroke:#181818;stroke-width:1.0;"/><polygon fill="none" points="490.1,266.13,488.9826,285.0707,500.5705,281.953,490.1,266.13" style="stroke:#181818;stroke-width:1.0;"/></g><!--link Option to Console--><g id="link_Option_Console"><path codeLine="103" d="M261.4511,451.3523 C252.4311,457.5723 253.19,457.04 244.5,463 C224.98,476.39 213.99,473.55 200.5,493 C183.22,517.91 177.8869,547.1115 175.9469,569.9915 " fill="none" id="Option-Console" style="stroke:#181818;stroke-width:1.0;"/><polygon fill="#181818" points="271.33,444.54,264.1198,444.6532,261.4511,451.3523,268.6613,451.2391,271.33,444.54" style="stroke:#181818;stroke-width:1.0;"/><polygon fill="#181818" points="175.44,575.97,180.1861,567.3401,175.8624,570.9879,172.2147,566.6642,175.44,575.97" style="stroke:#181818;stroke-width:1.0;"/><text fill="#000000" font-family="sans-serif" font-size="13" lengthAdjust="spacing" textLength="89" x="201.5" y="507.4951">{static} console</text></g><!--reverse link Option to QuitOption--><g id="link_Option_QuitOption"><path codeLine="104" d="M374.1127,479.8066 C383.9027,504.9866 388.43,516.6 397.89,540.89 " fill="none" id="Option-backto-QuitOption" style="stroke:#181818;stroke-width:1.0;"/><polygon fill="none" points="367.59,463.03,368.5206,481.9808,379.7049,477.6323,367.59,463.03" style="stroke:#181818;stroke-width:1.0;"/></g><!--link QuitMenu to QuitOption--><g id="link_QuitMenu_QuitOption"><path codeLine="106" d="M484.6885,473.71 C471.7885,498.89 465.4568,511.2605 453.0068,535.5505 " fill="none" id="QuitMenu-QuitOption" style="stroke:#181818;stroke-width:1.0;"/><polygon fill="#181818" points="490.16,463.03,483.8642,466.5462,484.6885,473.71,490.9843,470.1938,490.16,463.03" style="stroke:#181818;stroke-width:1.0;"/><polygon fill="#181818" points="450.27,540.89,457.9348,534.7053,452.5507,536.4404,450.8155,531.0563,450.27,540.89" style="stroke:#181818;stroke-width:1.0;"/></g><!--reverse link QuitMenu to ModelQuitMenu--><g id="link_QuitMenu_ModelQuitMenu"><path codeLine="107" d="M514.701,481.0918 C506.201,554.9118 494.81,653.85 487.22,719.84 " fill="none" id="QuitMenu-backto-ModelQuitMenu" style="stroke:#181818;stroke-width:1.0;"/><polygon fill="none" points="516.76,463.21,508.7404,480.4055,520.6616,481.7782,516.76,463.21" style="stroke:#181818;stroke-width:1.0;"/></g><!--reverse link QuitMenu to IterativeMenu--><g id="link_QuitMenu_IterativeMenu"><path codeLine="108" d="M574.4462,478.4255 C593.5462,509.9555 606.37,531.12 622.89,558.39 " fill="none" id="QuitMenu-backto-IterativeMenu" style="stroke:#181818;stroke-width:1.0;"/><polygon fill="none" points="565.12,463.03,569.3143,481.5343,579.578,475.3168,565.12,463.03" style="stroke:#181818;stroke-width:1.0;"/></g><!--reverse link IterativeMenu to ModelIterativeMenu--><g id="link_IterativeMenu_ModelIterativeMenu"><path codeLine="110" d="M651.6852,659.7441 C653.3652,683.2141 654.19,694.93 655.96,719.77 " fill="none" id="IterativeMenu-backto-ModelIterativeMenu" style="stroke:#181818;stroke-width:1.0;"/><polygon fill="none" points="650.4,641.79,645.7005,660.1725,657.6699,659.3157,650.4,641.79" style="stroke:#181818;stroke-width:1.0;"/></g><!--link ModelMenu to Model--><g id="link_ModelMenu_Model"><path codeLine="112" d="M838.54,821.08 C837.15,862.65 829.66,921.97 801.5,965 C765.19,1020.49 703.2207,1056.8104 656.3107,1078.6204 " fill="none" id="ModelMenu-to-Model" style="stroke:#181818;stroke-width:1.0;"/><polygon fill="#181818" points="650.87,1081.15,660.7174,1080.9828,655.4039,1079.042,657.3447,1073.7285,650.87,1081.15" style="stroke:#181818;stroke-width:1.0;"/></g><!--link ModelMenu to X--><g id="link_ModelMenu_X"><path codeLine="113" d="M790.7819,830.7846 C775.3419,850.3746 768.9941,858.4377 754.3341,877.0377 " fill="none" id="ModelMenu-X" style="stroke:#181818;stroke-width:1.0;"/><polygon fill="#181818" points="798.21,821.36,791.3544,823.5963,790.7819,830.7846,797.6375,828.5483,798.21,821.36" style="stroke:#181818;stroke-width:1.0;"/><polygon fill="#181818" points="750.62,881.75,759.3326,877.1576,753.7151,877.8231,753.0496,872.2055,750.62,881.75" style="stroke:#181818;stroke-width:1.0;"/></g><!--link ModelQuitMenu to X--><g id="link_ModelQuitMenu_X"><path codeLine="115" d="M557.3202,819.8084 C590.8902,841.1984 616.3698,857.426 649.6598,878.636 " fill="none" id="ModelQuitMenu-X" style="stroke:#181818;stroke-width:1.0;"/><polygon fill="#181818" points="547.2,813.36,550.1107,819.9576,557.3202,819.8084,554.4096,813.2108,547.2,813.36" style="stroke:#181818;stroke-width:1.0;"/><polygon fill="#181818" points="654.72,881.86,649.279,873.6505,650.5032,879.1733,644.9803,880.3975,654.72,881.86" style="stroke:#181818;stroke-width:1.0;"/></g><!--link ModelQuitMenu to Model--><g id="link_ModelQuitMenu_Model"><path codeLine="116" d="M499.29,821.34 C518.67,875.62 547.882,957.4295 570.332,1020.2895 " fill="none" id="ModelQuitMenu-to-Model" style="stroke:#181818;stroke-width:1.0;"/><polygon fill="#181818" points="572.35,1025.94,573.0899,1016.119,570.6683,1021.2313,565.556,1018.8097,572.35,1025.94" style="stroke:#181818;stroke-width:1.0;"/></g><!--link ModelIterativeMenu to Model--><g id="link_ModelIterativeMenu_Model"><path codeLine="118" d="M648.14,821.17 C643.95,840.16 639.3,862.04 635.5,882 C626.42,929.72 618.517,977.592 611.877,1020.052 " fill="none" id="ModelIterativeMenu-to-Model" style="stroke:#181818;stroke-width:1.0;"/><polygon fill="#181818" points="610.95,1025.98,616.2925,1017.7061,611.7225,1021.04,608.3886,1016.4701,610.95,1025.98" style="stroke:#181818;stroke-width:1.0;"/></g><!--link ModelIterativeMenu to X--><g id="link_ModelIterativeMenu_X"><path codeLine="119" d="M683.35,832.536 C691.01,852.126 693.1258,857.5617 700.3958,876.1617 " fill="none" id="ModelIterativeMenu-X" style="stroke:#181818;stroke-width:1.0;"/><polygon fill="#181818" points="678.98,821.36,677.4397,828.4047,683.35,832.536,684.8903,825.4913,678.98,821.36" style="stroke:#181818;stroke-width:1.0;"/><polygon fill="#181818" points="702.58,881.75,703.0292,871.9114,700.7598,877.0931,695.5781,874.8237,702.58,881.75" style="stroke:#181818;stroke-width:1.0;"/></g><!--reverse link Option to ModelOption--><g id="link_Option_ModelOption"><path codeLine="121" d="M330.5673,481.0634 C321.0873,554.8834 308.36,653.85 299.88,719.84 " fill="none" id="Option-backto-ModelOption" style="stroke:#181818;stroke-width:1.0;"/><polygon fill="none" points="332.86,463.21,324.6161,480.2991,336.5184,481.8276,332.86,463.21" style="stroke:#181818;stroke-width:1.0;"/></g><!--link ModelOption to Model--><g id="link_ModelOption_Model"><path codeLine="123" d="M339.64,821.34 C395.74,881.93 486.0439,979.4571 544.3039,1042.3871 " fill="none" id="ModelOption-to-Model" style="stroke:#181818;stroke-width:1.0;"/><polygon fill="#181818" points="548.38,1046.79,545.201,1037.4683,544.9832,1043.1209,539.3306,1042.9031,548.38,1046.79" style="stroke:#181818;stroke-width:1.0;"/></g><!--reverse link ModelOption to ListModelOption--><g id="link_ModelOption_ListModelOption"><path codeLine="124" d="M206.6723,831.3693 C178.1223,851.0593 160.52,863.19 133.41,881.88 " fill="none" id="ModelOption-backto-ListModelOption" style="stroke:#181818;stroke-width:1.0;"/><polygon fill="none" points="221.49,821.15,203.2658,826.4301,210.0787,836.3086,221.49,821.15" style="stroke:#181818;stroke-width:1.0;"/></g><!--reverse link ModelOption to InverseListModelOption--><g id="link_ModelOption_InverseListModelOption"><path codeLine="125" d="M281.8583,839.0994 C278.4883,858.6894 277.72,863.15 274.52,881.75 " fill="none" id="ModelOption-backto-InverseListModelOption" style="stroke:#181818;stroke-width:1.0;"/><polygon fill="none" points="284.91,821.36,275.9452,838.0822,287.7715,840.1166,284.91,821.36" style="stroke:#181818;stroke-width:1.0;"/></g><!--reverse link ModelOption to X--><g id="link_ModelOption_X"><path codeLine="126" d="M397.3289,820.7905 C403.2889,823.3405 392.68,818.72 398.5,821 C484.91,854.9 587.64,885.9 652.95,904.49 " fill="none" id="ModelOption-backto-X" style="stroke:#181818;stroke-width:1.0;"/><polygon fill="none" points="380.78,813.71,394.9688,826.3068,399.6891,815.2742,380.78,813.71" style="stroke:#181818;stroke-width:1.0;"/></g><!--link X to Model--><!--SRC=[hLJBZjCm5DtxAwncamBj1q3LJONGI3D2I2mg8OH2V6TgqSRWwtO6IlyTl-CuRZj2arLo7-USUtoTTjiWqfNeK6o1aEOxAjcqYhOs_l6dugAZLIlv3lNBaL3zL8ehNMnUMzsevBvLGjOsEhNXOy0vKTufC6_rb2uM8RnSsZBSYCVFfglc7OCdr_i0oiMcv4I8q_5fpzKPBV04xLu16ybnQ3sz-yJtljx1P_FUGRU_C6qbh0QyD7f6c3ZHCEPcm98NeU-RRupUe0_CUhTSm4o-sWY1u75zNFFKJgZxbh0J1uZKDhPfqFU4oh4PnlIY8R_YQRoxvCHe0YsiRnqTo20rLdDZx57y02L9ryyYhjATOB2b5MlaZzNl9iwastdtW6Uso5ZgAb9BiwrDFv7_WVA66VgmolT20geF4Y3es9dqI8IZVkEopxvXcZmCVSjHNM5E-6YT49KylEaE815U67LD6wIJ-Nm-eLUWpYEbXsmNXLQtV0VXbCls9cZf7Srs9bw7buCSxhJ3_LzO2_5gniHZDrlIoUk9_tbd2V-dfs_f4PNcRa-MmFpyRU7YhwliBSpYmGP2_Aa_1zgN3a2yF19zZK19DYQ7kgA8SNxWAI53YuSeMMc_D468ZIJng73jgyVQrrbY24KAnruW6nQahBcHoVNpuBwYW9htPjUtN5I-wkLQhO-iwUpBXZC6tLUlZlm3]--></g></svg>