<?xml version="1.0" encoding="us-ascii" standalone="no"?><svg xmlns="http://www.w3.org/2000/svg" xmlns:xlink="http://www.w3.org/1999/xlink" contentStyleType="text/css" height="1365px" preserveAspectRatio="none" style="width:1258px;height:1365px;background:#FFFFFF;" version="1.1" viewBox="0 0 1258 1365" width="1258px" zoomAndPan="magnify"><defs/><g><!--class Console--><g id="elem_Console"><rect codeLine="2" fill="#F1F1F1" height="48" id="Console" rx="2.5" ry="2.5" style="stroke:#181818;stroke-width:0.5;" width="84" x="409.5" y="576"/><ellipse cx="424.5" cy="592" fill="#ADD1B2" rx="11" ry="11" style="stroke:#181818;stroke-width:1.0;"/><path d="M427.2656,587.875 Q427.4219,587.6563 427.6094,587.5469 Q427.7969,587.4375 428.0156,587.4375 Q428.3906,587.4375 428.625,587.7031 Q428.8594,587.9531 428.8594,588.5625 L428.8594,590.0156 Q428.8594,590.625 428.625,590.8906 Q428.3906,591.1563 428.0156,591.1563 Q427.6719,591.1563 427.4688,590.9531 Q427.2656,590.7656 427.1563,590.25 Q427.1094,589.8906 426.9219,589.7031 Q426.5938,589.3281 425.9844,589.1094 Q425.375,588.8906 424.75,588.8906 Q423.9844,588.8906 423.3438,589.2188 Q422.7188,589.5469 422.2188,590.2969 Q421.7344,591.0469 421.7344,592.0781 L421.7344,593.1719 Q421.7344,594.4063 422.625,595.2344 Q423.5156,596.0469 425.1094,596.0469 Q426.0469,596.0469 426.7031,595.7969 Q427.0938,595.6406 427.5156,595.2031 Q427.7813,594.9375 427.9219,594.8594 Q428.0781,594.7813 428.2813,594.7813 Q428.6094,594.7813 428.8594,595.0469 Q429.125,595.2969 429.125,595.6406 Q429.125,595.9844 428.7813,596.3906 Q428.2813,596.9688 427.4844,597.2969 Q426.4063,597.75 425.1094,597.75 Q423.5938,597.75 422.3906,597.125 Q421.4063,596.625 420.7188,595.5625 Q420.0313,594.4844 420.0313,593.2031 L420.0313,592.0469 Q420.0313,590.7188 420.6406,589.5781 Q421.2656,588.4219 422.3594,587.8125 Q423.4531,587.1875 424.6875,587.1875 Q425.4219,587.1875 426.0625,587.3594 Q426.7188,587.5156 427.2656,587.875 Z " fill="#000000"/><text fill="#000000" font-family="sans-serif" font-size="14" lengthAdjust="spacing" textLength="52" x="438.5" y="597.7285">Console</text><line style="stroke:#181818;stroke-width:0.5;" x1="410.5" x2="492.5" y1="608" y2="608"/><line style="stroke:#181818;stroke-width:0.5;" x1="410.5" x2="492.5" y1="616" y2="616"/></g><!--class Option--><g id="elem_Option"><rect codeLine="4" fill="#DC143C" height="136.0469" id="Option" rx="2.5" ry="2.5" style="stroke:#181818;stroke-width:0.5;" width="140" x="553.5" y="327"/><ellipse cx="598.25" cy="343" fill="#A9DCDF" rx="11" ry="11" style="stroke:#181818;stroke-width:1.0;"/><path d="M600.4375,344.7656 L596.2969,344.7656 L595.875,345.7969 L596.2969,345.7969 Q596.9063,345.7969 597.1719,346.0313 Q597.4375,346.2656 597.4375,346.6563 Q597.4375,347.0313 597.1719,347.2656 Q596.9063,347.5 596.2969,347.5 L594,347.5 Q593.3906,347.5 593.1406,347.2656 Q592.875,347.0313 592.875,346.6406 Q592.875,346.2656 593.1563,346.0313 Q593.4219,345.7813 594.0469,345.7969 L596.7188,339.1406 L595.6094,339.1406 Q595,339.1406 594.7344,338.9063 Q594.4688,338.6719 594.4688,338.2813 Q594.4688,337.9063 594.7344,337.6719 Q595,337.4375 595.6094,337.4375 L599.2813,337.4375 L602.6719,345.7969 Q603.2656,345.7969 603.4531,345.9375 Q603.8438,346.2031 603.8438,346.6563 Q603.8438,347.0313 603.5781,347.2656 Q603.3281,347.5 602.7188,347.5 L600.4219,347.5 Q599.8125,347.5 599.5469,347.2656 Q599.2813,347.0313 599.2813,346.6406 Q599.2813,346.2656 599.5469,346.0313 Q599.8125,345.7969 600.4219,345.7969 L600.8438,345.7969 L600.4375,344.7656 Z M599.7188,343.0625 L598.3594,339.6875 L596.9844,343.0625 L599.7188,343.0625 Z " fill="#000000"/><text fill="#000000" font-family="sans-serif" font-size="14" font-style="italic" lengthAdjust="spacing" textLength="42" x="618.75" y="348.7285">Option</text><line style="stroke:#181818;stroke-width:0.5;" x1="554.5" x2="692.5" y1="359" y2="359"/><polygon fill="none" points="564.5,368.3047,568.5,372.3047,564.5,376.3047,560.5,372.3047" style="stroke:#B38D22;stroke-width:1.0;"/><text fill="#000000" font-family="sans-serif" font-size="14" lengthAdjust="spacing" textLength="22" x="573.5" y="377.5332">title</text><line style="stroke:#181818;stroke-width:0.5;" x1="554.5" x2="692.5" y1="384.6094" y2="384.6094"/><text fill="#000000" font-family="sans-serif" font-size="14" lengthAdjust="spacing" textLength="103" x="559.5" y="403.1426">constructor(title)</text><text fill="#000000" font-family="sans-serif" font-size="14" font-style="italic" lengthAdjust="spacing" textLength="128" x="559.5" y="420.752">interact() &#171;abstract&#187;</text><text fill="#000000" font-family="sans-serif" font-size="14" lengthAdjust="spacing" textLength="102" x="559.5" y="438.3613">showTitle(index)</text><text fill="#000000" font-family="sans-serif" font-size="14" lengthAdjust="spacing" textLength="57" x="559.5" y="455.9707">getTitle()</text></g><!--class QuitOption--><g id="elem_QuitOption"><rect codeLine="12" fill="#DC143C" height="118.4375" id="QuitOption" rx="2.5" ry="2.5" style="stroke:#181818;stroke-width:0.5;" width="100" x="647.5" y="541"/><ellipse cx="662.5" cy="557" fill="#ADD1B2" rx="11" ry="11" style="stroke:#181818;stroke-width:1.0;"/><path d="M665.2656,552.875 Q665.4219,552.6563 665.6094,552.5469 Q665.7969,552.4375 666.0156,552.4375 Q666.3906,552.4375 666.625,552.7031 Q666.8594,552.9531 666.8594,553.5625 L666.8594,555.0156 Q666.8594,555.625 666.625,555.8906 Q666.3906,556.1563 666.0156,556.1563 Q665.6719,556.1563 665.4688,555.9531 Q665.2656,555.7656 665.1563,555.25 Q665.1094,554.8906 664.9219,554.7031 Q664.5938,554.3281 663.9844,554.1094 Q663.375,553.8906 662.75,553.8906 Q661.9844,553.8906 661.3438,554.2188 Q660.7188,554.5469 660.2188,555.2969 Q659.7344,556.0469 659.7344,557.0781 L659.7344,558.1719 Q659.7344,559.4063 660.625,560.2344 Q661.5156,561.0469 663.1094,561.0469 Q664.0469,561.0469 664.7031,560.7969 Q665.0938,560.6406 665.5156,560.2031 Q665.7813,559.9375 665.9219,559.8594 Q666.0781,559.7813 666.2813,559.7813 Q666.6094,559.7813 666.8594,560.0469 Q667.125,560.2969 667.125,560.6406 Q667.125,560.9844 666.7813,561.3906 Q666.2813,561.9688 665.4844,562.2969 Q664.4063,562.75 663.1094,562.75 Q661.5938,562.75 660.3906,562.125 Q659.4063,561.625 658.7188,560.5625 Q658.0313,559.4844 658.0313,558.2031 L658.0313,557.0469 Q658.0313,555.7188 658.6406,554.5781 Q659.2656,553.4219 660.3594,552.8125 Q661.4531,552.1875 662.6875,552.1875 Q663.4219,552.1875 664.0625,552.3594 Q664.7188,552.5156 665.2656,552.875 Z " fill="#000000"/><text fill="#000000" font-family="sans-serif" font-size="14" lengthAdjust="spacing" textLength="68" x="676.5" y="562.7285">QuitOption</text><line style="stroke:#181818;stroke-width:0.5;" x1="648.5" x2="746.5" y1="573" y2="573"/><polygon fill="none" points="658.5,582.3047,662.5,586.3047,658.5,590.3047,654.5,586.3047" style="stroke:#B38D22;stroke-width:1.0;"/><text fill="#000000" font-family="sans-serif" font-size="14" lengthAdjust="spacing" textLength="57" x="667.5" y="591.5332">executed</text><line style="stroke:#181818;stroke-width:0.5;" x1="648.5" x2="746.5" y1="598.6094" y2="598.6094"/><text fill="#000000" font-family="sans-serif" font-size="14" lengthAdjust="spacing" textLength="81" x="653.5" y="617.1426">constructor()</text><text fill="#000000" font-family="sans-serif" font-size="14" lengthAdjust="spacing" textLength="57" x="653.5" y="634.752">interact()</text><text fill="#000000" font-family="sans-serif" font-size="14" lengthAdjust="spacing" textLength="78" x="653.5" y="652.3613">isExecuted()</text></g><!--class Menu--><g id="elem_Menu"><rect codeLine="19" fill="#DC143C" height="259.3125" id="Menu" rx="2.5" ry="2.5" style="stroke:#181818;stroke-width:0.5;" width="180" x="657.5" y="7"/><ellipse cx="725.25" cy="23" fill="#A9DCDF" rx="11" ry="11" style="stroke:#181818;stroke-width:1.0;"/><path d="M727.4375,24.7656 L723.2969,24.7656 L722.875,25.7969 L723.2969,25.7969 Q723.9063,25.7969 724.1719,26.0313 Q724.4375,26.2656 724.4375,26.6563 Q724.4375,27.0313 724.1719,27.2656 Q723.9063,27.5 723.2969,27.5 L721,27.5 Q720.3906,27.5 720.1406,27.2656 Q719.875,27.0313 719.875,26.6406 Q719.875,26.2656 720.1563,26.0313 Q720.4219,25.7813 721.0469,25.7969 L723.7188,19.1406 L722.6094,19.1406 Q722,19.1406 721.7344,18.9063 Q721.4688,18.6719 721.4688,18.2813 Q721.4688,17.9063 721.7344,17.6719 Q722,17.4375 722.6094,17.4375 L726.2813,17.4375 L729.6719,25.7969 Q730.2656,25.7969 730.4531,25.9375 Q730.8438,26.2031 730.8438,26.6563 Q730.8438,27.0313 730.5781,27.2656 Q730.3281,27.5 729.7188,27.5 L727.4219,27.5 Q726.8125,27.5 726.5469,27.2656 Q726.2813,27.0313 726.2813,26.6406 Q726.2813,26.2656 726.5469,26.0313 Q726.8125,25.7969 727.4219,25.7969 L727.8438,25.7969 L727.4375,24.7656 Z M726.7188,23.0625 L725.3594,19.6875 L723.9844,23.0625 L726.7188,23.0625 Z " fill="#000000"/><text fill="#000000" font-family="sans-serif" font-size="14" font-style="italic" lengthAdjust="spacing" textLength="36" x="745.75" y="28.7285">Menu</text><line style="stroke:#181818;stroke-width:0.5;" x1="658.5" x2="836.5" y1="39" y2="39"/><polygon fill="none" points="668.5,48.3047,672.5,52.3047,668.5,56.3047,664.5,52.3047" style="stroke:#B38D22;stroke-width:1.0;"/><text fill="#000000" font-family="sans-serif" font-size="14" lengthAdjust="spacing" textLength="22" x="677.5" y="57.5332">title</text><polygon fill="none" points="668.5,65.9141,672.5,69.9141,668.5,73.9141,664.5,69.9141" style="stroke:#B38D22;stroke-width:1.0;"/><text fill="#000000" font-family="sans-serif" font-size="14" lengthAdjust="spacing" textLength="46" x="677.5" y="75.1426">options</text><line style="stroke:#181818;stroke-width:0.5;" x1="658.5" x2="836.5" y1="82.2188" y2="82.2188"/><text fill="#000000" font-family="sans-serif" font-size="14" lengthAdjust="spacing" textLength="103" x="677.5" y="100.752">constructor(title)</text><text fill="#000000" font-family="sans-serif" font-size="14" lengthAdjust="spacing" textLength="57" x="677.5" y="118.3613">interact()</text><text fill="#000000" font-family="sans-serif" font-size="14" font-style="italic" lengthAdjust="spacing" textLength="154" x="677.5" y="135.9707">addOptions() &#171;abstract&#187;</text><text fill="#000000" font-family="sans-serif" font-size="14" lengthAdjust="spacing" textLength="65" x="677.5" y="153.5801">interact_()</text><text fill="#000000" font-family="sans-serif" font-size="14" lengthAdjust="spacing" textLength="76" x="677.5" y="171.1895">showTitles()</text><rect fill="#F24D5C" height="6" style="stroke:#C82930;stroke-width:1.0;" width="6" x="665.5" y="181.5703"/><text fill="#000000" font-family="sans-serif" font-size="14" lengthAdjust="spacing" textLength="69" x="677.5" y="188.7988">showTitle()</text><text fill="#000000" font-family="sans-serif" font-size="14" lengthAdjust="spacing" textLength="138" x="677.5" y="206.4082">execChoosedOption()</text><text fill="#000000" font-family="sans-serif" font-size="14" lengthAdjust="spacing" textLength="73" x="677.5" y="224.0176">add(option)</text><text fill="#000000" font-family="sans-serif" font-size="14" lengthAdjust="spacing" textLength="106" x="677.5" y="241.627">removeOptions()</text><text fill="#000000" font-family="sans-serif" font-size="14" lengthAdjust="spacing" textLength="114" x="677.5" y="259.2363">hasOption(option)</text></g><!--class QuitMenu--><g id="elem_QuitMenu"><rect codeLine="34" fill="#DC143C" height="136.0469" id="QuitMenu" rx="2.5" ry="2.5" style="stroke:#181818;stroke-width:0.5;" width="155" x="749" y="327"/><ellipse cx="791.45" cy="343" fill="#A9DCDF" rx="11" ry="11" style="stroke:#181818;stroke-width:1.0;"/><path d="M793.6375,344.7656 L789.4969,344.7656 L789.075,345.7969 L789.4969,345.7969 Q790.1063,345.7969 790.3719,346.0313 Q790.6375,346.2656 790.6375,346.6563 Q790.6375,347.0313 790.3719,347.2656 Q790.1063,347.5 789.4969,347.5 L787.2,347.5 Q786.5906,347.5 786.3406,347.2656 Q786.075,347.0313 786.075,346.6406 Q786.075,346.2656 786.3563,346.0313 Q786.6219,345.7813 787.2469,345.7969 L789.9188,339.1406 L788.8094,339.1406 Q788.2,339.1406 787.9344,338.9063 Q787.6688,338.6719 787.6688,338.2813 Q787.6688,337.9063 787.9344,337.6719 Q788.2,337.4375 788.8094,337.4375 L792.4813,337.4375 L795.8719,345.7969 Q796.4656,345.7969 796.6531,345.9375 Q797.0438,346.2031 797.0438,346.6563 Q797.0438,347.0313 796.7781,347.2656 Q796.5281,347.5 795.9188,347.5 L793.6219,347.5 Q793.0125,347.5 792.7469,347.2656 Q792.4813,347.0313 792.4813,346.6406 Q792.4813,346.2656 792.7469,346.0313 Q793.0125,345.7969 793.6219,345.7969 L794.0438,345.7969 L793.6375,344.7656 Z M792.9188,343.0625 L791.5594,339.6875 L790.1844,343.0625 L792.9188,343.0625 Z " fill="#000000"/><text fill="#000000" font-family="sans-serif" font-size="14" font-style="italic" lengthAdjust="spacing" textLength="62" x="811.55" y="348.7285">QuitMenu</text><line style="stroke:#181818;stroke-width:0.5;" x1="750" x2="903" y1="359" y2="359"/><polygon fill="none" points="760,368.3047,764,372.3047,760,376.3047,756,372.3047" style="stroke:#B38D22;stroke-width:1.0;"/><text fill="#000000" font-family="sans-serif" font-size="14" lengthAdjust="spacing" textLength="69" x="769" y="377.5332">quitOption;</text><line style="stroke:#181818;stroke-width:0.5;" x1="750" x2="903" y1="384.6094" y2="384.6094"/><text fill="#000000" font-family="sans-serif" font-size="14" lengthAdjust="spacing" textLength="103" x="755" y="403.1426">constructor(title)</text><text fill="#000000" font-family="sans-serif" font-size="14" lengthAdjust="spacing" textLength="76" x="755" y="420.752">showTitles()</text><text fill="#000000" font-family="sans-serif" font-size="14" lengthAdjust="spacing" textLength="99" x="755" y="438.3613">addquitOption()</text><text fill="#000000" font-family="sans-serif" font-size="14" lengthAdjust="spacing" textLength="143" x="755" y="455.9707">isExecutedquitOption()</text></g><!--class IterativeMenu--><g id="elem_IterativeMenu"><rect codeLine="42" fill="#DC143C" height="83.2188" id="IterativeMenu" rx="2.5" ry="2.5" style="stroke:#181818;stroke-width:0.5;" width="118" x="782.5" y="558.5"/><ellipse cx="797.5" cy="574.5" fill="#A9DCDF" rx="11" ry="11" style="stroke:#181818;stroke-width:1.0;"/><path d="M799.6875,576.2656 L795.5469,576.2656 L795.125,577.2969 L795.5469,577.2969 Q796.1563,577.2969 796.4219,577.5313 Q796.6875,577.7656 796.6875,578.1563 Q796.6875,578.5313 796.4219,578.7656 Q796.1563,579 795.5469,579 L793.25,579 Q792.6406,579 792.3906,578.7656 Q792.125,578.5313 792.125,578.1406 Q792.125,577.7656 792.4063,577.5313 Q792.6719,577.2813 793.2969,577.2969 L795.9688,570.6406 L794.8594,570.6406 Q794.25,570.6406 793.9844,570.4063 Q793.7188,570.1719 793.7188,569.7813 Q793.7188,569.4063 793.9844,569.1719 Q794.25,568.9375 794.8594,568.9375 L798.5313,568.9375 L801.9219,577.2969 Q802.5156,577.2969 802.7031,577.4375 Q803.0938,577.7031 803.0938,578.1563 Q803.0938,578.5313 802.8281,578.7656 Q802.5781,579 801.9688,579 L799.6719,579 Q799.0625,579 798.7969,578.7656 Q798.5313,578.5313 798.5313,578.1406 Q798.5313,577.7656 798.7969,577.5313 Q799.0625,577.2969 799.6719,577.2969 L800.0938,577.2969 L799.6875,576.2656 Z M798.9688,574.5625 L797.6094,571.1875 L796.2344,574.5625 L798.9688,574.5625 Z " fill="#000000"/><text fill="#000000" font-family="sans-serif" font-size="14" font-style="italic" lengthAdjust="spacing" textLength="86" x="811.5" y="580.2285">IterativeMenu</text><line style="stroke:#181818;stroke-width:0.5;" x1="783.5" x2="899.5" y1="590.5" y2="590.5"/><line style="stroke:#181818;stroke-width:0.5;" x1="783.5" x2="899.5" y1="598.5" y2="598.5"/><text fill="#000000" font-family="sans-serif" font-size="14" lengthAdjust="spacing" textLength="103" x="788.5" y="617.0332">constructor(title)</text><text fill="#000000" font-family="sans-serif" font-size="14" lengthAdjust="spacing" textLength="57" x="788.5" y="634.6426">interact()</text></g><!--class DynamicMenu--><g id="elem_DynamicMenu"><rect codeLine="47" fill="#DC143C" height="83.2188" id="DynamicMenu" rx="2.5" ry="2.5" style="stroke:#181818;stroke-width:0.5;" width="122" x="657.5" y="720"/><ellipse cx="672.5" cy="736" fill="#A9DCDF" rx="11" ry="11" style="stroke:#181818;stroke-width:1.0;"/><path d="M674.6875,737.7656 L670.5469,737.7656 L670.125,738.7969 L670.5469,738.7969 Q671.1563,738.7969 671.4219,739.0313 Q671.6875,739.2656 671.6875,739.6563 Q671.6875,740.0313 671.4219,740.2656 Q671.1563,740.5 670.5469,740.5 L668.25,740.5 Q667.6406,740.5 667.3906,740.2656 Q667.125,740.0313 667.125,739.6406 Q667.125,739.2656 667.4063,739.0313 Q667.6719,738.7813 668.2969,738.7969 L670.9688,732.1406 L669.8594,732.1406 Q669.25,732.1406 668.9844,731.9063 Q668.7188,731.6719 668.7188,731.2813 Q668.7188,730.9063 668.9844,730.6719 Q669.25,730.4375 669.8594,730.4375 L673.5313,730.4375 L676.9219,738.7969 Q677.5156,738.7969 677.7031,738.9375 Q678.0938,739.2031 678.0938,739.6563 Q678.0938,740.0313 677.8281,740.2656 Q677.5781,740.5 676.9688,740.5 L674.6719,740.5 Q674.0625,740.5 673.7969,740.2656 Q673.5313,740.0313 673.5313,739.6406 Q673.5313,739.2656 673.7969,739.0313 Q674.0625,738.7969 674.6719,738.7969 L675.0938,738.7969 L674.6875,737.7656 Z M673.9688,736.0625 L672.6094,732.6875 L671.2344,736.0625 L673.9688,736.0625 Z " fill="#000000"/><text fill="#000000" font-family="sans-serif" font-size="14" font-style="italic" lengthAdjust="spacing" textLength="90" x="686.5" y="741.7285">DynamicMenu</text><line style="stroke:#181818;stroke-width:0.5;" x1="658.5" x2="778.5" y1="752" y2="752"/><line style="stroke:#181818;stroke-width:0.5;" x1="658.5" x2="778.5" y1="760" y2="760"/><text fill="#000000" font-family="sans-serif" font-size="14" lengthAdjust="spacing" textLength="103" x="663.5" y="778.5332">constructor(title)</text><text fill="#000000" font-family="sans-serif" font-size="14" lengthAdjust="spacing" textLength="57" x="663.5" y="796.1426">interact()</text></g><!--class Model--><g id="elem_Model"><rect codeLine="52" fill="#008B8B" height="153.6563" id="Model" rx="2.5" ry="2.5" style="stroke:#181818;stroke-width:0.5;" width="102" x="789.5" y="1205"/><ellipse cx="818.9" cy="1221" fill="#ADD1B2" rx="11" ry="11" style="stroke:#181818;stroke-width:1.0;"/><path d="M821.6656,1216.875 Q821.8219,1216.6563 822.0094,1216.5469 Q822.1969,1216.4375 822.4156,1216.4375 Q822.7906,1216.4375 823.025,1216.7031 Q823.2594,1216.9531 823.2594,1217.5625 L823.2594,1219.0156 Q823.2594,1219.625 823.025,1219.8906 Q822.7906,1220.1563 822.4156,1220.1563 Q822.0719,1220.1563 821.8688,1219.9531 Q821.6656,1219.7656 821.5563,1219.25 Q821.5094,1218.8906 821.3219,1218.7031 Q820.9938,1218.3281 820.3844,1218.1094 Q819.775,1217.8906 819.15,1217.8906 Q818.3844,1217.8906 817.7438,1218.2188 Q817.1188,1218.5469 816.6188,1219.2969 Q816.1344,1220.0469 816.1344,1221.0781 L816.1344,1222.1719 Q816.1344,1223.4063 817.025,1224.2344 Q817.9156,1225.0469 819.5094,1225.0469 Q820.4469,1225.0469 821.1031,1224.7969 Q821.4938,1224.6406 821.9156,1224.2031 Q822.1813,1223.9375 822.3219,1223.8594 Q822.4781,1223.7813 822.6813,1223.7813 Q823.0094,1223.7813 823.2594,1224.0469 Q823.525,1224.2969 823.525,1224.6406 Q823.525,1224.9844 823.1813,1225.3906 Q822.6813,1225.9688 821.8844,1226.2969 Q820.8063,1226.75 819.5094,1226.75 Q817.9938,1226.75 816.7906,1226.125 Q815.8063,1225.625 815.1188,1224.5625 Q814.4313,1223.4844 814.4313,1222.2031 L814.4313,1221.0469 Q814.4313,1219.7188 815.0406,1218.5781 Q815.6656,1217.4219 816.7594,1216.8125 Q817.8531,1216.1875 819.0875,1216.1875 Q819.8219,1216.1875 820.4625,1216.3594 Q821.1188,1216.5156 821.6656,1216.875 Z " fill="#000000"/><text fill="#000000" font-family="sans-serif" font-size="14" lengthAdjust="spacing" textLength="38" x="836.1" y="1226.7285">Model</text><line style="stroke:#181818;stroke-width:0.5;" x1="790.5" x2="890.5" y1="1237" y2="1237"/><polygon fill="none" points="800.5,1246.3047,804.5,1250.3047,800.5,1254.3047,796.5,1250.3047" style="stroke:#B38D22;stroke-width:1.0;"/><text fill="#000000" font-family="sans-serif" font-size="14" lengthAdjust="spacing" textLength="42" x="809.5" y="1255.5332">strings</text><line style="stroke:#181818;stroke-width:0.5;" x1="790.5" x2="890.5" y1="1262.6094" y2="1262.6094"/><text fill="#000000" font-family="sans-serif" font-size="14" lengthAdjust="spacing" textLength="81" x="795.5" y="1281.1426">constructor()</text><text fill="#000000" font-family="sans-serif" font-size="14" lengthAdjust="spacing" textLength="69" x="795.5" y="1298.752">add(string)</text><text fill="#000000" font-family="sans-serif" font-size="14" lengthAdjust="spacing" textLength="90" x="795.5" y="1316.3613">remove(index)</text><text fill="#000000" font-family="sans-serif" font-size="14" lengthAdjust="spacing" textLength="63" x="795.5" y="1333.9707">get(index)</text><text fill="#000000" font-family="sans-serif" font-size="14" lengthAdjust="spacing" textLength="34" x="795.5" y="1351.5801">size()</text></g><!--class ModelOption--><g id="elem_ModelOption"><rect codeLine="61" fill="#228B22" height="100.8281" id="ModelOption" rx="2.5" ry="2.5" style="stroke:#181818;stroke-width:0.5;" width="174" x="360.5" y="864"/><ellipse cx="402.95" cy="880" fill="#A9DCDF" rx="11" ry="11" style="stroke:#181818;stroke-width:1.0;"/><path d="M405.1375,881.7656 L400.9969,881.7656 L400.575,882.7969 L400.9969,882.7969 Q401.6063,882.7969 401.8719,883.0313 Q402.1375,883.2656 402.1375,883.6563 Q402.1375,884.0313 401.8719,884.2656 Q401.6063,884.5 400.9969,884.5 L398.7,884.5 Q398.0906,884.5 397.8406,884.2656 Q397.575,884.0313 397.575,883.6406 Q397.575,883.2656 397.8563,883.0313 Q398.1219,882.7813 398.7469,882.7969 L401.4188,876.1406 L400.3094,876.1406 Q399.7,876.1406 399.4344,875.9063 Q399.1688,875.6719 399.1688,875.2813 Q399.1688,874.9063 399.4344,874.6719 Q399.7,874.4375 400.3094,874.4375 L403.9813,874.4375 L407.3719,882.7969 Q407.9656,882.7969 408.1531,882.9375 Q408.5438,883.2031 408.5438,883.6563 Q408.5438,884.0313 408.2781,884.2656 Q408.0281,884.5 407.4188,884.5 L405.1219,884.5 Q404.5125,884.5 404.2469,884.2656 Q403.9813,884.0313 403.9813,883.6406 Q403.9813,883.2656 404.2469,883.0313 Q404.5125,882.7969 405.1219,882.7969 L405.5438,882.7969 L405.1375,881.7656 Z M404.4188,880.0625 L403.0594,876.6875 L401.6844,880.0625 L404.4188,880.0625 Z " fill="#000000"/><text fill="#000000" font-family="sans-serif" font-size="14" font-style="italic" lengthAdjust="spacing" textLength="81" x="423.05" y="885.7285">ModelOption</text><line style="stroke:#181818;stroke-width:0.5;" x1="361.5" x2="533.5" y1="896" y2="896"/><text fill="#000000" font-family="sans-serif" font-size="14" lengthAdjust="spacing" textLength="38" x="366.5" y="914.5332">model</text><line style="stroke:#181818;stroke-width:0.5;" x1="361.5" x2="533.5" y1="921.6094" y2="921.6094"/><text fill="#000000" font-family="sans-serif" font-size="14" lengthAdjust="spacing" textLength="162" x="366.5" y="940.1426">constructor(string, model)</text><text fill="#000000" font-family="sans-serif" font-size="14" font-style="italic" lengthAdjust="spacing" textLength="128" x="366.5" y="957.752">interact() &#171;abstract&#187;</text></g><!--class ListModelOption--><g id="elem_ListModelOption"><rect codeLine="69" fill="#228B22" height="83.2188" id="ListModelOption" rx="2.5" ry="2.5" style="stroke:#181818;stroke-width:0.5;" width="135" x="7" y="1043.5"/><ellipse cx="22.45" cy="1059.5" fill="#ADD1B2" rx="11" ry="11" style="stroke:#181818;stroke-width:1.0;"/><path d="M25.2156,1055.375 Q25.3719,1055.1563 25.5594,1055.0469 Q25.7469,1054.9375 25.9656,1054.9375 Q26.3406,1054.9375 26.575,1055.2031 Q26.8094,1055.4531 26.8094,1056.0625 L26.8094,1057.5156 Q26.8094,1058.125 26.575,1058.3906 Q26.3406,1058.6563 25.9656,1058.6563 Q25.6219,1058.6563 25.4188,1058.4531 Q25.2156,1058.2656 25.1063,1057.75 Q25.0594,1057.3906 24.8719,1057.2031 Q24.5438,1056.8281 23.9344,1056.6094 Q23.325,1056.3906 22.7,1056.3906 Q21.9344,1056.3906 21.2938,1056.7188 Q20.6688,1057.0469 20.1688,1057.7969 Q19.6844,1058.5469 19.6844,1059.5781 L19.6844,1060.6719 Q19.6844,1061.9063 20.575,1062.7344 Q21.4656,1063.5469 23.0594,1063.5469 Q23.9969,1063.5469 24.6531,1063.2969 Q25.0438,1063.1406 25.4656,1062.7031 Q25.7313,1062.4375 25.8719,1062.3594 Q26.0281,1062.2813 26.2313,1062.2813 Q26.5594,1062.2813 26.8094,1062.5469 Q27.075,1062.7969 27.075,1063.1406 Q27.075,1063.4844 26.7313,1063.8906 Q26.2313,1064.4688 25.4344,1064.7969 Q24.3563,1065.25 23.0594,1065.25 Q21.5438,1065.25 20.3406,1064.625 Q19.3563,1064.125 18.6688,1063.0625 Q17.9813,1061.9844 17.9813,1060.7031 L17.9813,1059.5469 Q17.9813,1058.2188 18.5906,1057.0781 Q19.2156,1055.9219 20.3094,1055.3125 Q21.4031,1054.6875 22.6375,1054.6875 Q23.3719,1054.6875 24.0125,1054.8594 Q24.6688,1055.0156 25.2156,1055.375 Z " fill="#000000"/><text fill="#000000" font-family="sans-serif" font-size="14" lengthAdjust="spacing" textLength="102" x="36.55" y="1065.2285">ListModelOption</text><line style="stroke:#181818;stroke-width:0.5;" x1="8" x2="141" y1="1075.5" y2="1075.5"/><line style="stroke:#181818;stroke-width:0.5;" x1="8" x2="141" y1="1083.5" y2="1083.5"/><text fill="#000000" font-family="sans-serif" font-size="14" lengthAdjust="spacing" textLength="123" x="13" y="1102.0332">constructor (model)</text><text fill="#000000" font-family="sans-serif" font-size="14" lengthAdjust="spacing" textLength="57" x="13" y="1119.6426">interact()</text></g><!--class InverseListModelOption--><g id="elem_InverseListModelOption"><rect codeLine="74" fill="#228B22" height="83.2188" id="InverseListModelOption" rx="2.5" ry="2.5" style="stroke:#181818;stroke-width:0.5;" width="180" x="177.5" y="1043.5"/><ellipse cx="192.5" cy="1059.5" fill="#ADD1B2" rx="11" ry="11" style="stroke:#181818;stroke-width:1.0;"/><path d="M195.2656,1055.375 Q195.4219,1055.1563 195.6094,1055.0469 Q195.7969,1054.9375 196.0156,1054.9375 Q196.3906,1054.9375 196.625,1055.2031 Q196.8594,1055.4531 196.8594,1056.0625 L196.8594,1057.5156 Q196.8594,1058.125 196.625,1058.3906 Q196.3906,1058.6563 196.0156,1058.6563 Q195.6719,1058.6563 195.4688,1058.4531 Q195.2656,1058.2656 195.1563,1057.75 Q195.1094,1057.3906 194.9219,1057.2031 Q194.5938,1056.8281 193.9844,1056.6094 Q193.375,1056.3906 192.75,1056.3906 Q191.9844,1056.3906 191.3438,1056.7188 Q190.7188,1057.0469 190.2188,1057.7969 Q189.7344,1058.5469 189.7344,1059.5781 L189.7344,1060.6719 Q189.7344,1061.9063 190.625,1062.7344 Q191.5156,1063.5469 193.1094,1063.5469 Q194.0469,1063.5469 194.7031,1063.2969 Q195.0938,1063.1406 195.5156,1062.7031 Q195.7813,1062.4375 195.9219,1062.3594 Q196.0781,1062.2813 196.2813,1062.2813 Q196.6094,1062.2813 196.8594,1062.5469 Q197.125,1062.7969 197.125,1063.1406 Q197.125,1063.4844 196.7813,1063.8906 Q196.2813,1064.4688 195.4844,1064.7969 Q194.4063,1065.25 193.1094,1065.25 Q191.5938,1065.25 190.3906,1064.625 Q189.4063,1064.125 188.7188,1063.0625 Q188.0313,1061.9844 188.0313,1060.7031 L188.0313,1059.5469 Q188.0313,1058.2188 188.6406,1057.0781 Q189.2656,1055.9219 190.3594,1055.3125 Q191.4531,1054.6875 192.6875,1054.6875 Q193.4219,1054.6875 194.0625,1054.8594 Q194.7188,1055.0156 195.2656,1055.375 Z " fill="#000000"/><text fill="#000000" font-family="sans-serif" font-size="14" lengthAdjust="spacing" textLength="148" x="206.5" y="1065.2285">InverseListModelOption</text><line style="stroke:#181818;stroke-width:0.5;" x1="178.5" x2="356.5" y1="1075.5" y2="1075.5"/><line style="stroke:#181818;stroke-width:0.5;" x1="178.5" x2="356.5" y1="1083.5" y2="1083.5"/><text fill="#000000" font-family="sans-serif" font-size="14" lengthAdjust="spacing" textLength="123" x="183.5" y="1102.0332">constructor (model)</text><text fill="#000000" font-family="sans-serif" font-size="14" lengthAdjust="spacing" textLength="57" x="183.5" y="1119.6426">interact()</text></g><!--class RemoveModelOption--><g id="elem_RemoveModelOption"><rect codeLine="79" fill="#228B22" height="118.4375" id="RemoveModelOption" rx="2.5" ry="2.5" style="stroke:#181818;stroke-width:0.5;" width="172" x="392.5" y="1026"/><ellipse cx="411.1" cy="1042" fill="#ADD1B2" rx="11" ry="11" style="stroke:#181818;stroke-width:1.0;"/><path d="M413.8656,1037.875 Q414.0219,1037.6563 414.2094,1037.5469 Q414.3969,1037.4375 414.6156,1037.4375 Q414.9906,1037.4375 415.225,1037.7031 Q415.4594,1037.9531 415.4594,1038.5625 L415.4594,1040.0156 Q415.4594,1040.625 415.225,1040.8906 Q414.9906,1041.1563 414.6156,1041.1563 Q414.2719,1041.1563 414.0688,1040.9531 Q413.8656,1040.7656 413.7563,1040.25 Q413.7094,1039.8906 413.5219,1039.7031 Q413.1938,1039.3281 412.5844,1039.1094 Q411.975,1038.8906 411.35,1038.8906 Q410.5844,1038.8906 409.9438,1039.2188 Q409.3188,1039.5469 408.8188,1040.2969 Q408.3344,1041.0469 408.3344,1042.0781 L408.3344,1043.1719 Q408.3344,1044.4063 409.225,1045.2344 Q410.1156,1046.0469 411.7094,1046.0469 Q412.6469,1046.0469 413.3031,1045.7969 Q413.6938,1045.6406 414.1156,1045.2031 Q414.3813,1044.9375 414.5219,1044.8594 Q414.6781,1044.7813 414.8813,1044.7813 Q415.2094,1044.7813 415.4594,1045.0469 Q415.725,1045.2969 415.725,1045.6406 Q415.725,1045.9844 415.3813,1046.3906 Q414.8813,1046.9688 414.0844,1047.2969 Q413.0063,1047.75 411.7094,1047.75 Q410.1938,1047.75 408.9906,1047.125 Q408.0063,1046.625 407.3188,1045.5625 Q406.6313,1044.4844 406.6313,1043.2031 L406.6313,1042.0469 Q406.6313,1040.7188 407.2406,1039.5781 Q407.8656,1038.4219 408.9594,1037.8125 Q410.0531,1037.1875 411.2875,1037.1875 Q412.0219,1037.1875 412.6625,1037.3594 Q413.3188,1037.5156 413.8656,1037.875 Z " fill="#000000"/><text fill="#000000" font-family="sans-serif" font-size="14" lengthAdjust="spacing" textLength="132" x="425.9" y="1047.7285">RemoveModelOption</text><line style="stroke:#181818;stroke-width:0.5;" x1="393.5" x2="563.5" y1="1058" y2="1058"/><polygon fill="none" points="403.5,1067.3047,407.5,1071.3047,403.5,1075.3047,399.5,1071.3047" style="stroke:#B38D22;stroke-width:1.0;"/><text fill="#000000" font-family="sans-serif" font-size="14" lengthAdjust="spacing" textLength="33" x="412.5" y="1076.5332">index</text><line style="stroke:#181818;stroke-width:0.5;" x1="393.5" x2="563.5" y1="1083.6094" y2="1083.6094"/><text fill="#000000" font-family="sans-serif" font-size="14" lengthAdjust="spacing" textLength="160" x="398.5" y="1102.1426">constructor(model, index)</text><text fill="#000000" font-family="sans-serif" font-size="14" lengthAdjust="spacing" textLength="57" x="398.5" y="1119.752">getTitle()</text><text fill="#000000" font-family="sans-serif" font-size="14" lengthAdjust="spacing" textLength="57" x="398.5" y="1137.3613">interact()</text></g><!--class X--><g id="elem_X"><rect codeLine="88" fill="#228B22" height="83.2188" id="X" rx="2.5" ry="2.5" style="stroke:#181818;stroke-width:0.5;" width="131" x="835" y="1043.5"/><ellipse cx="890.25" cy="1059.5" fill="#ADD1B2" rx="11" ry="11" style="stroke:#181818;stroke-width:1.0;"/><path d="M893.0156,1055.375 Q893.1719,1055.1563 893.3594,1055.0469 Q893.5469,1054.9375 893.7656,1054.9375 Q894.1406,1054.9375 894.375,1055.2031 Q894.6094,1055.4531 894.6094,1056.0625 L894.6094,1057.5156 Q894.6094,1058.125 894.375,1058.3906 Q894.1406,1058.6563 893.7656,1058.6563 Q893.4219,1058.6563 893.2188,1058.4531 Q893.0156,1058.2656 892.9063,1057.75 Q892.8594,1057.3906 892.6719,1057.2031 Q892.3438,1056.8281 891.7344,1056.6094 Q891.125,1056.3906 890.5,1056.3906 Q889.7344,1056.3906 889.0938,1056.7188 Q888.4688,1057.0469 887.9688,1057.7969 Q887.4844,1058.5469 887.4844,1059.5781 L887.4844,1060.6719 Q887.4844,1061.9063 888.375,1062.7344 Q889.2656,1063.5469 890.8594,1063.5469 Q891.7969,1063.5469 892.4531,1063.2969 Q892.8438,1063.1406 893.2656,1062.7031 Q893.5313,1062.4375 893.6719,1062.3594 Q893.8281,1062.2813 894.0313,1062.2813 Q894.3594,1062.2813 894.6094,1062.5469 Q894.875,1062.7969 894.875,1063.1406 Q894.875,1063.4844 894.5313,1063.8906 Q894.0313,1064.4688 893.2344,1064.7969 Q892.1563,1065.25 890.8594,1065.25 Q889.3438,1065.25 888.1406,1064.625 Q887.1563,1064.125 886.4688,1063.0625 Q885.7813,1061.9844 885.7813,1060.7031 L885.7813,1059.5469 Q885.7813,1058.2188 886.3906,1057.0781 Q887.0156,1055.9219 888.1094,1055.3125 Q889.2031,1054.6875 890.4375,1054.6875 Q891.1719,1054.6875 891.8125,1054.8594 Q892.4688,1055.0156 893.0156,1055.375 Z " fill="#000000"/><text fill="#000000" font-family="sans-serif" font-size="14" lengthAdjust="spacing" textLength="12" x="910.75" y="1065.2285">...</text><line style="stroke:#181818;stroke-width:0.5;" x1="836" x2="965" y1="1075.5" y2="1075.5"/><line style="stroke:#181818;stroke-width:0.5;" x1="836" x2="965" y1="1083.5" y2="1083.5"/><text fill="#000000" font-family="sans-serif" font-size="14" lengthAdjust="spacing" textLength="119" x="841" y="1102.0332">constructor(model)</text><text fill="#000000" font-family="sans-serif" font-size="14" lengthAdjust="spacing" textLength="57" x="841" y="1119.6426">interact()</text></g><!--class ModelMenu--><g id="elem_ModelMenu"><rect codeLine="94" fill="#00FF00" height="100.8281" id="ModelMenu" rx="2.5" ry="2.5" style="stroke:#181818;stroke-width:0.5;" width="131" x="1120" y="864"/><ellipse cx="1146.7" cy="880" fill="#ADD1B2" rx="11" ry="11" style="stroke:#181818;stroke-width:1.0;"/><path d="M1149.4656,875.875 Q1149.6219,875.6563 1149.8094,875.5469 Q1149.9969,875.4375 1150.2156,875.4375 Q1150.5906,875.4375 1150.825,875.7031 Q1151.0594,875.9531 1151.0594,876.5625 L1151.0594,878.0156 Q1151.0594,878.625 1150.825,878.8906 Q1150.5906,879.1563 1150.2156,879.1563 Q1149.8719,879.1563 1149.6688,878.9531 Q1149.4656,878.7656 1149.3563,878.25 Q1149.3094,877.8906 1149.1219,877.7031 Q1148.7938,877.3281 1148.1844,877.1094 Q1147.575,876.8906 1146.95,876.8906 Q1146.1844,876.8906 1145.5438,877.2188 Q1144.9188,877.5469 1144.4188,878.2969 Q1143.9344,879.0469 1143.9344,880.0781 L1143.9344,881.1719 Q1143.9344,882.4063 1144.825,883.2344 Q1145.7156,884.0469 1147.3094,884.0469 Q1148.2469,884.0469 1148.9031,883.7969 Q1149.2938,883.6406 1149.7156,883.2031 Q1149.9813,882.9375 1150.1219,882.8594 Q1150.2781,882.7813 1150.4813,882.7813 Q1150.8094,882.7813 1151.0594,883.0469 Q1151.325,883.2969 1151.325,883.6406 Q1151.325,883.9844 1150.9813,884.3906 Q1150.4813,884.9688 1149.6844,885.2969 Q1148.6063,885.75 1147.3094,885.75 Q1145.7938,885.75 1144.5906,885.125 Q1143.6063,884.625 1142.9188,883.5625 Q1142.2313,882.4844 1142.2313,881.2031 L1142.2313,880.0469 Q1142.2313,878.7188 1142.8406,877.5781 Q1143.4656,876.4219 1144.5594,875.8125 Q1145.6531,875.1875 1146.8875,875.1875 Q1147.6219,875.1875 1148.2625,875.3594 Q1148.9188,875.5156 1149.4656,875.875 Z " fill="#000000"/><text fill="#000000" font-family="sans-serif" font-size="14" lengthAdjust="spacing" textLength="73" x="1163.3" y="885.7285">ModelMenu</text><line style="stroke:#181818;stroke-width:0.5;" x1="1121" x2="1250" y1="896" y2="896"/><polygon fill="none" points="1131,905.3047,1135,909.3047,1131,913.3047,1127,909.3047" style="stroke:#B38D22;stroke-width:1.0;"/><text fill="#000000" font-family="sans-serif" font-size="14" lengthAdjust="spacing" textLength="38" x="1140" y="914.5332">model</text><line style="stroke:#181818;stroke-width:0.5;" x1="1121" x2="1250" y1="921.6094" y2="921.6094"/><text fill="#000000" font-family="sans-serif" font-size="14" lengthAdjust="spacing" textLength="119" x="1126" y="940.1426">constructor(model)</text><text fill="#000000" font-family="sans-serif" font-size="14" lengthAdjust="spacing" textLength="83" x="1126" y="957.752">addOptions()</text></g><!--class ModelQuitMenu--><g id="elem_ModelQuitMenu"><rect codeLine="100" fill="#00FF00" height="100.8281" id="ModelQuitMenu" rx="2.5" ry="2.5" style="stroke:#181818;stroke-width:0.5;" width="131" x="954" y="864"/><ellipse cx="969" cy="880" fill="#ADD1B2" rx="11" ry="11" style="stroke:#181818;stroke-width:1.0;"/><path d="M971.7656,875.875 Q971.9219,875.6563 972.1094,875.5469 Q972.2969,875.4375 972.5156,875.4375 Q972.8906,875.4375 973.125,875.7031 Q973.3594,875.9531 973.3594,876.5625 L973.3594,878.0156 Q973.3594,878.625 973.125,878.8906 Q972.8906,879.1563 972.5156,879.1563 Q972.1719,879.1563 971.9688,878.9531 Q971.7656,878.7656 971.6563,878.25 Q971.6094,877.8906 971.4219,877.7031 Q971.0938,877.3281 970.4844,877.1094 Q969.875,876.8906 969.25,876.8906 Q968.4844,876.8906 967.8438,877.2188 Q967.2188,877.5469 966.7188,878.2969 Q966.2344,879.0469 966.2344,880.0781 L966.2344,881.1719 Q966.2344,882.4063 967.125,883.2344 Q968.0156,884.0469 969.6094,884.0469 Q970.5469,884.0469 971.2031,883.7969 Q971.5938,883.6406 972.0156,883.2031 Q972.2813,882.9375 972.4219,882.8594 Q972.5781,882.7813 972.7813,882.7813 Q973.1094,882.7813 973.3594,883.0469 Q973.625,883.2969 973.625,883.6406 Q973.625,883.9844 973.2813,884.3906 Q972.7813,884.9688 971.9844,885.2969 Q970.9063,885.75 969.6094,885.75 Q968.0938,885.75 966.8906,885.125 Q965.9063,884.625 965.2188,883.5625 Q964.5313,882.4844 964.5313,881.2031 L964.5313,880.0469 Q964.5313,878.7188 965.1406,877.5781 Q965.7656,876.4219 966.8594,875.8125 Q967.9531,875.1875 969.1875,875.1875 Q969.9219,875.1875 970.5625,875.3594 Q971.2188,875.5156 971.7656,875.875 Z " fill="#000000"/><text fill="#000000" font-family="sans-serif" font-size="14" lengthAdjust="spacing" textLength="99" x="983" y="885.7285">ModelQuitMenu</text><line style="stroke:#181818;stroke-width:0.5;" x1="955" x2="1084" y1="896" y2="896"/><polygon fill="none" points="965,905.3047,969,909.3047,965,913.3047,961,909.3047" style="stroke:#B38D22;stroke-width:1.0;"/><text fill="#000000" font-family="sans-serif" font-size="14" lengthAdjust="spacing" textLength="38" x="974" y="914.5332">model</text><line style="stroke:#181818;stroke-width:0.5;" x1="955" x2="1084" y1="921.6094" y2="921.6094"/><text fill="#000000" font-family="sans-serif" font-size="14" lengthAdjust="spacing" textLength="119" x="960" y="940.1426">constructor(model)</text><text fill="#000000" font-family="sans-serif" font-size="14" lengthAdjust="spacing" textLength="83" x="960" y="957.752">addOptions()</text></g><!--class ModelIterativeMenu--><g id="elem_ModelIterativeMenu"><rect codeLine="106" fill="#00FF00" height="100.8281" id="ModelIterativeMenu" rx="2.5" ry="2.5" style="stroke:#181818;stroke-width:0.5;" width="155" x="764" y="864"/><ellipse cx="779" cy="880" fill="#ADD1B2" rx="11" ry="11" style="stroke:#181818;stroke-width:1.0;"/><path d="M781.7656,875.875 Q781.9219,875.6563 782.1094,875.5469 Q782.2969,875.4375 782.5156,875.4375 Q782.8906,875.4375 783.125,875.7031 Q783.3594,875.9531 783.3594,876.5625 L783.3594,878.0156 Q783.3594,878.625 783.125,878.8906 Q782.8906,879.1563 782.5156,879.1563 Q782.1719,879.1563 781.9688,878.9531 Q781.7656,878.7656 781.6563,878.25 Q781.6094,877.8906 781.4219,877.7031 Q781.0938,877.3281 780.4844,877.1094 Q779.875,876.8906 779.25,876.8906 Q778.4844,876.8906 777.8438,877.2188 Q777.2188,877.5469 776.7188,878.2969 Q776.2344,879.0469 776.2344,880.0781 L776.2344,881.1719 Q776.2344,882.4063 777.125,883.2344 Q778.0156,884.0469 779.6094,884.0469 Q780.5469,884.0469 781.2031,883.7969 Q781.5938,883.6406 782.0156,883.2031 Q782.2813,882.9375 782.4219,882.8594 Q782.5781,882.7813 782.7813,882.7813 Q783.1094,882.7813 783.3594,883.0469 Q783.625,883.2969 783.625,883.6406 Q783.625,883.9844 783.2813,884.3906 Q782.7813,884.9688 781.9844,885.2969 Q780.9063,885.75 779.6094,885.75 Q778.0938,885.75 776.8906,885.125 Q775.9063,884.625 775.2188,883.5625 Q774.5313,882.4844 774.5313,881.2031 L774.5313,880.0469 Q774.5313,878.7188 775.1406,877.5781 Q775.7656,876.4219 776.8594,875.8125 Q777.9531,875.1875 779.1875,875.1875 Q779.9219,875.1875 780.5625,875.3594 Q781.2188,875.5156 781.7656,875.875 Z " fill="#000000"/><text fill="#000000" font-family="sans-serif" font-size="14" lengthAdjust="spacing" textLength="123" x="793" y="885.7285">ModelIterativeMenu</text><line style="stroke:#181818;stroke-width:0.5;" x1="765" x2="918" y1="896" y2="896"/><polygon fill="none" points="775,905.3047,779,909.3047,775,913.3047,771,909.3047" style="stroke:#B38D22;stroke-width:1.0;"/><text fill="#000000" font-family="sans-serif" font-size="14" lengthAdjust="spacing" textLength="38" x="784" y="914.5332">model</text><line style="stroke:#181818;stroke-width:0.5;" x1="765" x2="918" y1="921.6094" y2="921.6094"/><text fill="#000000" font-family="sans-serif" font-size="14" lengthAdjust="spacing" textLength="119" x="770" y="940.1426">constructor(model)</text><text fill="#000000" font-family="sans-serif" font-size="14" lengthAdjust="spacing" textLength="83" x="770" y="957.752">addOptions()</text></g><!--class ModelDynamicMenu--><g id="elem_ModelDynamicMenu"><rect codeLine="112" fill="#00FF00" height="100.8281" id="ModelDynamicMenu" rx="2.5" ry="2.5" style="stroke:#181818;stroke-width:0.5;" width="159" x="570" y="864"/><ellipse cx="585" cy="880" fill="#ADD1B2" rx="11" ry="11" style="stroke:#181818;stroke-width:1.0;"/><path d="M587.7656,875.875 Q587.9219,875.6563 588.1094,875.5469 Q588.2969,875.4375 588.5156,875.4375 Q588.8906,875.4375 589.125,875.7031 Q589.3594,875.9531 589.3594,876.5625 L589.3594,878.0156 Q589.3594,878.625 589.125,878.8906 Q588.8906,879.1563 588.5156,879.1563 Q588.1719,879.1563 587.9688,878.9531 Q587.7656,878.7656 587.6563,878.25 Q587.6094,877.8906 587.4219,877.7031 Q587.0938,877.3281 586.4844,877.1094 Q585.875,876.8906 585.25,876.8906 Q584.4844,876.8906 583.8438,877.2188 Q583.2188,877.5469 582.7188,878.2969 Q582.2344,879.0469 582.2344,880.0781 L582.2344,881.1719 Q582.2344,882.4063 583.125,883.2344 Q584.0156,884.0469 585.6094,884.0469 Q586.5469,884.0469 587.2031,883.7969 Q587.5938,883.6406 588.0156,883.2031 Q588.2813,882.9375 588.4219,882.8594 Q588.5781,882.7813 588.7813,882.7813 Q589.1094,882.7813 589.3594,883.0469 Q589.625,883.2969 589.625,883.6406 Q589.625,883.9844 589.2813,884.3906 Q588.7813,884.9688 587.9844,885.2969 Q586.9063,885.75 585.6094,885.75 Q584.0938,885.75 582.8906,885.125 Q581.9063,884.625 581.2188,883.5625 Q580.5313,882.4844 580.5313,881.2031 L580.5313,880.0469 Q580.5313,878.7188 581.1406,877.5781 Q581.7656,876.4219 582.8594,875.8125 Q583.9531,875.1875 585.1875,875.1875 Q585.9219,875.1875 586.5625,875.3594 Q587.2188,875.5156 587.7656,875.875 Z " fill="#000000"/><text fill="#000000" font-family="sans-serif" font-size="14" lengthAdjust="spacing" textLength="127" x="599" y="885.7285">ModelDynamicMenu</text><line style="stroke:#181818;stroke-width:0.5;" x1="571" x2="728" y1="896" y2="896"/><polygon fill="none" points="581,905.3047,585,909.3047,581,913.3047,577,909.3047" style="stroke:#B38D22;stroke-width:1.0;"/><text fill="#000000" font-family="sans-serif" font-size="14" lengthAdjust="spacing" textLength="38" x="590" y="914.5332">model</text><line style="stroke:#181818;stroke-width:0.5;" x1="571" x2="728" y1="921.6094" y2="921.6094"/><text fill="#000000" font-family="sans-serif" font-size="14" lengthAdjust="spacing" textLength="119" x="576" y="940.1426">constructor(model)</text><text fill="#000000" font-family="sans-serif" font-size="14" lengthAdjust="spacing" textLength="83" x="576" y="957.752">addOptions()</text></g><!--reverse link DynamicMenu to ModelDynamicMenu--><g id="link_DynamicMenu_ModelDynamicMenu"><path codeLine="118" d="M692.3492,819.7319 C683.8092,838.4219 681.09,844.36 672.12,864 " fill="none" id="DynamicMenu-backto-ModelDynamicMenu" style="stroke:#181818;stroke-width:1.0;"/><polygon fill="none" points="699.83,803.36,686.8919,817.2383,697.8065,822.2255,699.83,803.36" style="stroke:#181818;stroke-width:1.0;"/></g><!--link Menu to Option--><g id="link_Menu_Option"><path codeLine="122" d="M680.098,276.9342 C669.948,297.9342 667.6315,302.7081 658.5815,321.4281 " fill="none" id="Menu-Option" style="stroke:#181818;stroke-width:1.0;"/><polygon fill="#181818" points="685.32,266.13,679.1076,269.7914,680.098,276.9342,686.3104,273.2728,685.32,266.13" style="stroke:#181818;stroke-width:1.0;"/><polygon fill="#181818" points="655.97,326.83,663.4885,320.4682,658.1462,322.3284,656.286,316.9862,655.97,326.83" style="stroke:#181818;stroke-width:1.0;"/><text fill="#000000" font-family="sans-serif" font-size="13" lengthAdjust="spacing" textLength="8" x="651.0839" y="316.0107">+</text></g><!--link Menu to Console--><g id="link_Menu_Console"><path codeLine="123" d="M645.9884,170.8866 C574.0784,199.2766 489.45,245.86 444.5,327 C399.29,408.61 426.2071,520.4641 441.6971,569.9341 " fill="none" id="Menu-Console" style="stroke:#181818;stroke-width:1.0;"/><polygon fill="#181818" points="657.15,166.48,650.1003,164.9628,645.9884,170.8866,653.0381,172.4038,657.15,166.48" style="stroke:#181818;stroke-width:1.0;"/><polygon fill="#181818" points="443.49,575.66,444.6179,565.8759,441.9959,570.8884,436.9834,568.2664,443.49,575.66" style="stroke:#181818;stroke-width:1.0;"/><text fill="#000000" font-family="sans-serif" font-size="13" lengthAdjust="spacing" textLength="89" x="445.5" y="400.4951">{static} console</text></g><!--reverse link Menu to ModelMenu--><g id="link_Menu_ModelMenu"><path codeLine="124" d="M854.923,162.0363 C965.583,192.2863 1121.5,256.81 1121.5,394 C1121.5,394 1121.5,394 1121.5,762.5 C1121.5,798.38 1137,835.52 1152.75,863.98 " fill="none" id="Menu-backto-ModelMenu" style="stroke:#181818;stroke-width:1.0;"/><polygon fill="none" points="837.56,157.29,853.3408,167.824,856.5051,156.2487,837.56,157.29" style="stroke:#181818;stroke-width:1.0;"/></g><!--reverse link Menu to QuitMenu--><g id="link_Menu_QuitMenu"><path codeLine="125" d="M792.4124,283.3344 C798.8724,304.3344 800.05,308.11 805.81,326.83 " fill="none" id="Menu-backto-QuitMenu" style="stroke:#181818;stroke-width:1.0;"/><polygon fill="none" points="787.12,266.13,786.6776,285.0985,798.1472,281.5702,787.12,266.13" style="stroke:#181818;stroke-width:1.0;"/></g><!--link Option to Console--><g id="link_Option_Console"><path codeLine="127" d="M543.1376,448.9645 C506.1276,473.4145 478.21,491.98 477.5,493 C460.07,517.81 454.7657,547.0305 452.8657,569.9505 " fill="none" id="Option-Console" style="stroke:#181818;stroke-width:1.0;"/><polygon fill="#181818" points="553.15,442.35,545.939,442.3198,543.1376,448.9645,550.3486,448.9947,553.15,442.35" style="stroke:#181818;stroke-width:1.0;"/><polygon fill="#181818" points="452.37,575.93,457.0998,567.2912,452.7831,570.9471,449.1272,566.6303,452.37,575.93" style="stroke:#181818;stroke-width:1.0;"/><text fill="#000000" font-family="sans-serif" font-size="13" lengthAdjust="spacing" textLength="89" x="478.5" y="507.4951">{static} console</text></g><!--reverse link Option to QuitOption--><g id="link_Option_QuitOption"><path codeLine="128" d="M654.0995,479.9433 C663.2695,505.1233 667.46,516.6 676.32,540.89 " fill="none" id="Option-backto-QuitOption" style="stroke:#181818;stroke-width:1.0;"/><polygon fill="none" points="647.94,463.03,648.4617,481.9965,659.7372,477.8902,647.94,463.03" style="stroke:#181818;stroke-width:1.0;"/></g><!--link QuitMenu to QuitOption--><g id="link_QuitMenu_QuitOption"><path codeLine="130" d="M777.4643,473.1582 C761.4643,498.3382 753.0902,511.5373 737.6402,535.8273 " fill="none" id="QuitMenu-QuitOption" style="stroke:#181818;stroke-width:1.0;"/><polygon fill="#181818" points="783.9,463.03,777.3061,465.9489,777.4643,473.1582,784.0582,470.2394,783.9,463.03" style="stroke:#181818;stroke-width:1.0;"/><polygon fill="#181818" points="734.42,540.89,742.6254,535.4428,737.1035,536.6711,735.8752,531.1492,734.42,540.89" style="stroke:#181818;stroke-width:1.0;"/></g><!--reverse link QuitMenu to ModelQuitMenu--><g id="link_QuitMenu_ModelQuitMenu"><path codeLine="131" d="M884.9977,478.3972 C900.4877,502.0972 906.78,514.4 918.5,541 C967.21,651.52 997.4,791.08 1011,863.99 " fill="none" id="QuitMenu-backto-ModelQuitMenu" style="stroke:#181818;stroke-width:1.0;"/><polygon fill="none" points="875.15,463.33,879.9753,481.6798,890.0202,475.1147,875.15,463.33" style="stroke:#181818;stroke-width:1.0;"/></g><!--reverse link QuitMenu to IterativeMenu--><g id="link_QuitMenu_IterativeMenu"><path codeLine="132" d="M832.7765,480.9811 C835.1065,512.5111 836.48,531.12 838.5,558.39 " fill="none" id="QuitMenu-backto-IterativeMenu" style="stroke:#181818;stroke-width:1.0;"/><polygon fill="none" points="831.45,463.03,826.7929,481.4232,838.7602,480.5389,831.45,463.03" style="stroke:#181818;stroke-width:1.0;"/></g><!--reverse link IterativeMenu to DynamicMenu--><g id="link_IterativeMenu_DynamicMenu"><path codeLine="134" d="M799.1509,655.9162 C780.6509,679.9162 768.29,695.93 749.8,719.91 " fill="none" id="IterativeMenu-backto-DynamicMenu" style="stroke:#181818;stroke-width:1.0;"/><polygon fill="none" points="810.14,641.66,794.3988,652.2531,803.9029,659.5792,810.14,641.66" style="stroke:#181818;stroke-width:1.0;"/></g><!--reverse link IterativeMenu to ModelIterativeMenu--><g id="link_IterativeMenu_ModelIterativeMenu"><path codeLine="135" d="M841.5,659.53 C841.5,716.51 841.5,802.19 841.5,863.76 " fill="none" id="IterativeMenu-backto-ModelIterativeMenu" style="stroke:#181818;stroke-width:1.0;"/><polygon fill="none" points="841.5,641.53,835.5,659.53,847.5,659.53,841.5,641.53" style="stroke:#181818;stroke-width:1.0;"/></g><!--link ModelMenu to Model--><g id="link_ModelMenu_Model"><path codeLine="138" d="M1155.68,965.37 C1125.75,1013.52 1076.83,1087.26 1025.5,1144 C1011.33,1159.66 1006.12,1161.98 989.5,1175 C957.76,1199.87 925.784,1222.736 896.634,1242.906 " fill="none" id="ModelMenu-to-Model" style="stroke:#181818;stroke-width:1.0;"/><polygon fill="#181818" points="891.7,1246.32,901.377,1244.4883,895.8117,1243.475,896.825,1237.9096,891.7,1246.32" style="stroke:#181818;stroke-width:1.0;"/></g><!--link ModelMenu to X--><g id="link_ModelMenu_X"><path codeLine="139" d="M1109.5122,960.8373 C1103.6522,964.3173 1108.13,961.66 1102.5,965 C1056.98,991.98 1010.7724,1019.2093 971.2224,1042.4593 " fill="none" id="ModelMenu-X" style="stroke:#181818;stroke-width:1.0;"/><polygon fill="#181818" points="1119.83,954.71,1112.6287,954.3344,1109.5122,960.8373,1116.7135,961.2129,1119.83,954.71" style="stroke:#181818;stroke-width:1.0;"/><polygon fill="#181818" points="966.05,1045.5,975.8358,1044.3873,970.3604,1042.9661,971.7815,1037.4907,966.05,1045.5" style="stroke:#181818;stroke-width:1.0;"/></g><!--link ModelQuitMenu to X--><g id="link_ModelQuitMenu_X"><path codeLine="141" d="M977.5176,974.9421 C959.8976,999.8921 949.201,1015.0388 932.571,1038.5888 " fill="none" id="ModelQuitMenu-X" style="stroke:#181818;stroke-width:1.0;"/><polygon fill="#181818" points="984.44,965.14,977.7115,967.7336,977.5176,974.9421,984.2462,972.3485,984.44,965.14" style="stroke:#181818;stroke-width:1.0;"/><polygon fill="#181818" points="929.11,1043.49,937.5689,1038.4456,931.9942,1039.4057,931.034,1033.8309,929.11,1043.49" style="stroke:#181818;stroke-width:1.0;"/></g><!--link ModelQuitMenu to Model--><g id="link_ModelQuitMenu_Model"><path codeLine="142" d="M1020.64,965.14 C1019.76,1013.44 1012.98,1087.59 983.5,1144 C962,1185.14 928.1425,1217.3017 896.4625,1241.9917 " fill="none" id="ModelQuitMenu-to-Model" style="stroke:#181818;stroke-width:1.0;"/><polygon fill="#181818" points="891.73,1245.68,901.2876,1243.3026,895.6737,1242.6064,896.3699,1236.9926,891.73,1245.68" style="stroke:#181818;stroke-width:1.0;"/></g><!--link ModelIterativeMenu to Model--><g id="link_ModelIterativeMenu_Model"><path codeLine="144" d="M828.34,965.19 C823.96,984.08 819.66,1005.9 817.5,1026 C811.9,1078.14 813.14,1091.74 817.5,1144 C819.15,1163.83 821.1494,1179.1807 824.4194,1198.9207 " fill="none" id="ModelIterativeMenu-to-Model" style="stroke:#181818;stroke-width:1.0;"/><polygon fill="#181818" points="825.4,1204.84,827.8754,1195.3073,824.5829,1199.9072,819.9829,1196.6147,825.4,1204.84" style="stroke:#181818;stroke-width:1.0;"/></g><!--link ModelIterativeMenu to X--><g id="link_ModelIterativeMenu_X"><path codeLine="145" d="M862.8472,976.4652 C871.5872,1001.4152 876.0884,1014.2767 884.3284,1037.8267 " fill="none" id="ModelIterativeMenu-X" style="stroke:#181818;stroke-width:1.0;"/><polygon fill="#181818" points="858.88,965.14,857.0885,972.125,862.8472,976.4652,864.6387,969.4802,858.88,965.14" style="stroke:#181818;stroke-width:1.0;"/><polygon fill="#181818" points="886.31,1043.49,887.1132,1033.6739,884.6587,1038.7706,879.5621,1036.316,886.31,1043.49" style="stroke:#181818;stroke-width:1.0;"/></g><!--link ModelDynamicMenu to Model--><g id="link_ModelDynamicMenu_Model"><path codeLine="147" d="M675.46,965.17 C707.69,1026.85 760.2208,1127.3825 797.8508,1199.3825 " fill="none" id="ModelDynamicMenu-to-Model" style="stroke:#181818;stroke-width:1.0;"/><polygon fill="#181818" points="800.63,1204.7,800.0063,1194.8709,798.314,1200.2687,792.9162,1198.5765,800.63,1204.7" style="stroke:#181818;stroke-width:1.0;"/></g><!--link ModelDynamicMenu to X--><g id="link_ModelDynamicMenu_X"><path codeLine="148" d="M733.4127,971.8292 C770.5727,996.7792 800.0989,1016.5951 835.1689,1040.1451 " fill="none" id="ModelDynamicMenu-X" style="stroke:#181818;stroke-width:1.0;"/><polygon fill="#181818" points="723.45,965.14,726.2016,971.8055,733.4127,971.8292,730.6611,965.1637,723.45,965.14" style="stroke:#181818;stroke-width:1.0;"/><polygon fill="#181818" points="840.15,1043.49,834.9082,1035.1519,835.9991,1040.7026,830.4484,1041.7934,840.15,1043.49" style="stroke:#181818;stroke-width:1.0;"/></g><!--reverse link Option to ModelOption--><g id="link_Option_ModelOption"><path codeLine="150" d="M594.8752,480.1617 C559.0252,585.5917 496.12,770.54 464.36,863.91 " fill="none" id="Option-backto-ModelOption" style="stroke:#181818;stroke-width:1.0;"/><polygon fill="none" points="600.67,463.12,589.1946,478.2301,600.5558,482.0933,600.67,463.12" style="stroke:#181818;stroke-width:1.0;"/></g><!--link ModelOption to Model--><g id="link_ModelOption_Model"><path codeLine="152" d="M510.3,965.12 C533.14,983.73 558.89,1005.37 581.5,1026 C636.06,1075.78 645.92,1092.14 698.5,1144 C728.37,1173.47 757.8397,1201.9569 784.9697,1227.9769 " fill="none" id="ModelOption-to-Model" style="stroke:#181818;stroke-width:1.0;"/><polygon fill="#181818" points="789.3,1232.13,785.5733,1223.0134,785.6914,1228.6691,780.0358,1228.7872,789.3,1232.13" style="stroke:#181818;stroke-width:1.0;"/></g><!--reverse link ModelOption to ListModelOption--><g id="link_ModelOption_ListModelOption"><path codeLine="153" d="M343.4282,948.7645 C285.0782,968.6045 224.37,992.01 159.5,1026 C149.69,1031.14 139.64,1037.19 130.05,1043.41 " fill="none" id="ModelOption-backto-ListModelOption" style="stroke:#181818;stroke-width:1.0;"/><polygon fill="none" points="360.47,942.97,341.4967,943.0839,345.3597,954.4451,360.47,942.97" style="stroke:#181818;stroke-width:1.0;"/></g><!--reverse link ModelOption to InverseListModelOption--><g id="link_ModelOption_InverseListModelOption"><path codeLine="154" d="M381.3299,977.4419 C354.6799,1002.3919 335.93,1019.94 310.78,1043.49 " fill="none" id="ModelOption-backto-InverseListModelOption" style="stroke:#181818;stroke-width:1.0;"/><polygon fill="none" points="394.47,965.14,377.2292,973.0619,385.4305,981.822,394.47,965.14" style="stroke:#181818;stroke-width:1.0;"/></g><!--reverse link ModelOption to X--><g id="link_ModelOption_X"><path codeLine="155" d="M551.0533,964.6261 C557.0933,967.2561 546.62,962.62 552.5,965 C579.24,975.84 741.7,1030.69 834.9,1062.01 " fill="none" id="ModelOption-backto-X" style="stroke:#181818;stroke-width:1.0;"/><polygon fill="none" points="534.55,957.44,548.658,970.1272,553.4487,959.1249,534.55,957.44" style="stroke:#181818;stroke-width:1.0;"/></g><!--reverse link ModelOption to RemoveModelOption--><g id="link_ModelOption_RemoveModelOption"><path codeLine="156" d="M459.886,982.8431 C463.386,1001.8731 464.16,1006.05 467.79,1025.81 " fill="none" id="ModelOption-backto-RemoveModelOption" style="stroke:#181818;stroke-width:1.0;"/><polygon fill="none" points="456.63,965.14,453.9849,983.9284,465.787,981.7578,456.63,965.14" style="stroke:#181818;stroke-width:1.0;"/></g><!--link X to Model--><!--SRC=[hLN9Rjim4BtpAmZh8hUnFw0rV763842Ae4KF0egYKALfJCGY6v5sahh-zt8tHT8B4EiapVBcpPiXrQngpl62KSvMW53zYuk-RWHkjFt-Zo2CugBfISVbonPX-HI221ciNXkPAFfr8rXVQkjOcxSEPuS95Q3UoZ6UpPnvFjTXVCcUlwciaj0MNapk0mXZ6wCTGeR7bpKH1xZ02pHh0Mr2nw3jovjFVctZ3NpKxsUWwoFT5anpuCTQZme6IjHjQthWEIrSta-RwBNXrZ3PgsKCglF5aZ4E5jVQPPtI43NVFNHi0xwqjYrhRdDSP2g64Zqho9EVniTZIYGTI6Bxr6GW0rVAvbR98yW6SfHEpo85_FHAwuuqvy7X39vT6TR22XTjtJykNcklaSmdz84Vs4er8XCHZYWw1U4d9tyXlx6gl3iQlraFNDpq08v7fzm92LFwodZFFh6ok6lwZd1ned9G3vT1ePo6jtG3FOSBetxLefu0BBJ8YK8Q-WgR2U3eNiejWojQuPhZqNGw7U4J_0_J3pTBhoSkxaW7Zd5-fW5QUD54Y-hFzEKWXmVJu5u0DZoURoGRGit-JLhsJ2T94JL27V7E1CpnwFt8_W0ZX_rRuWzuouLilTbf9ke7cgcXmOTsDmM4x6AU0sr31o2M7l9ZzK21rpk7l3o9r3yOAKB32VkeKBm38Uc2A9NzNZkosXBOVHULZKxxgoB740fbDZDJR1YGL0tt9fCTkiFSU5313MI1RKG6CywDhiHyKFxwpCTMUNDoLyevLNZoVKdQ5kWFsmJw3m00]--></g></svg>