<?xml version="1.0" encoding="us-ascii" standalone="no"?><svg xmlns="http://www.w3.org/2000/svg" xmlns:xlink="http://www.w3.org/1999/xlink" contentStyleType="text/css" height="946px" preserveAspectRatio="none" style="width:675px;height:946px;background:#FFFFFF;" version="1.1" viewBox="0 0 675 946" width="675px" zoomAndPan="magnify"><defs/><g><!--class Console--><g id="elem_Console"><rect codeLine="2" fill="#F1F1F1" height="48" id="Console" rx="2.5" ry="2.5" style="stroke:#181818;stroke-width:0.5;" width="84" x="240.5" y="650.5"/><ellipse cx="255.5" cy="666.5" fill="#ADD1B2" rx="11" ry="11" style="stroke:#181818;stroke-width:1.0;"/><path d="M258.2656,662.375 Q258.4219,662.1563 258.6094,662.0469 Q258.7969,661.9375 259.0156,661.9375 Q259.3906,661.9375 259.625,662.2031 Q259.8594,662.4531 259.8594,663.0625 L259.8594,664.5156 Q259.8594,665.125 259.625,665.3906 Q259.3906,665.6563 259.0156,665.6563 Q258.6719,665.6563 258.4688,665.4531 Q258.2656,665.2656 258.1563,664.75 Q258.1094,664.3906 257.9219,664.2031 Q257.5938,663.8281 256.9844,663.6094 Q256.375,663.3906 255.75,663.3906 Q254.9844,663.3906 254.3438,663.7188 Q253.7188,664.0469 253.2188,664.7969 Q252.7344,665.5469 252.7344,666.5781 L252.7344,667.6719 Q252.7344,668.9063 253.625,669.7344 Q254.5156,670.5469 256.1094,670.5469 Q257.0469,670.5469 257.7031,670.2969 Q258.0938,670.1406 258.5156,669.7031 Q258.7813,669.4375 258.9219,669.3594 Q259.0781,669.2813 259.2813,669.2813 Q259.6094,669.2813 259.8594,669.5469 Q260.125,669.7969 260.125,670.1406 Q260.125,670.4844 259.7813,670.8906 Q259.2813,671.4688 258.4844,671.7969 Q257.4063,672.25 256.1094,672.25 Q254.5938,672.25 253.3906,671.625 Q252.4063,671.125 251.7188,670.0625 Q251.0313,668.9844 251.0313,667.7031 L251.0313,666.5469 Q251.0313,665.2188 251.6406,664.0781 Q252.2656,662.9219 253.3594,662.3125 Q254.4531,661.6875 255.6875,661.6875 Q256.4219,661.6875 257.0625,661.8594 Q257.7188,662.0156 258.2656,662.375 Z " fill="#000000"/><text fill="#000000" font-family="sans-serif" font-size="14" lengthAdjust="spacing" textLength="52" x="269.5" y="672.2285">Console</text><line style="stroke:#181818;stroke-width:0.5;" x1="241.5" x2="323.5" y1="682.5" y2="682.5"/><line style="stroke:#181818;stroke-width:0.5;" x1="241.5" x2="323.5" y1="690.5" y2="690.5"/></g><!--class Option--><g id="elem_Option"><rect codeLine="4" fill="#DC143C" height="136.0469" id="Option" rx="2.5" ry="2.5" style="stroke:#181818;stroke-width:0.5;" width="140" x="397.5" y="327"/><ellipse cx="442.25" cy="343" fill="#A9DCDF" rx="11" ry="11" style="stroke:#181818;stroke-width:1.0;"/><path d="M444.4375,344.7656 L440.2969,344.7656 L439.875,345.7969 L440.2969,345.7969 Q440.9063,345.7969 441.1719,346.0313 Q441.4375,346.2656 441.4375,346.6563 Q441.4375,347.0313 441.1719,347.2656 Q440.9063,347.5 440.2969,347.5 L438,347.5 Q437.3906,347.5 437.1406,347.2656 Q436.875,347.0313 436.875,346.6406 Q436.875,346.2656 437.1563,346.0313 Q437.4219,345.7813 438.0469,345.7969 L440.7188,339.1406 L439.6094,339.1406 Q439,339.1406 438.7344,338.9063 Q438.4688,338.6719 438.4688,338.2813 Q438.4688,337.9063 438.7344,337.6719 Q439,337.4375 439.6094,337.4375 L443.2813,337.4375 L446.6719,345.7969 Q447.2656,345.7969 447.4531,345.9375 Q447.8438,346.2031 447.8438,346.6563 Q447.8438,347.0313 447.5781,347.2656 Q447.3281,347.5 446.7188,347.5 L444.4219,347.5 Q443.8125,347.5 443.5469,347.2656 Q443.2813,347.0313 443.2813,346.6406 Q443.2813,346.2656 443.5469,346.0313 Q443.8125,345.7969 444.4219,345.7969 L444.8438,345.7969 L444.4375,344.7656 Z M443.7188,343.0625 L442.3594,339.6875 L440.9844,343.0625 L443.7188,343.0625 Z " fill="#000000"/><text fill="#000000" font-family="sans-serif" font-size="14" font-style="italic" lengthAdjust="spacing" textLength="42" x="462.75" y="348.7285">Option</text><line style="stroke:#181818;stroke-width:0.5;" x1="398.5" x2="536.5" y1="359" y2="359"/><polygon fill="none" points="408.5,368.3047,412.5,372.3047,408.5,376.3047,404.5,372.3047" style="stroke:#B38D22;stroke-width:1.0;"/><text fill="#000000" font-family="sans-serif" font-size="14" lengthAdjust="spacing" textLength="22" x="417.5" y="377.5332">title</text><line style="stroke:#181818;stroke-width:0.5;" x1="398.5" x2="536.5" y1="384.6094" y2="384.6094"/><text fill="#000000" font-family="sans-serif" font-size="14" lengthAdjust="spacing" textLength="103" x="403.5" y="403.1426">constructor(title)</text><text fill="#000000" font-family="sans-serif" font-size="14" font-style="italic" lengthAdjust="spacing" textLength="128" x="403.5" y="420.752">interact() &#171;abstract&#187;</text><text fill="#000000" font-family="sans-serif" font-size="14" lengthAdjust="spacing" textLength="102" x="403.5" y="438.3613">showTitle(index)</text><text fill="#000000" font-family="sans-serif" font-size="14" lengthAdjust="spacing" textLength="57" x="403.5" y="455.9707">getTitle()</text></g><!--class Menu--><g id="elem_Menu"><rect codeLine="14" fill="#DC143C" height="259.3125" id="Menu" rx="2.5" ry="2.5" style="stroke:#181818;stroke-width:0.5;" width="180" x="377.5" y="7"/><ellipse cx="445.25" cy="23" fill="#A9DCDF" rx="11" ry="11" style="stroke:#181818;stroke-width:1.0;"/><path d="M447.4375,24.7656 L443.2969,24.7656 L442.875,25.7969 L443.2969,25.7969 Q443.9063,25.7969 444.1719,26.0313 Q444.4375,26.2656 444.4375,26.6563 Q444.4375,27.0313 444.1719,27.2656 Q443.9063,27.5 443.2969,27.5 L441,27.5 Q440.3906,27.5 440.1406,27.2656 Q439.875,27.0313 439.875,26.6406 Q439.875,26.2656 440.1563,26.0313 Q440.4219,25.7813 441.0469,25.7969 L443.7188,19.1406 L442.6094,19.1406 Q442,19.1406 441.7344,18.9063 Q441.4688,18.6719 441.4688,18.2813 Q441.4688,17.9063 441.7344,17.6719 Q442,17.4375 442.6094,17.4375 L446.2813,17.4375 L449.6719,25.7969 Q450.2656,25.7969 450.4531,25.9375 Q450.8438,26.2031 450.8438,26.6563 Q450.8438,27.0313 450.5781,27.2656 Q450.3281,27.5 449.7188,27.5 L447.4219,27.5 Q446.8125,27.5 446.5469,27.2656 Q446.2813,27.0313 446.2813,26.6406 Q446.2813,26.2656 446.5469,26.0313 Q446.8125,25.7969 447.4219,25.7969 L447.8438,25.7969 L447.4375,24.7656 Z M446.7188,23.0625 L445.3594,19.6875 L443.9844,23.0625 L446.7188,23.0625 Z " fill="#000000"/><text fill="#000000" font-family="sans-serif" font-size="14" font-style="italic" lengthAdjust="spacing" textLength="36" x="465.75" y="28.7285">Menu</text><line style="stroke:#181818;stroke-width:0.5;" x1="378.5" x2="556.5" y1="39" y2="39"/><polygon fill="none" points="388.5,48.3047,392.5,52.3047,388.5,56.3047,384.5,52.3047" style="stroke:#B38D22;stroke-width:1.0;"/><text fill="#000000" font-family="sans-serif" font-size="14" lengthAdjust="spacing" textLength="22" x="397.5" y="57.5332">title</text><polygon fill="none" points="388.5,65.9141,392.5,69.9141,388.5,73.9141,384.5,69.9141" style="stroke:#B38D22;stroke-width:1.0;"/><text fill="#000000" font-family="sans-serif" font-size="14" lengthAdjust="spacing" textLength="46" x="397.5" y="75.1426">options</text><line style="stroke:#181818;stroke-width:0.5;" x1="378.5" x2="556.5" y1="82.2188" y2="82.2188"/><text fill="#000000" font-family="sans-serif" font-size="14" lengthAdjust="spacing" textLength="103" x="397.5" y="100.752">constructor(title)</text><text fill="#000000" font-family="sans-serif" font-size="14" lengthAdjust="spacing" textLength="57" x="397.5" y="118.3613">interact()</text><text fill="#000000" font-family="sans-serif" font-size="14" font-style="italic" lengthAdjust="spacing" textLength="154" x="397.5" y="135.9707">addOptions() &#171;abstract&#187;</text><text fill="#000000" font-family="sans-serif" font-size="14" lengthAdjust="spacing" textLength="65" x="397.5" y="153.5801">interact_()</text><text fill="#000000" font-family="sans-serif" font-size="14" lengthAdjust="spacing" textLength="76" x="397.5" y="171.1895">showTitles()</text><rect fill="#F24D5C" height="6" style="stroke:#C82930;stroke-width:1.0;" width="6" x="385.5" y="181.5703"/><text fill="#000000" font-family="sans-serif" font-size="14" lengthAdjust="spacing" textLength="69" x="397.5" y="188.7988">showTitle()</text><text fill="#000000" font-family="sans-serif" font-size="14" lengthAdjust="spacing" textLength="138" x="397.5" y="206.4082">execChoosedOption()</text><text fill="#000000" font-family="sans-serif" font-size="14" lengthAdjust="spacing" textLength="73" x="397.5" y="224.0176">add(option)</text><text fill="#000000" font-family="sans-serif" font-size="14" lengthAdjust="spacing" textLength="106" x="397.5" y="241.627">removeOptions()</text><text fill="#000000" font-family="sans-serif" font-size="14" lengthAdjust="spacing" textLength="114" x="397.5" y="259.2363">hasOption(option)</text></g><!--class Model--><g id="elem_Model"><rect codeLine="33" fill="#008B8B" height="153.6563" id="Model" rx="2.5" ry="2.5" style="stroke:#181818;stroke-width:0.5;" width="102" x="559.5" y="786"/><ellipse cx="588.9" cy="802" fill="#ADD1B2" rx="11" ry="11" style="stroke:#181818;stroke-width:1.0;"/><path d="M591.6656,797.875 Q591.8219,797.6563 592.0094,797.5469 Q592.1969,797.4375 592.4156,797.4375 Q592.7906,797.4375 593.025,797.7031 Q593.2594,797.9531 593.2594,798.5625 L593.2594,800.0156 Q593.2594,800.625 593.025,800.8906 Q592.7906,801.1563 592.4156,801.1563 Q592.0719,801.1563 591.8688,800.9531 Q591.6656,800.7656 591.5563,800.25 Q591.5094,799.8906 591.3219,799.7031 Q590.9938,799.3281 590.3844,799.1094 Q589.775,798.8906 589.15,798.8906 Q588.3844,798.8906 587.7438,799.2188 Q587.1188,799.5469 586.6188,800.2969 Q586.1344,801.0469 586.1344,802.0781 L586.1344,803.1719 Q586.1344,804.4063 587.025,805.2344 Q587.9156,806.0469 589.5094,806.0469 Q590.4469,806.0469 591.1031,805.7969 Q591.4938,805.6406 591.9156,805.2031 Q592.1813,804.9375 592.3219,804.8594 Q592.4781,804.7813 592.6813,804.7813 Q593.0094,804.7813 593.2594,805.0469 Q593.525,805.2969 593.525,805.6406 Q593.525,805.9844 593.1813,806.3906 Q592.6813,806.9688 591.8844,807.2969 Q590.8063,807.75 589.5094,807.75 Q587.9938,807.75 586.7906,807.125 Q585.8063,806.625 585.1188,805.5625 Q584.4313,804.4844 584.4313,803.2031 L584.4313,802.0469 Q584.4313,800.7188 585.0406,799.5781 Q585.6656,798.4219 586.7594,797.8125 Q587.8531,797.1875 589.0875,797.1875 Q589.8219,797.1875 590.4625,797.3594 Q591.1188,797.5156 591.6656,797.875 Z " fill="#000000"/><text fill="#000000" font-family="sans-serif" font-size="14" lengthAdjust="spacing" textLength="38" x="606.1" y="807.7285">Model</text><line style="stroke:#181818;stroke-width:0.5;" x1="560.5" x2="660.5" y1="818" y2="818"/><polygon fill="none" points="570.5,827.3047,574.5,831.3047,570.5,835.3047,566.5,831.3047" style="stroke:#B38D22;stroke-width:1.0;"/><text fill="#000000" font-family="sans-serif" font-size="14" lengthAdjust="spacing" textLength="42" x="579.5" y="836.5332">strings</text><line style="stroke:#181818;stroke-width:0.5;" x1="560.5" x2="660.5" y1="843.6094" y2="843.6094"/><text fill="#000000" font-family="sans-serif" font-size="14" lengthAdjust="spacing" textLength="81" x="565.5" y="862.1426">constructor()</text><text fill="#000000" font-family="sans-serif" font-size="14" lengthAdjust="spacing" textLength="69" x="565.5" y="879.752">add(string)</text><text fill="#000000" font-family="sans-serif" font-size="14" lengthAdjust="spacing" textLength="90" x="565.5" y="897.3613">remove(index)</text><text fill="#000000" font-family="sans-serif" font-size="14" lengthAdjust="spacing" textLength="63" x="565.5" y="914.9707">get(index)</text><text fill="#000000" font-family="sans-serif" font-size="14" lengthAdjust="spacing" textLength="34" x="565.5" y="932.5801">size()</text></g><!--class ModelOption--><g id="elem_ModelOption"><rect codeLine="42" fill="#228B22" height="100.8281" id="ModelOption" rx="2.5" ry="2.5" style="stroke:#181818;stroke-width:0.5;" width="174" x="371.5" y="624"/><ellipse cx="413.95" cy="640" fill="#A9DCDF" rx="11" ry="11" style="stroke:#181818;stroke-width:1.0;"/><path d="M416.1375,641.7656 L411.9969,641.7656 L411.575,642.7969 L411.9969,642.7969 Q412.6063,642.7969 412.8719,643.0313 Q413.1375,643.2656 413.1375,643.6563 Q413.1375,644.0313 412.8719,644.2656 Q412.6063,644.5 411.9969,644.5 L409.7,644.5 Q409.0906,644.5 408.8406,644.2656 Q408.575,644.0313 408.575,643.6406 Q408.575,643.2656 408.8563,643.0313 Q409.1219,642.7813 409.7469,642.7969 L412.4188,636.1406 L411.3094,636.1406 Q410.7,636.1406 410.4344,635.9063 Q410.1688,635.6719 410.1688,635.2813 Q410.1688,634.9063 410.4344,634.6719 Q410.7,634.4375 411.3094,634.4375 L414.9813,634.4375 L418.3719,642.7969 Q418.9656,642.7969 419.1531,642.9375 Q419.5438,643.2031 419.5438,643.6563 Q419.5438,644.0313 419.2781,644.2656 Q419.0281,644.5 418.4188,644.5 L416.1219,644.5 Q415.5125,644.5 415.2469,644.2656 Q414.9813,644.0313 414.9813,643.6406 Q414.9813,643.2656 415.2469,643.0313 Q415.5125,642.7969 416.1219,642.7969 L416.5438,642.7969 L416.1375,641.7656 Z M415.4188,640.0625 L414.0594,636.6875 L412.6844,640.0625 L415.4188,640.0625 Z " fill="#000000"/><text fill="#000000" font-family="sans-serif" font-size="14" font-style="italic" lengthAdjust="spacing" textLength="81" x="434.05" y="645.7285">ModelOption</text><line style="stroke:#181818;stroke-width:0.5;" x1="372.5" x2="544.5" y1="656" y2="656"/><text fill="#000000" font-family="sans-serif" font-size="14" lengthAdjust="spacing" textLength="38" x="377.5" y="674.5332">model</text><line style="stroke:#181818;stroke-width:0.5;" x1="372.5" x2="544.5" y1="681.6094" y2="681.6094"/><text fill="#000000" font-family="sans-serif" font-size="14" lengthAdjust="spacing" textLength="162" x="377.5" y="700.1426">constructor(string, model)</text><text fill="#000000" font-family="sans-serif" font-size="14" font-style="italic" lengthAdjust="spacing" textLength="128" x="377.5" y="717.752">interact() &#171;abstract&#187;</text></g><!--class ListModelOption--><g id="elem_ListModelOption"><rect codeLine="51" fill="#228B22" height="83.2188" id="ListModelOption" rx="2.5" ry="2.5" style="stroke:#181818;stroke-width:0.5;" width="135" x="7" y="821.5"/><ellipse cx="22.45" cy="837.5" fill="#ADD1B2" rx="11" ry="11" style="stroke:#181818;stroke-width:1.0;"/><path d="M25.2156,833.375 Q25.3719,833.1563 25.5594,833.0469 Q25.7469,832.9375 25.9656,832.9375 Q26.3406,832.9375 26.575,833.2031 Q26.8094,833.4531 26.8094,834.0625 L26.8094,835.5156 Q26.8094,836.125 26.575,836.3906 Q26.3406,836.6563 25.9656,836.6563 Q25.6219,836.6563 25.4188,836.4531 Q25.2156,836.2656 25.1063,835.75 Q25.0594,835.3906 24.8719,835.2031 Q24.5438,834.8281 23.9344,834.6094 Q23.325,834.3906 22.7,834.3906 Q21.9344,834.3906 21.2938,834.7188 Q20.6688,835.0469 20.1688,835.7969 Q19.6844,836.5469 19.6844,837.5781 L19.6844,838.6719 Q19.6844,839.9063 20.575,840.7344 Q21.4656,841.5469 23.0594,841.5469 Q23.9969,841.5469 24.6531,841.2969 Q25.0438,841.1406 25.4656,840.7031 Q25.7313,840.4375 25.8719,840.3594 Q26.0281,840.2813 26.2313,840.2813 Q26.5594,840.2813 26.8094,840.5469 Q27.075,840.7969 27.075,841.1406 Q27.075,841.4844 26.7313,841.8906 Q26.2313,842.4688 25.4344,842.7969 Q24.3563,843.25 23.0594,843.25 Q21.5438,843.25 20.3406,842.625 Q19.3563,842.125 18.6688,841.0625 Q17.9813,839.9844 17.9813,838.7031 L17.9813,837.5469 Q17.9813,836.2188 18.5906,835.0781 Q19.2156,833.9219 20.3094,833.3125 Q21.4031,832.6875 22.6375,832.6875 Q23.3719,832.6875 24.0125,832.8594 Q24.6688,833.0156 25.2156,833.375 Z " fill="#000000"/><text fill="#000000" font-family="sans-serif" font-size="14" lengthAdjust="spacing" textLength="102" x="36.55" y="843.2285">ListModelOption</text><line style="stroke:#181818;stroke-width:0.5;" x1="8" x2="141" y1="853.5" y2="853.5"/><line style="stroke:#181818;stroke-width:0.5;" x1="8" x2="141" y1="861.5" y2="861.5"/><text fill="#000000" font-family="sans-serif" font-size="14" lengthAdjust="spacing" textLength="123" x="13" y="880.0332">constructor (model)</text><text fill="#000000" font-family="sans-serif" font-size="14" lengthAdjust="spacing" textLength="57" x="13" y="897.6426">interact()</text></g><!--class InverseListModelOption--><g id="elem_InverseListModelOption"><rect codeLine="59" fill="#228B22" height="83.2188" id="InverseListModelOption" rx="2.5" ry="2.5" style="stroke:#181818;stroke-width:0.5;" width="180" x="177.5" y="821.5"/><ellipse cx="192.5" cy="837.5" fill="#ADD1B2" rx="11" ry="11" style="stroke:#181818;stroke-width:1.0;"/><path d="M195.2656,833.375 Q195.4219,833.1563 195.6094,833.0469 Q195.7969,832.9375 196.0156,832.9375 Q196.3906,832.9375 196.625,833.2031 Q196.8594,833.4531 196.8594,834.0625 L196.8594,835.5156 Q196.8594,836.125 196.625,836.3906 Q196.3906,836.6563 196.0156,836.6563 Q195.6719,836.6563 195.4688,836.4531 Q195.2656,836.2656 195.1563,835.75 Q195.1094,835.3906 194.9219,835.2031 Q194.5938,834.8281 193.9844,834.6094 Q193.375,834.3906 192.75,834.3906 Q191.9844,834.3906 191.3438,834.7188 Q190.7188,835.0469 190.2188,835.7969 Q189.7344,836.5469 189.7344,837.5781 L189.7344,838.6719 Q189.7344,839.9063 190.625,840.7344 Q191.5156,841.5469 193.1094,841.5469 Q194.0469,841.5469 194.7031,841.2969 Q195.0938,841.1406 195.5156,840.7031 Q195.7813,840.4375 195.9219,840.3594 Q196.0781,840.2813 196.2813,840.2813 Q196.6094,840.2813 196.8594,840.5469 Q197.125,840.7969 197.125,841.1406 Q197.125,841.4844 196.7813,841.8906 Q196.2813,842.4688 195.4844,842.7969 Q194.4063,843.25 193.1094,843.25 Q191.5938,843.25 190.3906,842.625 Q189.4063,842.125 188.7188,841.0625 Q188.0313,839.9844 188.0313,838.7031 L188.0313,837.5469 Q188.0313,836.2188 188.6406,835.0781 Q189.2656,833.9219 190.3594,833.3125 Q191.4531,832.6875 192.6875,832.6875 Q193.4219,832.6875 194.0625,832.8594 Q194.7188,833.0156 195.2656,833.375 Z " fill="#000000"/><text fill="#000000" font-family="sans-serif" font-size="14" lengthAdjust="spacing" textLength="148" x="206.5" y="843.2285">InverseListModelOption</text><line style="stroke:#181818;stroke-width:0.5;" x1="178.5" x2="356.5" y1="853.5" y2="853.5"/><line style="stroke:#181818;stroke-width:0.5;" x1="178.5" x2="356.5" y1="861.5" y2="861.5"/><text fill="#000000" font-family="sans-serif" font-size="14" lengthAdjust="spacing" textLength="123" x="183.5" y="880.0332">constructor (model)</text><text fill="#000000" font-family="sans-serif" font-size="14" lengthAdjust="spacing" textLength="57" x="183.5" y="897.6426">interact()</text></g><!--class X--><g id="elem_X"><rect codeLine="66" fill="#228B22" height="83.2188" id="X" rx="2.5" ry="2.5" style="stroke:#181818;stroke-width:0.5;" width="131" x="393" y="821.5"/><ellipse cx="448.25" cy="837.5" fill="#ADD1B2" rx="11" ry="11" style="stroke:#181818;stroke-width:1.0;"/><path d="M451.0156,833.375 Q451.1719,833.1563 451.3594,833.0469 Q451.5469,832.9375 451.7656,832.9375 Q452.1406,832.9375 452.375,833.2031 Q452.6094,833.4531 452.6094,834.0625 L452.6094,835.5156 Q452.6094,836.125 452.375,836.3906 Q452.1406,836.6563 451.7656,836.6563 Q451.4219,836.6563 451.2188,836.4531 Q451.0156,836.2656 450.9063,835.75 Q450.8594,835.3906 450.6719,835.2031 Q450.3438,834.8281 449.7344,834.6094 Q449.125,834.3906 448.5,834.3906 Q447.7344,834.3906 447.0938,834.7188 Q446.4688,835.0469 445.9688,835.7969 Q445.4844,836.5469 445.4844,837.5781 L445.4844,838.6719 Q445.4844,839.9063 446.375,840.7344 Q447.2656,841.5469 448.8594,841.5469 Q449.7969,841.5469 450.4531,841.2969 Q450.8438,841.1406 451.2656,840.7031 Q451.5313,840.4375 451.6719,840.3594 Q451.8281,840.2813 452.0313,840.2813 Q452.3594,840.2813 452.6094,840.5469 Q452.875,840.7969 452.875,841.1406 Q452.875,841.4844 452.5313,841.8906 Q452.0313,842.4688 451.2344,842.7969 Q450.1563,843.25 448.8594,843.25 Q447.3438,843.25 446.1406,842.625 Q445.1563,842.125 444.4688,841.0625 Q443.7813,839.9844 443.7813,838.7031 L443.7813,837.5469 Q443.7813,836.2188 444.3906,835.0781 Q445.0156,833.9219 446.1094,833.3125 Q447.2031,832.6875 448.4375,832.6875 Q449.1719,832.6875 449.8125,832.8594 Q450.4688,833.0156 451.0156,833.375 Z " fill="#000000"/><text fill="#000000" font-family="sans-serif" font-size="14" lengthAdjust="spacing" textLength="12" x="468.75" y="843.2285">...</text><line style="stroke:#181818;stroke-width:0.5;" x1="394" x2="523" y1="853.5" y2="853.5"/><line style="stroke:#181818;stroke-width:0.5;" x1="394" x2="523" y1="861.5" y2="861.5"/><text fill="#000000" font-family="sans-serif" font-size="14" lengthAdjust="spacing" textLength="119" x="399" y="880.0332">constructor(model)</text><text fill="#000000" font-family="sans-serif" font-size="14" lengthAdjust="spacing" textLength="57" x="399" y="897.6426">interact()</text></g><!--class ModelMenu--><g id="elem_ModelMenu"><rect codeLine="73" fill="#00FF00" height="100.8281" id="ModelMenu" rx="2.5" ry="2.5" style="stroke:#181818;stroke-width:0.5;" width="131" x="537" y="493"/><ellipse cx="563.7" cy="509" fill="#ADD1B2" rx="11" ry="11" style="stroke:#181818;stroke-width:1.0;"/><path d="M566.4656,504.875 Q566.6219,504.6563 566.8094,504.5469 Q566.9969,504.4375 567.2156,504.4375 Q567.5906,504.4375 567.825,504.7031 Q568.0594,504.9531 568.0594,505.5625 L568.0594,507.0156 Q568.0594,507.625 567.825,507.8906 Q567.5906,508.1563 567.2156,508.1563 Q566.8719,508.1563 566.6688,507.9531 Q566.4656,507.7656 566.3563,507.25 Q566.3094,506.8906 566.1219,506.7031 Q565.7938,506.3281 565.1844,506.1094 Q564.575,505.8906 563.95,505.8906 Q563.1844,505.8906 562.5438,506.2188 Q561.9188,506.5469 561.4188,507.2969 Q560.9344,508.0469 560.9344,509.0781 L560.9344,510.1719 Q560.9344,511.4063 561.825,512.2344 Q562.7156,513.0469 564.3094,513.0469 Q565.2469,513.0469 565.9031,512.7969 Q566.2938,512.6406 566.7156,512.2031 Q566.9813,511.9375 567.1219,511.8594 Q567.2781,511.7813 567.4813,511.7813 Q567.8094,511.7813 568.0594,512.0469 Q568.325,512.2969 568.325,512.6406 Q568.325,512.9844 567.9813,513.3906 Q567.4813,513.9688 566.6844,514.2969 Q565.6063,514.75 564.3094,514.75 Q562.7938,514.75 561.5906,514.125 Q560.6063,513.625 559.9188,512.5625 Q559.2313,511.4844 559.2313,510.2031 L559.2313,509.0469 Q559.2313,507.7188 559.8406,506.5781 Q560.4656,505.4219 561.5594,504.8125 Q562.6531,504.1875 563.8875,504.1875 Q564.6219,504.1875 565.2625,504.3594 Q565.9188,504.5156 566.4656,504.875 Z " fill="#000000"/><text fill="#000000" font-family="sans-serif" font-size="14" lengthAdjust="spacing" textLength="73" x="580.3" y="514.7285">ModelMenu</text><line style="stroke:#181818;stroke-width:0.5;" x1="538" x2="667" y1="525" y2="525"/><polygon fill="none" points="548,534.3047,552,538.3047,548,542.3047,544,538.3047" style="stroke:#B38D22;stroke-width:1.0;"/><text fill="#000000" font-family="sans-serif" font-size="14" lengthAdjust="spacing" textLength="38" x="557" y="543.5332">model</text><line style="stroke:#181818;stroke-width:0.5;" x1="538" x2="667" y1="550.6094" y2="550.6094"/><text fill="#000000" font-family="sans-serif" font-size="14" lengthAdjust="spacing" textLength="119" x="543" y="569.1426">constructor(model)</text><text fill="#000000" font-family="sans-serif" font-size="14" lengthAdjust="spacing" textLength="83" x="543" y="586.752">addOptions()</text></g><!--link Option to Console--><g id="link_Option_Console"><path codeLine="12" d="M388.6692,460.7769 C375.7292,473.2469 371.73,478.7 361.5,493 C325.07,543.91 302.1227,608.5378 290.9927,644.5278 " fill="none" id="Option-Console" style="stroke:#181818;stroke-width:1.0;"/><polygon fill="#181818" points="397.31,452.45,390.214,453.7332,388.6692,460.7769,395.7653,459.4937,397.31,452.45" style="stroke:#181818;stroke-width:1.0;"/><polygon fill="#181818" points="289.22,650.26,295.7005,642.8436,290.6972,645.4832,288.0576,640.48,289.22,650.26" style="stroke:#181818;stroke-width:1.0;"/><text fill="#000000" font-family="sans-serif" font-size="13" lengthAdjust="spacing" textLength="89" x="362.5" y="548.9951">{static} console</text></g><!--link Menu to Option--><g id="link_Menu_Option"><path codeLine="30" d="M467.5,278.13 C467.5,299.13 467.5,302.11 467.5,320.83 " fill="none" id="Menu-Option" style="stroke:#181818;stroke-width:1.0;"/><polygon fill="#181818" points="467.5,266.13,463.5,272.13,467.5,278.13,471.5,272.13,467.5,266.13" style="stroke:#181818;stroke-width:1.0;"/><polygon fill="#181818" points="467.5,326.83,471.5,317.83,467.5,321.83,463.5,317.83,467.5,326.83" style="stroke:#181818;stroke-width:1.0;"/><text fill="#000000" font-family="sans-serif" font-size="13" lengthAdjust="spacing" textLength="8" x="459.0625" y="316.0107">+</text></g><!--link Menu to Console--><g id="link_Menu_Console"><path codeLine="31" d="M368.3496,215.7609 C333.8996,248.0109 307.21,281.11 288.5,327 C242.16,440.65 264.6852,587.3181 276.2252,644.6081 " fill="none" id="Menu-Console" style="stroke:#181818;stroke-width:1.0;"/><polygon fill="#181818" points="377.11,207.56,369.9962,208.7403,368.3496,215.7609,375.4635,214.5806,377.11,207.56" style="stroke:#181818;stroke-width:1.0;"/><polygon fill="#181818" points="277.41,650.49,279.5541,640.8774,276.4227,645.5885,271.7116,642.4571,277.41,650.49" style="stroke:#181818;stroke-width:1.0;"/><text fill="#000000" font-family="sans-serif" font-size="13" lengthAdjust="spacing" textLength="89" x="289.5" y="400.4951">{static} console</text></g><!--link ModelOption to Model--><g id="link_ModelOption_Model"><path codeLine="48" d="M499.23,725.48 C517.7,748.14 535.9492,770.5292 555.5192,794.5392 " fill="none" id="ModelOption-to-Model" style="stroke:#181818;stroke-width:1.0;"/><polygon fill="#181818" points="559.31,799.19,556.7244,789.6866,556.151,795.3143,550.5233,794.741,559.31,799.19" style="stroke:#181818;stroke-width:1.0;"/></g><!--reverse link Option to ModelOption--><g id="link_Option_ModelOption"><path codeLine="49" d="M464.7356,481.1705 C463.1256,530.7305 461.56,579.09 460.11,623.9 " fill="none" id="Option-backto-ModelOption" style="stroke:#181818;stroke-width:1.0;"/><polygon fill="none" points="465.32,463.18,458.7387,480.9757,470.7324,481.3653,465.32,463.18" style="stroke:#181818;stroke-width:1.0;"/></g><!--reverse link ModelOption to ListModelOption--><g id="link_ModelOption_ListModelOption"><path codeLine="56" d="M354.598,720.0555 C344.598,724.1255 351.19,721.33 341.5,725 C261.71,755.2 233.26,743.13 159.5,786 C143.07,795.55 127.01,808.62 113.35,821.24 " fill="none" id="ModelOption-backto-ListModelOption" style="stroke:#181818;stroke-width:1.0;"/><polygon fill="none" points="371.27,713.27,352.3361,714.4982,356.8598,725.6129,371.27,713.27" style="stroke:#181818;stroke-width:1.0;"/></g><!--reverse link ModelOption to InverseListModelOption--><g id="link_ModelOption_InverseListModelOption"><path codeLine="64" d="M394.69,737.804 C363.96,767.804 338.19,792.97 309.28,821.21 " fill="none" id="ModelOption-backto-InverseListModelOption" style="stroke:#181818;stroke-width:1.0;"/><polygon fill="none" points="407.57,725.23,390.4987,733.5107,398.8814,742.0973,407.57,725.23" style="stroke:#181818;stroke-width:1.0;"/></g><!--reverse link ModelOption to X--><g id="link_ModelOption_X"><path codeLine="71" d="M458.5,743.48 C458.5,773.47 458.5,793.14 458.5,821.31 " fill="none" id="ModelOption-backto-X" style="stroke:#181818;stroke-width:1.0;"/><polygon fill="none" points="458.5,725.48,452.5,743.48,464.5,743.48,458.5,725.48" style="stroke:#181818;stroke-width:1.0;"/></g><!--reverse link Menu to ModelMenu--><g id="link_Menu_ModelMenu"><path codeLine="79" d="M538.9921,282.6981 C547.6821,302.7681 548.76,306.97 555.5,327 C574.19,382.53 587.33,448.66 594.88,492.88 " fill="none" id="Menu-backto-ModelMenu" style="stroke:#181818;stroke-width:1.0;"/><polygon fill="none" points="531.84,266.18,533.486,285.0821,544.4981,280.3141,531.84,266.18" style="stroke:#181818;stroke-width:1.0;"/></g><!--link ModelMenu to Model--><g id="link_ModelMenu_Model"><path codeLine="80" d="M603.75,594.11 C605.04,645.47 606.9287,720.3819 608.4287,779.8519 " fill="none" id="ModelMenu-to-Model" style="stroke:#181818;stroke-width:1.0;"/><polygon fill="#181818" points="608.58,785.85,612.3518,776.752,608.4539,780.8516,604.3543,776.9537,608.58,785.85" style="stroke:#181818;stroke-width:1.0;"/></g><!--SRC=[jPExRi8m58PtFuMLBA4jF425M1YgIbHTEh1LhdCA5iIkVCobfRnx7LyI4o9eXp8vlttE_vqBVCqGwLH9L6iWXBsXqOmRoft-_664aZJdMbHe3mT2xIytmjZ7zP7RGACtt2XTE7NWv4FCSwH26gXFnO2Enr6UJDmpNAhTInrL25d2tiSkm7XjG8w418AROQbsSZY9fFIU7j0m8_ZHCVJ1Fu7SN43FbKkDb-feuRjbiRBqQDXNM8nx3O5DeHY4OLkw5s0FVBfK2Y7a3RhrAJoe_zPGgIqqravRCWmnyQLj777bDttBRhCmpSx5fOQ6FgeIrZGlcLvDFrdJILkma8lpzhNS_aNAtPbp-edYAuoyEyRQFYxYkzA0va43H8wglZw3yDPt_lRNEsdDKxVO8gV5JHn_UpdbYfsQ2JHNS1D8MYHqoQPrA1h3JdOINH_b5ZJ2_vhtcqI4EML8iz5ebD4hld-qdPyieTjSciz41N4B-yUVcAH_L6TJvpWTOYsHrk1qxEG7]--></g></svg>